<svg version="1.1" id="Layer_1" xmlns="http://www.w3.org/2000/svg" xmlns:xlink="http://www.w3.org/1999/xlink" x="0px" y="0px"
	 width="100%" viewBox="0 0 432 502" enable-background="new 0 0 432 502" xml:space="preserve">
<path fill="#FEFEFE" opacity="1.000000" stroke="none" 
	d="
M433.000000,189.000000 
	C433.000000,293.972046 433.000000,398.444061 433.000000,502.958069 
	C289.066528,502.958069 145.133011,502.958069 1.099757,502.958069 
	C1.099757,335.778015 1.099757,168.555939 1.099757,1.166931 
	C144.999847,1.166931 288.999908,1.166931 433.000000,1.166931 
	C433.000000,63.533592 433.000000,126.016800 433.000000,189.000000 
M388.450714,148.666214 
	C388.001495,148.689545 387.552307,148.712860 386.799042,148.117569 
	C383.184937,146.121918 379.570801,144.126266 375.617188,141.647552 
	C375.077759,141.460495 374.538330,141.273422 373.638367,140.571869 
	C372.350250,139.944122 371.062164,139.316360 369.339050,138.124725 
	C367.225525,137.121506 365.112030,136.118286 362.667419,134.661667 
	C362.004028,134.365356 361.340637,134.069031 360.275757,133.191284 
	C358.182831,132.194412 356.089905,131.197540 353.578308,129.628403 
	C345.705170,125.460503 337.832031,121.292595 329.651611,116.607033 
	C329.100464,116.434868 328.549316,116.262703 327.588654,115.523849 
	C322.778320,112.996162 317.967987,110.468475 312.846680,107.397820 
	C311.896210,107.022461 310.945740,106.647110 309.548096,105.716568 
	C298.455872,99.777077 287.363678,93.837578 275.953888,87.328964 
	C274.968628,86.934532 273.983398,86.540092 272.555969,85.631935 
	C270.761353,84.733070 268.966705,83.834198 266.810669,82.355133 
	C264.539795,81.283485 262.268951,80.211838 259.590881,78.657074 
	C258.307587,78.012787 257.024261,77.368507 255.321655,76.176102 
	C253.879730,75.530876 252.437805,74.885651 250.559555,73.680763 
	C242.690033,69.504257 234.820511,65.327751 226.563721,60.604099 
	C225.752167,60.268776 224.940613,59.933449 223.623978,59.034187 
	C220.025970,56.049828 216.954559,57.590179 213.413315,60.113621 
	C212.965576,60.472542 212.517822,60.831459 211.371490,61.196896 
	C208.590378,62.827618 205.809280,64.458344 202.366760,66.075294 
	C201.480194,66.680634 200.593628,67.285965 199.018967,67.980743 
	C192.347015,71.715790 185.675049,75.450836 178.312973,79.215210 
	C176.181305,80.466751 174.049622,81.718300 171.239502,83.039139 
	C169.494064,84.092392 167.748627,85.145653 165.363602,86.186371 
	C164.502869,86.763512 163.642120,87.340645 162.098434,87.981773 
	C159.733124,89.377129 157.367813,90.772484 154.367523,92.172897 
	C153.524673,92.761772 152.681839,93.350639 151.135742,94.008133 
	C140.091690,100.079330 129.047623,106.150528 117.351303,112.232170 
	C116.670334,112.743591 115.989357,113.255020 114.681076,113.804070 
	C113.465942,114.574356 112.250801,115.344643 110.435822,116.079880 
	C109.978394,116.443726 109.520966,116.807571 108.377594,117.152191 
	C106.252037,118.457977 104.126488,119.763756 101.404335,121.022575 
	C100.944756,121.370712 100.485184,121.718849 99.315369,122.079521 
	C91.544411,126.438721 83.773445,130.797928 75.302574,135.181793 
	C73.285873,136.362549 71.269173,137.543304 68.634193,138.784714 
	C67.423561,139.576385 66.212921,140.368057 64.324066,141.170761 
	C62.801079,142.083298 61.278088,142.995834 59.073208,143.985641 
	C56.728790,145.359390 54.384377,146.733139 51.242107,148.202759 
	C50.419888,150.297119 48.883724,152.389954 48.879292,154.486038 
	C48.749828,215.646164 49.059021,276.809265 48.489967,337.964355 
	C48.395355,348.131653 51.272255,353.236694 60.333435,358.062561 
	C112.066505,385.615082 163.380188,413.955750 214.785233,442.121918 
	C218.177933,443.980865 220.929886,444.180389 224.292542,441.250702 
	C226.193924,440.097321 228.095291,438.943939 230.662033,437.777222 
	C232.140686,436.863525 233.619339,435.949799 235.803085,434.993103 
	C237.264633,434.210388 238.736435,433.446136 240.186188,432.642151 
	C255.124908,424.357666 270.060089,416.066742 285.625702,407.778351 
	C286.469330,407.204926 287.312958,406.631500 288.851379,406.042328 
	C291.233093,404.624573 293.614807,403.206818 296.662292,401.782318 
	C298.133118,400.863953 299.603973,399.945618 301.760132,398.974365 
	C303.505859,397.922974 305.251617,396.871582 307.632599,395.831055 
	C308.484467,395.244202 309.336334,394.657379 310.887909,394.024170 
	C324.257355,386.607635 337.626801,379.191101 351.681305,371.762268 
	C353.037628,370.934326 354.393951,370.106384 356.403687,369.249390 
	C357.910767,368.321869 359.417847,367.394348 361.513611,366.493561 
	C362.122375,366.061035 362.731140,365.628540 364.010925,365.071899 
	C365.985779,363.901215 367.960602,362.730530 370.584778,361.574402 
	C371.837280,360.781555 373.089752,359.988708 375.014648,359.079193 
	C376.990082,357.915222 378.965515,356.751251 381.545929,355.650696 
	C382.186554,355.191345 382.827209,354.731964 384.104736,354.143280 
	C385.388275,353.336182 386.671783,352.529053 388.694794,351.546478 
	C388.887909,345.667328 389.081055,339.788177 389.531250,333.018890 
	C389.571198,329.864777 389.639954,326.710754 389.646667,323.556580 
	C389.716522,290.688324 389.776428,257.820068 390.141235,224.212509 
	C390.237793,200.747482 390.362335,177.282471 390.368469,153.817429 
	C390.368896,152.232574 389.476379,150.647476 388.450714,148.666214 
z"/>
<path fill="#030404" opacity="1.000000" stroke="none" 
	d="
M223.634079,441.280304 
	C220.929886,444.180389 218.177933,443.980865 214.785233,442.121918 
	C163.380188,413.955750 112.066505,385.615082 60.333435,358.062561 
	C51.272255,353.236694 48.395355,348.131653 48.489967,337.964355 
	C49.059021,276.809265 48.749828,215.646164 48.879292,154.486038 
	C48.883724,152.389954 50.419888,150.297119 51.783859,148.460358 
	C53.545864,149.975235 54.564037,151.579041 56.021759,152.429077 
	C61.966259,155.895523 68.109947,159.022446 74.024467,162.536652 
	C75.333267,163.314301 76.007019,165.160736 76.985657,166.834076 
	C77.054329,167.357574 77.110527,167.562073 77.102936,168.246094 
	C77.033356,222.507721 77.062218,276.289886 76.938110,330.071716 
	C76.930428,333.399323 78.019623,335.056305 80.872589,336.607849 
	C120.051453,357.914948 159.144943,379.378967 198.304871,400.721039 
	C205.113968,404.431976 212.132477,407.758698 219.273956,411.400940 
	C219.666641,411.536469 219.839615,411.533936 220.010040,411.966766 
	C220.005463,420.520813 220.093903,428.641144 219.951462,436.757385 
	C219.902725,439.534668 220.557175,441.271973 223.634079,441.280304 
z"/>
<path fill="#000101" opacity="1.000000" stroke="none" 
	d="
M223.963318,441.265503 
	C220.557175,441.271973 219.902725,439.534668 219.951462,436.757385 
	C220.093903,428.641144 220.005463,420.520813 220.313812,411.761261 
	C266.002777,386.318115 311.361603,361.471954 356.817413,336.804504 
	C360.129639,335.007080 361.053955,333.009186 361.057465,329.436676 
	C361.078217,308.314056 361.352020,287.191742 361.873016,265.899109 
	C362.441650,264.631500 362.882050,263.534576 362.884338,262.436707 
	C362.935425,237.880234 362.951202,213.323654 362.912567,188.767181 
	C362.910614,187.528397 362.359375,186.290466 362.004242,184.584076 
	C362.000305,178.677887 362.056061,173.239746 362.252777,167.540558 
	C362.597839,166.517838 362.801910,165.756180 363.002991,164.997284 
	C363.000000,165.000031 362.992889,165.005432 363.224396,164.987549 
	C363.455902,164.969650 363.919983,164.960617 364.256683,164.837616 
	C372.728516,160.476807 380.863647,156.238998 389.014709,152.469574 
	C389.014832,175.202774 388.979828,197.467636 389.020294,219.732361 
	C389.023468,221.472656 389.553772,223.212006 389.839111,224.951797 
	C389.776428,257.820068 389.716522,290.688324 389.646667,323.556580 
	C389.639954,326.710754 389.571198,329.864777 389.083923,333.655212 
	C388.409485,340.101654 388.182404,345.911804 387.955322,351.721954 
	C386.671783,352.529053 385.388275,353.336182 383.461853,354.114624 
	C382.192963,354.586426 381.566956,355.086884 380.940948,355.587341 
	C378.965515,356.751251 376.990082,357.915222 374.333740,359.073212 
	C372.413666,359.898102 371.174530,360.728973 369.935425,361.559875 
	C367.960602,362.730530 365.985779,363.901215 363.365509,365.055542 
	C362.121704,365.515045 361.523315,365.990936 360.924927,366.466858 
	C359.417847,367.394348 357.910767,368.321869 355.691467,369.199799 
	C353.651581,370.024994 352.323914,370.899811 350.996277,371.774597 
	C337.626801,379.191101 324.257355,386.607635 310.182068,394.026001 
	C308.649933,394.625305 307.823669,395.222748 306.997375,395.820190 
	C305.251617,396.871582 303.505859,397.922974 301.053833,398.991455 
	C298.897186,399.935394 297.446838,400.862213 295.996521,401.789062 
	C293.614807,403.206818 291.233093,404.624573 288.153076,406.030792 
	C286.635223,406.605377 285.815735,407.191498 284.996246,407.777618 
	C270.060089,416.066742 255.124908,424.357666 240.186188,432.642151 
	C238.736435,433.446136 237.264633,434.210388 235.085419,435.002655 
	C232.910721,435.938324 231.453690,436.864441 229.996674,437.790558 
	C228.095291,438.943939 226.193924,440.097321 223.963318,441.265503 
z"/>
<path fill="#000101" opacity="1.000000" stroke="none" 
	d="
M76.973183,166.515045 
	C76.007019,165.160736 75.333267,163.314301 74.024467,162.536652 
	C68.109947,159.022446 61.966259,155.895523 56.021759,152.429077 
	C54.564037,151.579041 53.545864,149.975235 52.182785,148.412430 
	C54.384377,146.733139 56.728790,145.359390 59.790283,143.972916 
	C62.005669,143.026703 63.503979,142.093216 65.002289,141.159729 
	C66.212921,140.368057 67.423561,139.576385 69.341736,138.816406 
	C72.033684,137.617783 74.018089,136.387451 76.002487,135.157120 
	C83.773445,130.797928 91.544411,126.438721 99.841064,122.292953 
	C100.911476,122.027435 101.456207,121.548485 102.000938,121.069534 
	C104.126488,119.763756 106.252037,118.457977 108.898193,117.365173 
	C109.957748,117.090416 110.496704,116.602669 111.035660,116.114929 
	C112.250801,115.344643 113.465942,114.574356 115.358093,113.832779 
	C116.691254,113.314903 117.347404,112.768311 118.003563,112.221725 
	C129.047623,106.150528 140.091690,100.079330 151.842163,93.991898 
	C153.366547,93.373055 154.184525,92.770454 155.002502,92.167847 
	C157.367813,90.772484 159.733124,89.377129 162.796844,87.973633 
	C164.331238,87.376625 165.167206,86.787766 166.003174,86.198914 
	C167.748627,85.145653 169.494064,84.092392 171.955109,83.014267 
	C174.781525,81.721558 176.892303,80.453720 179.003098,79.185883 
	C185.675049,75.450836 192.347015,71.715790 199.733459,67.965614 
	C201.308044,67.330009 202.168106,66.709541 203.028168,66.089066 
	C205.809280,64.458344 208.590378,62.827618 211.897156,61.392883 
	C212.949280,61.110565 213.475769,60.632263 214.002243,60.153965 
	C216.954559,57.590179 220.025970,56.049828 223.916656,59.635605 
	C224.472885,60.824730 224.736435,61.412445 225.000000,62.000076 
	C225.000000,62.000000 224.999390,62.000916 224.561539,62.000587 
	C221.242355,62.433296 218.067642,62.240086 215.538559,63.424976 
	C209.604431,66.205154 203.961929,69.614143 198.247360,72.849831 
	C197.372818,73.345016 196.742996,74.272469 195.750000,75.000000 
	C195.500000,75.000000 195.000000,75.000000 194.638306,75.040062 
	C191.185760,76.555275 188.004822,77.869705 185.023972,79.541031 
	C179.772568,82.485428 174.732727,85.812790 169.441086,88.678436 
	C162.282242,92.555267 154.919510,96.054733 147.744537,99.903084 
	C144.375504,101.710075 141.240860,103.954048 137.891769,106.219101 
	C137.584030,106.711464 137.322845,106.898727 136.635666,107.038696 
	C133.847565,108.718262 131.423782,110.359138 128.750000,112.000000 
	C128.500000,112.000000 128.000000,112.000000 127.645752,112.037201 
	C125.268585,113.176811 123.286942,114.364700 121.214851,115.365273 
	C115.472023,118.138390 109.547478,120.572983 103.977608,123.652893 
	C100.393433,125.634796 97.308632,128.519775 93.750000,131.000000 
	C93.500000,131.000000 93.000000,131.000000 92.624168,131.041382 
	C80.401459,135.784164 69.751503,142.554077 57.788883,150.244080 
	C65.031090,153.921875 71.015549,156.960938 77.250000,160.000000 
	C77.500000,160.000000 78.000000,160.000000 78.040237,160.318573 
	C79.042099,161.733444 80.003731,162.829758 80.818176,164.172241 
	C80.007507,165.066193 79.344025,165.713989 78.436981,166.394943 
	C78.193413,166.428101 77.772751,166.682526 77.580849,166.602509 
	C77.388947,166.522491 76.973183,166.515045 76.973183,166.515045 
z"/>
<path fill="#000101" opacity="1.000000" stroke="none" 
	d="
M276.271454,87.898087 
	C287.363678,93.837578 298.455872,99.777077 309.848663,106.326035 
	C311.152039,107.270592 312.154846,107.605690 313.157654,107.940796 
	C317.967987,110.468475 322.778320,112.996162 327.789642,116.125381 
	C327.993744,117.151176 327.996857,117.575432 328.000000,117.999847 
	C328.000000,118.000000 328.000000,118.000305 327.587952,118.000122 
	C323.705231,116.759750 320.118103,115.769440 316.791870,114.219330 
	C312.093506,112.029816 307.587952,109.426453 302.750000,107.000000 
	C302.500000,107.000000 302.000000,107.000000 301.957672,106.636993 
	C300.702667,105.261566 299.626617,103.979919 298.253784,103.283134 
	C292.196167,100.208565 285.918671,97.547104 279.970978,94.280556 
	C269.933777,88.767998 260.164703,82.767578 250.131927,77.246590 
	C242.947571,73.293060 235.462448,69.888115 228.243011,65.994591 
	C226.849258,65.242920 226.064880,63.361286 224.999390,62.000916 
	C224.999390,62.000916 225.000000,62.000000 225.282471,61.987003 
	C226.026962,61.699757 226.488983,61.425507 226.950989,61.151249 
	C234.820511,65.327751 242.690033,69.504257 250.858734,74.313568 
	C252.685608,75.538994 254.213287,76.131607 255.740967,76.724228 
	C257.024261,77.368507 258.307587,78.012787 259.856049,79.240036 
	C262.471497,80.860443 264.821808,81.897888 267.172089,82.935333 
	C268.966705,83.834198 270.761353,84.733070 272.849854,86.238945 
	C274.186340,87.196671 275.228882,87.547379 276.271454,87.898087 
z"/>
<path fill="#000101" opacity="1.000000" stroke="none" 
	d="
M329.958893,117.124695 
	C337.832031,121.292595 345.705170,125.460503 353.856018,130.256805 
	C356.314880,131.847702 358.496063,132.810211 360.677246,133.772720 
	C361.340637,134.069031 362.004028,134.365356 362.896179,135.238647 
	C365.341339,136.773270 367.557678,137.730942 369.774048,138.688599 
	C371.062164,139.316360 372.350250,139.944122 373.845764,141.110214 
	C374.687653,141.809250 375.322174,141.969925 375.956696,142.130615 
	C379.570801,144.126266 383.184937,146.121918 386.886475,148.788025 
	C380.737549,153.092468 374.466003,156.668259 368.288971,160.400436 
	C366.702271,161.359116 365.413452,162.810791 363.774658,164.143707 
	C363.292206,164.442627 363.102661,164.693954 362.992889,165.005432 
	C362.992889,165.005432 363.000000,165.000031 362.612671,165.006226 
	C361.446960,165.052368 360.668579,165.092300 359.610168,165.061035 
	C358.904877,164.621948 358.479584,164.254089 358.209106,163.592621 
	C365.557098,159.079819 372.750214,154.860596 381.320984,149.833313 
	C366.898926,141.960556 354.646973,132.837982 339.750000,128.000000 
	C339.500000,128.000000 339.000000,128.000000 338.958344,127.679398 
	C338.277802,126.905853 337.638885,126.452927 336.750000,126.000000 
	C336.500000,126.000000 336.000000,126.000000 335.948395,125.657066 
	C333.264526,122.876190 330.632263,120.438248 328.000000,118.000305 
	C328.000000,118.000305 328.000000,118.000000 328.285156,117.985535 
	C329.033142,117.688950 329.496033,117.406822 329.958893,117.124695 
z"/>
<path fill="#1B2E2C" opacity="1.000000" stroke="none" 
	d="
M389.990173,224.582153 
	C389.553772,223.212006 389.023468,221.472656 389.020294,219.732361 
	C388.979828,197.467636 389.014832,175.202774 389.020660,152.102020 
	C389.006805,150.531555 389.002960,149.797012 388.999146,149.062485 
	C389.476379,150.647476 390.368896,152.232574 390.368469,153.817429 
	C390.362335,177.282471 390.237793,200.747482 389.990173,224.582153 
z"/>
<path fill="#030404" opacity="1.000000" stroke="none" 
	d="
M388.724915,148.864349 
	C389.002960,149.797012 389.006805,150.531555 389.004700,151.633636 
	C380.863647,156.238998 372.728516,160.476807 364.275299,164.606766 
	C363.957214,164.498932 363.987793,164.035995 363.987793,164.035980 
	C365.413452,162.810791 366.702271,161.359116 368.288971,160.400436 
	C374.466003,156.668259 380.737549,153.092468 387.038513,149.097336 
	C387.552307,148.712860 388.001495,148.689545 388.724915,148.864349 
z"/>
<path fill="#1B2E2C" opacity="1.000000" stroke="none" 
	d="
M388.325043,351.634216 
	C388.182404,345.911804 388.409485,340.101654 388.955383,334.100281 
	C389.081055,339.788177 388.887909,345.667328 388.325043,351.634216 
z"/>
<path fill="#030404" opacity="1.000000" stroke="none" 
	d="
M178.658035,79.200546 
	C176.892303,80.453720 174.781525,81.721558 172.294342,82.979622 
	C174.049622,81.718300 176.181305,80.466751 178.658035,79.200546 
z"/>
<path fill="#030404" opacity="1.000000" stroke="none" 
	d="
M266.991394,82.645233 
	C264.821808,81.897888 262.471497,80.860443 260.059631,79.481598 
	C262.268951,80.211838 264.539795,81.283485 266.991394,82.645233 
z"/>
<path fill="#030404" opacity="1.000000" stroke="none" 
	d="
M369.556549,138.406662 
	C367.557678,137.730942 365.341339,136.773270 363.061737,135.465332 
	C365.112030,136.118286 367.225525,137.121506 369.556549,138.406662 
z"/>
<path fill="#030404" opacity="1.000000" stroke="none" 
	d="
M75.652527,135.169464 
	C74.018089,136.387451 72.033684,137.617783 69.650871,138.786072 
	C71.269173,137.543304 73.285873,136.362549 75.652527,135.169464 
z"/>
<path fill="#030404" opacity="1.000000" stroke="none" 
	d="
M360.476501,133.481995 
	C358.496063,132.810211 356.314880,131.847702 354.065338,130.542938 
	C356.089905,131.197540 358.182831,132.194412 360.476501,133.481995 
z"/>
<path fill="#030404" opacity="1.000000" stroke="none" 
	d="
M230.329346,437.783875 
	C231.453690,436.864441 232.910721,435.938324 234.732864,435.024139 
	C233.619339,435.949799 232.140686,436.863525 230.329346,437.783875 
z"/>
<path fill="#030404" opacity="1.000000" stroke="none" 
	d="
M296.329407,401.785706 
	C297.446838,400.862213 298.897186,399.935394 300.711182,399.017944 
	C299.603973,399.945618 298.133118,400.863953 296.329407,401.785706 
z"/>
<path fill="#030404" opacity="1.000000" stroke="none" 
	d="
M64.663177,141.165253 
	C63.503979,142.093216 62.005669,143.026703 60.131226,143.934265 
	C61.278088,142.995834 62.801079,142.083298 64.663177,141.165253 
z"/>
<path fill="#1B2E2C" opacity="1.000000" stroke="none" 
	d="
M370.260101,361.567139 
	C371.174530,360.728973 372.413666,359.898102 373.997528,359.131531 
	C373.089752,359.988708 371.837280,360.781555 370.260101,361.567139 
z"/>
<path fill="#030404" opacity="1.000000" stroke="none" 
	d="
M351.338806,371.768433 
	C352.323914,370.899811 353.651581,370.024994 355.364746,369.214325 
	C354.393951,370.106384 353.037628,370.934326 351.338806,371.768433 
z"/>
<path fill="#030404" opacity="1.000000" stroke="none" 
	d="
M255.531311,76.450165 
	C254.213287,76.131607 252.685608,75.538994 251.076904,74.593399 
	C252.437805,74.885651 253.879730,75.530876 255.531311,76.450165 
z"/>
<path fill="#030404" opacity="1.000000" stroke="none" 
	d="
M154.685013,92.170380 
	C154.184525,92.770454 153.366547,93.373055 152.193787,93.957588 
	C152.681839,93.350639 153.524673,92.761772 154.685013,92.170380 
z"/>
<path fill="#030404" opacity="1.000000" stroke="none" 
	d="
M165.683380,86.192642 
	C165.167206,86.787766 164.331238,87.376625 163.138321,87.941635 
	C163.642120,87.340645 164.502869,86.763512 165.683380,86.192642 
z"/>
<path fill="#030404" opacity="1.000000" stroke="none" 
	d="
M276.112671,87.613525 
	C275.228882,87.547379 274.186340,87.196671 273.070953,86.495804 
	C273.983398,86.540092 274.968628,86.934532 276.112671,87.613525 
z"/>
<path fill="#030404" opacity="1.000000" stroke="none" 
	d="
M226.757355,60.877678 
	C226.488983,61.425507 226.026962,61.699757 225.282471,61.987083 
	C224.736435,61.412445 224.472885,60.824730 224.169189,59.917572 
	C224.940613,59.933449 225.752167,60.268776 226.757355,60.877678 
z"/>
<path fill="#030404" opacity="1.000000" stroke="none" 
	d="
M313.002167,107.669312 
	C312.154846,107.605690 311.152039,107.270592 310.072266,106.603622 
	C310.945740,106.647110 311.896210,107.022461 313.002167,107.669312 
z"/>
<path fill="#030404" opacity="1.000000" stroke="none" 
	d="
M307.315002,395.825623 
	C307.823669,395.222748 308.649933,394.625305 309.832214,394.049194 
	C309.336334,394.657379 308.484467,395.244202 307.315002,395.825623 
z"/>
<path fill="#030404" opacity="1.000000" stroke="none" 
	d="
M285.310974,407.777954 
	C285.815735,407.191498 286.635223,406.605377 287.805664,406.038635 
	C287.312958,406.631500 286.469330,407.204926 285.310974,407.777954 
z"/>
<path fill="#030404" opacity="1.000000" stroke="none" 
	d="
M202.697464,66.082184 
	C202.168106,66.709541 201.308044,67.330009 200.077515,67.920891 
	C200.593628,67.285965 201.480194,66.680634 202.697464,66.082184 
z"/>
<path fill="#030404" opacity="1.000000" stroke="none" 
	d="
M375.786926,141.889084 
	C375.322174,141.969925 374.687653,141.809250 374.026001,141.367462 
	C374.538330,141.273422 375.077759,141.460495 375.786926,141.889084 
z"/>
<path fill="#1B2E2C" opacity="1.000000" stroke="none" 
	d="
M361.219299,366.480225 
	C361.523315,365.990936 362.121704,365.515045 363.029999,365.117584 
	C362.731140,365.628540 362.122375,366.061035 361.219299,366.480225 
z"/>
<path fill="#1B2E2C" opacity="1.000000" stroke="none" 
	d="
M381.243439,355.619019 
	C381.566956,355.086884 382.192963,354.586426 383.143402,354.179291 
	C382.827209,354.731964 382.186554,355.191345 381.243439,355.619019 
z"/>
<path fill="#030404" opacity="1.000000" stroke="none" 
	d="
M213.707779,60.133793 
	C213.475769,60.632263 212.949280,61.110565 212.246445,61.389622 
	C212.517822,60.831459 212.965576,60.472542 213.707779,60.133793 
z"/>
<path fill="#030404" opacity="1.000000" stroke="none" 
	d="
M117.677429,112.226944 
	C117.347404,112.768311 116.691254,113.314903 115.671745,113.813965 
	C115.989357,113.255020 116.670334,112.743591 117.677429,112.226944 
z"/>
<path fill="#030404" opacity="1.000000" stroke="none" 
	d="
M110.735741,116.097397 
	C110.496704,116.602669 109.957748,117.090416 109.241165,117.374794 
	C109.520966,116.807571 109.978394,116.443726 110.735741,116.097397 
z"/>
<path fill="#030404" opacity="1.000000" stroke="none" 
	d="
M329.805237,116.865860 
	C329.496033,117.406822 329.033142,117.688950 328.285126,117.985382 
	C327.996857,117.575432 327.993744,117.151176 327.994385,116.408722 
	C328.549316,116.262703 329.100464,116.434868 329.805237,116.865860 
z"/>
<path fill="#030404" opacity="1.000000" stroke="none" 
	d="
M101.702637,121.046051 
	C101.456207,121.548485 100.911476,122.027435 100.196182,122.286690 
	C100.485184,121.718849 100.944756,121.370712 101.702637,121.046051 
z"/>
<path fill="#50EFDE" opacity="1.000000" stroke="none" 
	d="
M77.772751,166.682526 
	C77.772751,166.682526 78.193413,166.428101 78.573570,166.766418 
	C79.995239,167.900772 80.956055,168.842819 82.090858,169.470078 
	C92.405365,175.171417 102.740219,180.836227 113.088043,186.476974 
	C148.357452,205.702866 183.634537,224.914627 218.920105,244.591980 
	C218.942245,250.542618 218.959290,256.033051 218.962784,261.523468 
	C218.994598,311.436615 219.024078,361.349731 219.054245,411.262878 
	C212.132477,407.758698 205.113968,404.431976 198.304871,400.721039 
	C159.144943,379.378967 120.051453,357.914948 80.872589,336.607849 
	C78.019623,335.056305 76.930428,333.399323 76.938110,330.071716 
	C77.062218,276.289886 77.033356,222.507721 77.316177,168.144791 
	C77.868340,167.314346 77.928192,167.020538 77.772751,166.682526 
z"/>
<path fill="#00D6B7" opacity="1.000000" stroke="none" 
	d="
M219.273956,411.400940 
	C219.024078,361.349731 218.994598,311.436615 218.962784,261.523468 
	C218.959290,256.033051 218.942245,250.542618 219.243073,244.425507 
	C223.819489,241.566116 228.111328,239.383347 232.344833,237.092758 
	C262.610840,220.717072 292.880676,204.348389 323.115326,187.914963 
	C335.821808,181.008591 348.445923,173.950638 361.280518,167.100052 
	C361.602905,167.508148 361.822327,167.695847 362.111816,167.801620 
	C362.056061,173.239746 362.000305,178.677887 361.816772,184.934845 
	C361.495789,211.715042 361.298553,237.676407 361.128265,263.637939 
	C361.122955,264.447449 361.396942,265.258820 361.540710,266.069305 
	C361.352020,287.191742 361.078217,308.314056 361.057465,329.436676 
	C361.053955,333.009186 360.129639,335.007080 356.817413,336.804504 
	C311.361603,361.471954 266.002777,386.318115 220.316376,411.325928 
	C219.839615,411.533936 219.666641,411.536469 219.273956,411.400940 
z"/>
<path fill="#0087C5" opacity="1.000000" stroke="none" 
	d="
M77.580849,166.602509 
	C77.928192,167.020538 77.868340,167.314346 77.379959,167.665253 
	C77.110527,167.562073 77.054329,167.357574 76.985657,166.834076 
	C76.973183,166.515045 77.388947,166.522491 77.580849,166.602509 
z"/>
<path fill="#1B2E2C" opacity="1.000000" stroke="none" 
	d="
M361.872986,265.899109 
	C361.396942,265.258820 361.122955,264.447449 361.128265,263.637939 
	C361.298553,237.676407 361.495789,211.715042 361.876434,185.402908 
	C362.359375,186.290466 362.910614,187.528397 362.912567,188.767181 
	C362.951202,213.323654 362.935425,237.880234 362.884338,262.436707 
	C362.882050,263.534576 362.441650,264.631500 361.872986,265.899109 
z"/>
<path fill="#1B2E2C" opacity="1.000000" stroke="none" 
	d="
M362.252747,167.540558 
	C361.822327,167.695847 361.602905,167.508148 361.192810,166.834091 
	C360.584808,165.997192 360.237518,165.564713 359.890198,165.132233 
	C360.668579,165.092300 361.446960,165.052368 362.615662,165.003479 
	C362.801910,165.756180 362.597839,166.517838 362.252747,167.540558 
z"/>
<path fill="#1B2E2C" opacity="1.000000" stroke="none" 
	d="
M363.774658,164.143723 
	C363.987793,164.035995 363.957214,164.498932 363.938599,164.729767 
	C363.919983,164.960617 363.455902,164.969650 363.224396,164.987549 
	C363.102661,164.693954 363.292206,164.442627 363.774658,164.143723 
z"/>
<path fill="#0087C5" opacity="1.000000" stroke="none" 
	d="
M359.610168,165.061035 
	C360.237518,165.564713 360.584808,165.997192 361.019775,166.695633 
	C348.445923,173.950638 335.821808,181.008591 323.115326,187.914963 
	C292.880676,204.348389 262.610840,220.717072 232.344833,237.092758 
	C228.111328,239.383347 223.819489,241.566116 219.231674,243.965302 
	C183.634537,224.914627 148.357452,205.702866 113.088043,186.476974 
	C102.740219,180.836227 92.405365,175.171417 82.090858,169.470078 
	C80.956055,168.842819 79.995239,167.900772 78.817139,166.733246 
	C79.344025,165.713989 80.007507,165.066193 81.165833,164.119720 
	C90.466759,158.963501 99.272842,154.105957 108.377785,149.195618 
	C109.499672,148.582458 110.322708,148.022110 111.503662,147.391541 
	C114.257065,145.934555 116.652557,144.547775 119.405510,143.102997 
	C125.179581,140.041519 130.596191,137.038040 136.340515,133.976761 
	C137.330658,133.354202 137.993073,132.789444 138.998474,132.235641 
	C153.832184,124.439323 168.358307,116.696762 182.801849,108.803162 
	C193.292160,103.070061 203.673248,97.137138 214.428741,91.245346 
	C215.857101,90.539642 216.959778,89.881912 218.422424,89.243217 
	C221.463409,90.524345 224.196991,91.686584 226.816422,93.065643 
	C238.866852,99.409920 250.885437,105.814705 263.104828,112.462616 
	C264.860504,113.491470 266.426819,114.255508 268.197510,115.291977 
	C272.600983,117.710426 276.800049,119.856453 281.196594,122.279373 
	C284.280579,124.027786 287.167084,125.499313 290.207581,127.218933 
	C290.903656,127.655113 291.445770,127.843178 292.185852,128.310150 
	C298.928528,132.169891 305.447662,135.798370 312.023010,139.322021 
	C327.352386,147.536911 342.708832,155.701340 358.054291,163.886215 
	C358.479584,164.254089 358.904877,164.621948 359.610168,165.061035 
z"/>
<path fill="#000000" opacity="1.000000" stroke="none" 
	d="
M280.999146,122.002487 
	C276.800049,119.856453 272.600983,117.710426 268.258911,114.933517 
	C269.633698,113.205421 271.005829,111.715256 272.697845,111.088051 
	C276.980103,109.500694 281.394257,110.252853 285.775146,110.998528 
	C288.553436,111.471413 289.583771,112.516319 288.180145,115.387970 
	C287.482635,116.815018 287.547211,118.614571 287.061859,121.439865 
	C290.759949,119.537056 292.927429,118.421799 296.016937,116.832115 
	C296.265320,119.853546 296.468597,122.326019 296.757751,125.843323 
	C299.149719,123.272255 302.161987,121.516983 302.278778,119.586555 
	C302.492554,116.052872 301.067657,112.393623 299.992218,108.889175 
	C299.940308,108.720047 296.606934,109.336220 294.960541,109.987976 
	C294.308258,110.246185 294.089844,111.600365 293.395874,113.027122 
	C288.471527,103.036354 278.770569,107.622360 272.945618,103.120689 
	C271.401825,104.514496 270.066162,106.722244 268.789398,106.688721 
	C264.655243,106.580132 264.006958,109.470375 262.915436,112.197792 
	C250.885437,105.814705 238.866852,99.409920 226.816422,93.065643 
	C224.196991,91.686584 221.463409,90.524345 218.404114,88.807602 
	C217.605270,80.826981 216.188919,79.591812 211.638290,82.401794 
	C212.478256,85.431915 213.290649,88.362617 214.103043,91.293312 
	C203.673248,97.137138 193.292160,103.070061 182.801849,108.803162 
	C168.358307,116.696762 153.832184,124.439323 138.611786,132.194077 
	C137.259003,132.772552 136.635910,133.403549 136.012802,134.034546 
	C130.596191,137.038040 125.179581,140.041519 119.333176,142.725464 
	C114.214088,139.655701 111.587715,141.367371 111.145744,147.461746 
	C110.322708,148.022110 109.499672,148.582458 108.308243,148.820312 
	C106.564171,148.206131 104.838966,147.236176 103.870750,147.735138 
	C98.433670,150.537048 93.282913,153.899460 87.821381,156.647095 
	C84.760117,158.187180 81.287354,158.909317 78.000000,160.000000 
	C78.000000,160.000000 77.500000,160.000000 77.209091,159.642761 
	C73.307182,156.863785 69.728737,154.391479 66.073799,152.037964 
	C63.604053,150.447617 63.178581,148.725204 65.831856,147.154022 
	C69.913528,144.736954 74.229034,142.713882 78.303162,140.285156 
	C83.278908,137.318939 88.107674,134.106155 93.000000,131.000000 
	C93.000000,131.000000 93.500000,131.000000 94.116989,130.960587 
	C96.866898,130.038467 99.070930,129.294662 101.118866,128.246017 
	C106.461151,125.510490 111.930092,122.946693 116.972069,119.725204 
	C120.734543,117.321228 127.128426,118.507553 128.000000,112.000000 
	C128.000000,112.000000 128.500000,112.000000 129.116882,111.960587 
	C132.155853,110.280785 134.577927,108.640388 137.000000,107.000000 
	C137.322845,106.898727 137.584030,106.711464 138.280975,106.212555 
	C147.012589,101.996170 155.283142,98.078453 163.471512,93.995903 
	C173.350769,89.070320 183.160294,84.004906 192.999359,79.396729 
	C192.408966,82.650780 191.819214,85.508095 191.229477,88.365410 
	C191.741364,88.538513 192.253250,88.711617 192.765152,88.884720 
	C194.848831,87.666626 196.932526,86.448532 199.990326,84.660988 
	C200.256622,87.845024 200.463608,90.319992 200.670609,92.794968 
	C201.093216,92.897659 201.515808,93.000359 201.938416,93.103050 
	C202.784897,89.463661 209.893967,88.592331 205.536255,82.499832 
	C205.189178,82.014595 206.311462,79.634064 207.214615,79.263031 
	C209.579178,78.291618 212.211304,77.433418 214.716934,77.485451 
	C217.571503,77.544731 220.486969,78.417580 223.192825,79.427536 
	C223.928833,79.702240 224.275528,81.736801 224.313812,82.978699 
	C224.359482,84.460373 223.881454,85.958206 223.630310,87.449043 
	C225.321259,87.165253 227.039398,86.985954 228.692169,86.555542 
	C229.577774,86.324913 230.350861,85.662155 231.731583,84.878242 
	C232.348892,87.859467 232.860931,90.332367 233.576508,93.788147 
	C236.305969,89.287750 241.513458,86.907295 237.263901,81.769508 
	C237.041245,81.500328 238.191299,79.924988 238.883240,79.111649 
	C239.831360,77.997200 240.952820,77.030190 242.354767,76.037292 
	C253.223923,81.753853 263.680542,87.543671 274.270203,93.078880 
	C283.435028,97.869331 292.750885,102.370804 302.000000,107.000000 
	C302.000000,107.000000 302.500000,107.000000 302.782043,107.337143 
	C304.376038,109.449532 305.688019,111.224770 307.005981,113.384155 
	C308.562164,117.713676 311.445160,122.158127 303.574280,122.528175 
	C303.333679,122.539482 302.572083,125.606071 303.172211,126.374588 
	C304.365662,127.902939 306.339386,128.822006 308.429626,130.304047 
	C308.429626,127.384308 308.429626,125.374138 308.429626,122.141418 
	C310.878693,123.988853 312.349945,125.502945 314.140411,126.299843 
	C315.239288,126.788933 316.826935,126.179848 318.195099,126.063889 
	C317.898315,125.142685 317.686218,123.460602 317.291779,123.416695 
	C312.808716,122.917671 314.224274,119.560272 314.387482,117.006378 
	C316.810638,117.657555 318.925323,118.123619 320.866638,118.981857 
	C325.951508,121.229851 330.960663,123.649040 336.000000,126.000000 
	C336.000000,126.000000 336.500000,126.000000 336.791687,126.320602 
	C337.722229,127.094131 338.361115,127.547066 339.000000,128.000000 
	C339.000000,128.000000 339.500000,128.000000 339.802490,128.345428 
	C341.683807,129.770508 343.199677,130.959641 344.852966,131.909698 
	C350.208160,134.987015 355.613800,137.976608 360.808502,141.269348 
	C359.403778,142.317184 358.190582,143.095703 356.836700,143.964478 
	C352.525696,134.974503 342.784058,139.674942 337.974304,135.888077 
	C334.484100,137.157776 331.836487,137.917557 329.397003,139.105026 
	C328.371307,139.604324 327.785675,141.007645 326.638916,141.996002 
	C324.518585,141.328003 322.759277,140.664001 320.969360,139.707336 
	C320.292450,139.276443 319.646240,139.138229 318.645386,138.962769 
	C316.163483,137.720642 314.013245,136.554184 311.913757,135.302643 
	C307.868927,132.891464 304.007416,130.099136 299.762115,128.127640 
	C297.501373,127.077766 294.582581,124.430901 291.987885,128.031250 
	C291.445770,127.843178 290.903656,127.655113 290.473419,126.976357 
	C290.150238,125.080589 289.715179,123.675514 289.280121,122.270439 
	C286.488220,123.156784 283.899109,117.776520 280.999146,122.002487 
M243.451859,82.656761 
	C243.492188,85.118843 247.542389,88.042084 242.544235,89.940811 
	C241.020111,90.519806 239.629486,91.450188 238.177734,92.219635 
	C239.534836,93.944839 240.891937,95.670036 243.050461,98.414024 
	C243.830872,94.868042 244.229248,93.057915 244.830856,90.324371 
	C247.008026,92.015121 248.466522,93.578522 250.264618,94.381760 
	C251.334305,94.859612 252.938156,94.141792 254.301849,93.961525 
	C253.604980,92.976242 252.813965,92.042992 252.233673,90.993271 
	C251.402405,89.489563 250.308472,87.964584 250.059082,86.336502 
	C249.270935,81.191345 248.462067,80.510597 243.451859,82.656761 
M256.069458,99.251068 
	C256.836151,99.465096 257.602875,99.679123 258.369568,99.893158 
	C258.427704,99.156593 258.485840,98.420021 258.543976,97.683449 
	C257.726105,97.971878 256.908203,98.260300 256.069458,99.251068 
M320.298859,129.859589 
	C320.597717,130.761642 320.896576,131.663696 321.195465,132.565735 
	C321.728210,132.051239 322.260956,131.536728 322.793701,131.022217 
	C322.123444,130.467697 321.453186,129.913193 320.298859,129.859589 
z"/>
<path fill="#000000" opacity="1.000000" stroke="none" 
	d="
M301.957672,106.636993 
	C292.750885,102.370804 283.435028,97.869331 274.270203,93.078880 
	C263.680542,87.543671 253.223923,81.753853 242.187531,75.792038 
	C241.110352,75.339668 240.555176,75.169830 239.781555,74.730644 
	C234.330521,71.435104 229.116470,68.376045 223.850143,65.409752 
	C222.763000,64.797409 221.075516,63.816933 220.357635,64.225029 
	C216.778061,66.259903 213.429718,68.701523 209.625000,71.000000 
	C208.500000,71.000000 207.750000,71.000000 206.672180,71.145126 
	C202.896255,72.526833 199.448120,73.763412 196.000000,75.000000 
	C196.742996,74.272469 197.372818,73.345016 198.247360,72.849831 
	C203.961929,69.614143 209.604431,66.205154 215.538559,63.424976 
	C218.067642,62.240086 221.242355,62.433296 224.561539,62.000584 
	C226.064880,63.361286 226.849258,65.242920 228.243011,65.994591 
	C235.462448,69.888115 242.947571,73.293060 250.131927,77.246590 
	C260.164703,82.767578 269.933777,88.767998 279.970978,94.280556 
	C285.918671,97.547104 292.196167,100.208565 298.253784,103.283134 
	C299.626617,103.979919 300.702667,105.261566 301.957672,106.636993 
z"/>
<path fill="#000000" opacity="1.000000" stroke="none" 
	d="
M193.000000,79.000000 
	C183.160294,84.004906 173.350769,89.070320 163.471512,93.995903 
	C155.283142,98.078453 147.012589,101.996170 138.389221,105.993454 
	C141.240860,103.954048 144.375504,101.710075 147.744537,99.903084 
	C154.919510,96.054733 162.282242,92.555267 169.441086,88.678436 
	C174.732727,85.812790 179.772568,82.485428 185.023972,79.541031 
	C188.004822,77.869705 191.185760,76.555275 194.606232,75.385391 
	C194.623901,76.793777 194.311951,77.896889 193.750000,79.000000 
	C193.500000,79.000000 193.000000,79.000000 193.000000,79.000000 
z"/>
<path fill="#000000" opacity="1.000000" stroke="none" 
	d="
M92.624168,131.041382 
	C88.107674,134.106155 83.278908,137.318939 78.303162,140.285156 
	C74.229034,142.713882 69.913528,144.736954 65.831856,147.154022 
	C63.178581,148.725204 63.604053,150.447617 66.073799,152.037964 
	C69.728737,154.391479 73.307182,156.863785 76.959091,159.642761 
	C71.015549,156.960938 65.031090,153.921875 57.788883,150.244080 
	C69.751503,142.554077 80.401459,135.784164 92.624168,131.041382 
z"/>
<path fill="#000000" opacity="1.000000" stroke="none" 
	d="
M78.040237,160.318573 
	C81.287354,158.909317 84.760117,158.187180 87.821381,156.647095 
	C93.282913,153.899460 98.433670,150.537048 103.870750,147.735138 
	C104.838966,147.236176 106.564171,148.206131 108.009384,148.873108 
	C99.272842,154.105957 90.466759,158.963501 81.313019,163.873566 
	C80.003731,162.829758 79.042099,161.733444 78.040237,160.318573 
z"/>
<path fill="#000000" opacity="1.000000" stroke="none" 
	d="
M127.645752,112.037201 
	C127.128426,118.507553 120.734543,117.321228 116.972069,119.725204 
	C111.930092,122.946693 106.461151,125.510490 101.118866,128.246017 
	C99.070930,129.294662 96.866898,130.038467 94.366989,130.960587 
	C97.308632,128.519775 100.393433,125.634796 103.977608,123.652893 
	C109.547478,120.572983 115.472023,118.138390 121.214851,115.365273 
	C123.286942,114.364700 125.268585,113.176811 127.645752,112.037201 
z"/>
<path fill="#000000" opacity="1.000000" stroke="none" 
	d="
M194.000000,79.000000 
	C194.311951,77.896889 194.623901,76.793777 194.967926,75.345337 
	C195.000000,75.000000 195.500000,75.000000 195.750000,75.000000 
	C199.448120,73.763412 202.896255,72.526833 206.665009,71.539963 
	C206.783966,74.703270 205.460159,76.213196 202.301773,76.085670 
	C201.243134,76.042931 199.439621,76.745499 199.186920,77.508347 
	C198.089859,80.819923 195.914948,79.238609 194.000000,79.000000 
z"/>
<path fill="#000000" opacity="1.000000" stroke="none" 
	d="
M136.635666,107.038696 
	C134.577927,108.640388 132.155853,110.280785 129.366882,111.960594 
	C131.423782,110.359138 133.847565,108.718262 136.635666,107.038696 
z"/>
<path fill="#000000" opacity="1.000000" stroke="none" 
	d="
M335.948395,125.657059 
	C330.960663,123.649040 325.951508,121.229851 320.866638,118.981857 
	C318.925323,118.123619 316.810638,117.657555 314.233765,116.694946 
	C311.461700,115.251411 309.230835,114.125702 307.000000,113.000000 
	C305.688019,111.224770 304.376038,109.449532 303.032043,107.337143 
	C307.587952,109.426453 312.093506,112.029816 316.791870,114.219330 
	C320.118103,115.769440 323.705231,116.759750 327.587952,118.000122 
	C330.632263,120.438248 333.264526,122.876190 335.948395,125.657059 
z"/>
<path fill="#000000" opacity="1.000000" stroke="none" 
	d="
M292.185852,128.310150 
	C294.582581,124.430901 297.501373,127.077766 299.762115,128.127640 
	C304.007416,130.099136 307.868927,132.891464 311.913757,135.302643 
	C314.013245,136.554184 316.163483,137.720642 318.812622,139.208008 
	C319.889679,139.660339 320.444824,139.830170 321.000000,140.000000 
	C322.759277,140.664001 324.518585,141.328003 326.678833,142.352341 
	C328.386536,143.475113 329.693268,144.237549 331.064087,145.354919 
	C333.752106,146.806549 336.376038,147.903275 339.158142,149.317169 
	C340.726624,152.379745 342.912445,153.585205 346.163025,153.312134 
	C349.370331,155.484619 352.344757,157.474487 355.481018,159.164001 
	C357.959961,160.499420 360.344604,160.729370 361.333313,157.000000 
	C362.111115,157.000000 362.555542,157.000000 363.371216,156.995453 
	C367.810150,154.881821 371.877869,152.772751 375.912537,150.680801 
	C371.561432,147.510117 367.780731,144.755051 363.794373,141.737610 
	C362.725800,141.316818 361.862915,141.158417 361.000000,141.000000 
	C355.613800,137.976608 350.208160,134.987015 344.852966,131.909698 
	C343.199677,130.959641 341.683807,129.770508 340.052490,128.345428 
	C354.646973,132.837982 366.898926,141.960556 381.320984,149.833313 
	C372.750214,154.860596 365.557098,159.079819 358.209106,163.592621 
	C342.708832,155.701340 327.352386,147.536911 312.023010,139.322021 
	C305.447662,135.798370 298.928528,132.169891 292.185852,128.310150 
z"/>
<path fill="#000000" opacity="1.000000" stroke="none" 
	d="
M338.958344,127.679398 
	C338.361115,127.547066 337.722229,127.094131 337.041687,126.320602 
	C337.638885,126.452927 338.277802,126.905853 338.958344,127.679398 
z"/>
<path fill="#000000" opacity="1.000000" stroke="none" 
	d="
M263.104828,112.462616 
	C264.006958,109.470375 264.655243,106.580132 268.789398,106.688721 
	C270.066162,106.722244 271.401825,104.514496 272.945618,103.120689 
	C278.770569,107.622360 288.471527,103.036354 293.395874,113.027122 
	C294.089844,111.600365 294.308258,110.246185 294.960541,109.987976 
	C296.606934,109.336220 299.940308,108.720047 299.992218,108.889175 
	C301.067657,112.393623 302.492554,116.052872 302.278778,119.586555 
	C302.161987,121.516983 299.149719,123.272255 296.757751,125.843323 
	C296.468597,122.326019 296.265320,119.853546 296.016937,116.832115 
	C292.927429,118.421799 290.759949,119.537056 287.061859,121.439865 
	C287.547211,118.614571 287.482635,116.815018 288.180145,115.387970 
	C289.583771,112.516319 288.553436,111.471413 285.775146,110.998528 
	C281.394257,110.252853 276.980103,109.500694 272.697845,111.088051 
	C271.005829,111.715256 269.633698,113.205421 268.054504,114.661102 
	C266.426819,114.255508 264.860504,113.491470 263.104828,112.462616 
z"/>
<path fill="#000000" opacity="1.000000" stroke="none" 
	d="
M214.428741,91.245346 
	C213.290649,88.362617 212.478256,85.431915 211.638290,82.401794 
	C216.188919,79.591812 217.605270,80.826981 218.044128,88.788567 
	C216.959778,89.881912 215.857101,90.539642 214.428741,91.245346 
z"/>
<path fill="#000000" opacity="1.000000" stroke="none" 
	d="
M281.196594,122.279373 
	C283.899109,117.776520 286.488220,123.156784 289.280121,122.270439 
	C289.715179,123.675514 290.150238,125.080589 290.319458,126.728256 
	C287.167084,125.499313 284.280579,124.027786 281.196594,122.279373 
z"/>
<path fill="#000000" opacity="1.000000" stroke="none" 
	d="
M111.503662,147.391541 
	C111.587715,141.367371 114.214088,139.655701 118.975716,142.783463 
	C116.652557,144.547775 114.257065,145.934555 111.503662,147.391541 
z"/>
<path fill="#030404" opacity="1.000000" stroke="none" 
	d="
M136.340515,133.976746 
	C136.635910,133.403549 137.259003,132.772552 138.268799,132.183121 
	C137.993073,132.789444 137.330658,133.354202 136.340515,133.976746 
z"/>
<path fill="#000000" opacity="1.000000" stroke="none" 
	d="
M193.750000,79.000000 
	C195.914948,79.238609 198.089859,80.819923 199.186920,77.508347 
	C199.439621,76.745499 201.243134,76.042931 202.301773,76.085670 
	C205.460159,76.213196 206.783966,74.703270 206.992828,71.394836 
	C207.750000,71.000000 208.500000,71.000000 209.823181,71.275009 
	C211.661987,72.266014 212.994705,73.691360 214.181931,73.579018 
	C220.332657,72.997002 225.564529,74.295753 229.397034,80.425217 
	C230.440430,78.237289 231.162231,76.723724 231.522446,75.968384 
	C234.749741,75.599731 237.374878,75.299866 240.000000,75.000000 
	C240.555176,75.169830 241.110352,75.339668 241.832764,75.754753 
	C240.952820,77.030190 239.831360,77.997200 238.883240,79.111649 
	C238.191299,79.924988 237.041245,81.500328 237.263901,81.769508 
	C241.513458,86.907295 236.305969,89.287750 233.576508,93.788147 
	C232.860931,90.332367 232.348892,87.859467 231.731583,84.878242 
	C230.350861,85.662155 229.577774,86.324913 228.692169,86.555542 
	C227.039398,86.985954 225.321259,87.165253 223.630310,87.449043 
	C223.881454,85.958206 224.359482,84.460373 224.313812,82.978699 
	C224.275528,81.736801 223.928833,79.702240 223.192825,79.427536 
	C220.486969,78.417580 217.571503,77.544731 214.716934,77.485451 
	C212.211304,77.433418 209.579178,78.291618 207.214615,79.263031 
	C206.311462,79.634064 205.189178,82.014595 205.536255,82.499832 
	C209.893967,88.592331 202.784897,89.463661 201.938416,93.103050 
	C201.515808,93.000359 201.093216,92.897659 200.670609,92.794968 
	C200.463608,90.319992 200.256622,87.845024 199.990326,84.660988 
	C196.932526,86.448532 194.848831,87.666626 192.765152,88.884720 
	C192.253250,88.711617 191.741364,88.538513 191.229477,88.365410 
	C191.819214,85.508095 192.408966,82.650780 192.999359,79.396729 
	C193.000000,79.000000 193.500000,79.000000 193.750000,79.000000 
z"/>
<path fill="#000000" opacity="1.000000" stroke="none" 
	d="
M360.808502,141.269348 
	C361.862915,141.158417 362.725800,141.316818 363.794861,142.128876 
	C365.967072,147.362900 367.958801,151.939941 363.044830,156.040573 
	C362.878693,156.179214 363.008240,156.672180 363.000000,157.000000 
	C362.555542,157.000000 362.111115,157.000000 361.065887,156.775787 
	C360.266357,154.119293 360.067566,151.687027 359.819580,148.652405 
	C356.716095,150.538010 354.772339,151.719009 352.828583,152.899994 
	C352.351654,152.771973 351.874695,152.643936 351.397766,152.515900 
	C351.674622,150.739609 351.619873,148.821793 352.303741,147.219193 
	C353.414124,144.617035 352.561554,143.599579 350.072662,143.007507 
	C343.463287,141.435196 337.133453,142.191528 331.000000,145.000000 
	C329.693268,144.237549 328.386536,143.475113 327.039917,142.356323 
	C327.785675,141.007645 328.371307,139.604324 329.397003,139.105026 
	C331.836487,137.917557 334.484100,137.157776 337.974304,135.888077 
	C342.784058,139.674942 352.525696,134.974503 356.836700,143.964478 
	C358.190582,143.095703 359.403778,142.317184 360.808502,141.269348 
z"/>
<path fill="#000000" opacity="1.000000" stroke="none" 
	d="
M307.005981,113.384148 
	C309.230835,114.125702 311.461700,115.251411 313.846252,116.688560 
	C314.224274,119.560272 312.808716,122.917671 317.291779,123.416695 
	C317.686218,123.460602 317.898315,125.142685 318.195099,126.063889 
	C316.826935,126.179848 315.239288,126.788933 314.140411,126.299843 
	C312.349945,125.502945 310.878693,123.988853 308.429626,122.141418 
	C308.429626,125.374138 308.429626,127.384308 308.429626,130.304047 
	C306.339386,128.822006 304.365662,127.902939 303.172211,126.374588 
	C302.572083,125.606071 303.333679,122.539482 303.574280,122.528175 
	C311.445160,122.158127 308.562164,117.713676 307.005981,113.384148 
z"/>
<path fill="#000000" opacity="1.000000" stroke="none" 
	d="
M243.701019,82.384766 
	C248.462067,80.510597 249.270935,81.191345 250.059082,86.336502 
	C250.308472,87.964584 251.402405,89.489563 252.233673,90.993271 
	C252.813965,92.042992 253.604980,92.976242 254.301849,93.961533 
	C252.938156,94.141792 251.334305,94.859612 250.264618,94.381760 
	C248.466522,93.578522 247.008026,92.015121 244.830856,90.324371 
	C244.229248,93.057915 243.830872,94.868042 243.050461,98.414024 
	C240.891937,95.670036 239.534836,93.944839 238.177734,92.219635 
	C239.629486,91.450188 241.020111,90.519806 242.544235,89.940811 
	C247.542389,88.042084 243.492188,85.118843 243.701019,82.384766 
z"/>
<path fill="#000000" opacity="1.000000" stroke="none" 
	d="
M256.079895,98.899895 
	C256.908203,98.260300 257.726105,97.971878 258.543976,97.683456 
	C258.485840,98.420021 258.427704,99.156593 258.369568,99.893158 
	C257.602875,99.679123 256.836151,99.465096 256.079895,98.899895 
z"/>
<path fill="#000000" opacity="1.000000" stroke="none" 
	d="
M320.540894,129.609131 
	C321.453186,129.913193 322.123444,130.467697 322.793701,131.022217 
	C322.260956,131.536728 321.728210,132.051239 321.195435,132.565735 
	C320.896576,131.663696 320.597717,130.761642 320.540894,129.609131 
z"/>
<path fill="#000000" opacity="1.000000" stroke="none" 
	d="
M320.969360,139.707336 
	C320.444824,139.830170 319.889679,139.660339 319.167236,139.245239 
	C319.646240,139.138229 320.292450,139.276443 320.969360,139.707336 
z"/>
<path fill="#000000" opacity="1.000000" stroke="none" 
	d="
M239.781555,74.730644 
	C237.374878,75.299866 234.749741,75.599731 231.522446,75.968384 
	C231.162231,76.723724 230.440430,78.237289 229.397034,80.425217 
	C225.564529,74.295753 220.332657,72.997002 214.181931,73.579018 
	C212.994705,73.691360 211.661987,72.266014 210.198181,71.275009 
	C213.429718,68.701523 216.778061,66.259903 220.357635,64.225029 
	C221.075516,63.816933 222.763000,64.797409 223.850143,65.409752 
	C229.116470,68.376045 234.330521,71.435104 239.781555,74.730644 
z"/>
<path fill="#000000" opacity="1.000000" stroke="none" 
	d="
M331.064087,145.354919 
	C337.133453,142.191528 343.463287,141.435196 350.072662,143.007507 
	C352.561554,143.599579 353.414124,144.617035 352.303741,147.219193 
	C351.619873,148.821793 351.674622,150.739609 351.397766,152.515900 
	C351.874695,152.643936 352.351654,152.771973 352.828583,152.899994 
	C354.772339,151.719009 356.716095,150.538010 359.819580,148.652405 
	C360.067566,151.687027 360.266357,154.119293 360.732544,156.775787 
	C360.344604,160.729370 357.959961,160.499420 355.481018,159.164001 
	C352.344757,157.474487 349.370331,155.484619 346.162964,152.893250 
	C345.925903,151.024292 346.227631,149.650116 345.693878,148.801376 
	C344.793304,147.369339 343.363220,146.270279 342.155884,145.031189 
	C341.103912,146.354141 340.051971,147.677078 339.000000,149.000015 
	C336.376038,147.903275 333.752106,146.806549 331.064087,145.354919 
z"/>
<path fill="#000000" opacity="1.000000" stroke="none" 
	d="
M363.371216,156.995453 
	C363.008240,156.672180 362.878693,156.179214 363.044830,156.040573 
	C367.958801,151.939941 365.967072,147.362900 364.000519,142.391266 
	C367.780731,144.755051 371.561432,147.510117 375.912537,150.680801 
	C371.877869,152.772751 367.810150,154.881821 363.371216,156.995453 
z"/>
<path fill="#000000" opacity="1.000000" stroke="none" 
	d="
M339.158142,149.317169 
	C340.051971,147.677078 341.103912,146.354141 342.155884,145.031189 
	C343.363220,146.270279 344.793304,147.369339 345.693878,148.801376 
	C346.227631,149.650116 345.925903,151.024292 345.999939,152.581100 
	C342.912445,153.585205 340.726624,152.379745 339.158142,149.317169 
z"/>
</svg>