<?xml version="1.0" encoding="UTF-8"?>
<svg version="1.1" xmlns="http://www.w3.org/2000/svg" width="385" height="252">
<path d="M0 0 C7.59946914 6.55623844 17.60482373 15.69337744 20.84375 25.41015625 C35.03375 25.41015625 49.22375 25.41015625 63.84375 25.41015625 C63.83472656 29.16648438 63.82570313 32.9228125 63.81640625 36.79296875 C63.83142848 40.43696547 63.85837546 44.08069281 63.88647461 47.72460938 C63.89960228 50.25419779 63.90035978 52.78388222 63.88842773 55.31347656 C63.87341612 58.95343524 63.9031003 62.5907284 63.94140625 66.23046875 C63.92002342 67.92298264 63.92002342 67.92298264 63.89820862 69.64968872 C63.84362518 75.39555778 63.84362518 75.39555778 66.43040466 80.27694702 C67.67923382 81.25752186 68.95469753 82.2053372 70.25709534 83.11355591 C71.84375 84.41015625 71.84375 84.41015625 72.73022461 87.47802734 C72.73807983 89.06478271 72.73807983 89.06478271 72.74609375 90.68359375 C72.76865234 91.83730469 72.79121094 92.99101563 72.81445312 94.1796875 C72.80349609 95.36949219 72.79253906 96.55929688 72.78125 97.78515625 C72.79736328 98.99816406 72.81347656 100.21117187 72.83007812 101.4609375 C72.86532487 104.44516209 72.86886761 107.42592992 72.84375 110.41015625 C73.61630127 110.2493457 74.38885254 110.08853516 75.18481445 109.92285156 C86.56838335 107.72787455 96.81465634 110.46417333 106.45703125 116.625 C115.22978571 123.18661831 121.15676799 132.52145422 122.84375 143.41015625 C123.77722947 155.09660119 120.93612729 165.02498458 113.84375 174.41015625 C109.84205449 178.5646943 106.0142504 181.82490605 100.84375 184.41015625 C105.46375 184.74015625 110.08375 185.07015625 114.84375 185.41015625 C114.84375 186.07015625 114.84375 186.73015625 114.84375 187.41015625 C96.69660524 188.06431299 78.57973017 188.5395326 60.42062759 188.23223877 C57.95151416 188.19131481 55.48239269 188.15686827 53.01315308 188.12451172 C51.36358608 188.10256524 49.71401943 188.0805926 48.06445312 188.05859375 C47.25098986 188.04778778 46.43752659 188.03698181 45.59941292 188.02584839 C41.41100311 187.967073 37.22390028 187.89103239 33.03637695 187.78613281 C28.86337154 187.68290682 24.69178325 187.62437323 20.51762962 187.59519958 C18.95980866 187.57629819 17.40208315 187.54146262 15.84502602 187.489151 C8.03200344 187.23333711 2.16127592 187.30065319 -3.92822266 192.78662109 C-5.34620198 194.31985676 -6.75645628 195.86029997 -8.15625 197.41015625 C-10.62142973 199.29823086 -13.18484419 200.93457286 -15.84375 202.53515625 C-16.86384155 203.15716919 -16.86384155 203.15716919 -17.90454102 203.79174805 C-38.48205965 216.10208735 -59.89406507 221.85422408 -83.90625 221.72265625 C-84.61412659 221.7205011 -85.32200317 221.71834595 -86.05133057 221.71612549 C-96.37018635 221.66568436 -106.16241197 221.29994074 -116.15625 218.41015625 C-117.20063232 218.12011719 -117.20063232 218.12011719 -118.26611328 217.82421875 C-150.70968087 208.64969036 -177.21923827 187.65702986 -194.31640625 158.7421875 C-199.13003138 150.0245182 -203.11449611 141.27918494 -205.96875 131.72265625 C-206.16364014 131.07071289 -206.35853027 130.41876953 -206.55932617 129.74707031 C-209.69961987 118.5588225 -210.56522709 107.4994334 -210.53125 95.91015625 C-210.53070618 95.20938965 -210.53016235 94.50862305 -210.52960205 93.78662109 C-210.41030446 60.23059354 -197.65159696 30.37350723 -174.72265625 5.9375 C-170.46308357 1.742761 -165.9137161 -1.97692746 -161.15625 -5.58984375 C-160.00769531 -6.47929688 -160.00769531 -6.47929688 -158.8359375 -7.38671875 C-145.93887847 -16.91742678 -131.54228281 -23.31693485 -116.15625 -27.58984375 C-114.39087891 -28.1003125 -114.39087891 -28.1003125 -112.58984375 -28.62109375 C-72.59712557 -38.10345064 -31.02645158 -25.82621612 0 0 Z " fill="#25ACF3" transform="translate(210.15625,30.58984375)"/>
<path d="M0 0 C1.3923683 0.00138269 1.3923683 0.00138269 2.81286526 0.00279331 C3.87442333 0.00141865 4.93598141 0.00004398 6.02970791 -0.00137234 C7.20430569 0.00222294 8.37890347 0.00581821 9.58909512 0.00952244 C10.81819103 0.00937641 12.04728695 0.00923038 13.3136282 0.00907993 C16.69365019 0.00965891 20.07361176 0.01468819 23.45362306 0.02165389 C26.98237542 0.02788795 30.5111285 0.02849127 34.03988552 0.0296793 C40.72639466 0.03279246 47.41288753 0.04100564 54.09938949 0.05102879 C61.7099065 0.06219039 69.32042427 0.06770049 76.93094742 0.07272422 C92.59036221 0.08318827 108.24976075 0.10078742 123.90916348 0.12304783 C123.90614727 0.7737122 123.90313107 1.42437656 123.90002346 2.09475803 C123.87543293 8.87619713 123.899596 15.65622798 123.95188808 22.43750095 C123.96501575 24.96708937 123.96577326 27.4967738 123.95384121 30.02636814 C123.9388296 33.66632682 123.96851377 37.30361997 124.00681973 40.94336033 C123.9854369 42.63587421 123.9854369 42.63587421 123.96362209 44.3625803 C123.94217019 50.13958998 123.94217019 50.13958998 126.49637604 55.10253429 C128.35543603 56.70931093 128.35543603 56.70931093 130.32306671 57.93914318 C131.90916348 59.12304783 131.90916348 59.12304783 132.79563808 62.19091892 C132.8008749 63.24875584 132.80611172 64.30659275 132.81150723 65.39648533 C132.83406582 66.55019627 132.85662441 67.7039072 132.8798666 68.89257908 C132.86343105 70.67728611 132.86343105 70.67728611 132.84666348 72.49804783 C132.86277676 73.71105564 132.87889004 74.92406345 132.8954916 76.17382908 C132.93073835 79.15805367 132.93428108 82.1388215 132.90916348 85.12304783 C134.06799038 84.88183201 134.06799038 84.88183201 135.25022793 84.63574314 C146.63379682 82.44076613 156.88006981 85.17706491 166.52244473 91.33789158 C175.29519919 97.89950989 181.22218147 107.2343458 182.90916348 118.12304783 C183.84264295 129.80949277 181.00154076 139.73787616 173.90916348 149.12304783 C169.90746797 153.27758588 166.07966387 156.53779763 160.90916348 159.12304783 C165.52916348 159.45304783 170.14916348 159.78304783 174.90916348 160.12304783 C174.90916348 160.78304783 174.90916348 161.44304783 174.90916348 162.12304783 C147.58477054 163.09637249 120.30287923 163.19957586 92.96405292 163.02251267 C87.34550405 162.98743722 81.7269197 162.95933818 76.10833645 162.93040562 C65.53433026 162.87494306 54.96036845 162.81347475 44.38640958 162.74968427 C32.32051044 162.677198 20.25457643 162.6116573 8.18863523 162.54661381 C-16.57123396 162.41299043 -41.33104864 162.27092492 -66.09083652 162.12304783 C-66.09083652 161.46304783 -66.09083652 160.80304783 -66.09083652 160.12304783 C-50.74583652 159.62804783 -50.74583652 159.62804783 -35.09083652 159.12304783 C-38.72083652 156.48304783 -42.35083652 153.84304783 -46.09083652 151.12304783 C-55.14760199 140.08511491 -57.16555253 130.30929904 -56.09083652 116.12304783 C-54.76890833 106.84363029 -49.61387205 99.17385778 -42.69630527 92.97851658 C-36.140214 88.07435381 -29.33488727 85.12304783 -21.09083652 85.12304783 C-21.13796787 84.40238132 -21.18509922 83.68171482 -21.23365879 82.93920994 C-21.42171405 79.64705272 -21.53805892 76.3560234 -21.65333652 73.06054783 C-21.72874668 71.92681736 -21.80415684 70.79308689 -21.88185215 69.62500095 C-21.91085606 68.51962986 -21.93985996 67.41425877 -21.96974277 66.27539158 C-22.01687412 65.26468601 -22.06400547 64.25398045 -22.11256504 63.21264744 C-20.88118286 59.4890772 -19.78571788 59.04240917 -16.60231113 56.90795994 C-13.13923343 54.43220778 -13.13923343 54.43220778 -11.25784397 50.74260044 C-10.97402499 47.93188439 -10.9473977 45.23593993 -11.02833652 42.41211033 C-11.02124668 41.40336857 -11.01415684 40.39462681 -11.00685215 39.35531712 C-10.99294674 36.15126866 -11.0402759 32.95166556 -11.09083652 29.74804783 C-11.09899346 26.52413846 -11.09488514 23.30041923 -11.08912754 20.07650852 C-11.09025329 18.07437608 -11.10219067 16.07221605 -11.12574863 14.0702219 C-11.13485264 13.17193668 -11.14395664 12.27365147 -11.15333652 11.34814548 C-11.16493809 10.55429447 -11.17653965 9.76044346 -11.18849277 8.94253635 C-11.09083652 7.12304783 -11.09083652 7.12304783 -10.09083652 6.12304783 C-7.75786219 6.08211845 -5.42378428 6.0806306 -3.09083652 6.12304783 C-3.11146152 5.31867283 -3.13208652 4.51429783 -3.15333652 3.68554783 C-3.06784867 0.18054597 -3.06784867 0.18054597 0 0 Z " fill="#0A308B" transform="translate(150.09083652496338,55.876952171325684)"/>
<path d="M0 0 C41.58 0 83.16 0 126 0 C126 19.8 126 39.6 126 60 C115.94805195 68.93506494 115.94805195 68.93506494 110.875 72.75 C106.65123262 75.95043481 102.47448611 79.19821617 98.34863281 82.52416992 C96.45448176 84.04883086 94.5499843 85.55981418 92.64453125 87.0703125 C90.27954051 88.95108775 87.9743496 90.87894191 85.69921875 92.8671875 C78.4107666 99.06915523 78.4107666 99.06915523 74.609375 98.8828125 C72.375 98.0625 72.375 98.0625 70.2265625 96.99609375 C66.30946239 95.24370686 62.19778425 95.4108373 58 96 C56.30792999 96.9563874 54.63183107 97.94410931 53 99 C50.18746561 97.89034626 47.88091359 96.27942057 45.48828125 94.453125 C44.82151367 93.94499268 44.15474609 93.43686035 43.46777344 92.91333008 C42.7565332 92.36443115 42.04529297 91.81553223 41.3125 91.25 C40.56645508 90.67725342 39.82041016 90.10450684 39.05175781 89.5144043 C32.97266033 84.81744124 27.03527603 79.9613754 21.12988281 75.04882812 C15.6718435 70.51791481 10.09968408 66.16797144 4.44140625 61.890625 C2 60 2 60 0 58 C0 38.86 0 19.72 0 0 Z " fill="#FEFEFE" transform="translate(141,64)"/>
<path d="M0 0 C15.35249594 11.51437195 30.48475982 23.28538565 45.35473633 35.41601562 C50.18156271 39.34947088 55.05161832 43.21998622 60 47 C58.93088362 50.20734914 58.4496225 50.69252747 55.875 52.62890625 C55.25109375 53.10650391 54.6271875 53.58410156 53.984375 54.07617188 C53.32953125 54.56666016 52.6746875 55.05714844 52 55.5625 C47.36493599 58.71543922 47.36493599 58.71543922 44 63 C45.3553496 61.96786573 46.71025734 60.9351473 48.06323242 59.89990234 C49.23973349 59.00040858 50.41832325 58.10364084 51.59887695 57.20947266 C55.46401781 54.25980094 59.07352833 51.13171659 62.6875 47.875 C67.00660633 44.32289654 69.93000078 43.03294831 75.515625 43.29296875 C82.42535789 45.25941789 87.69223468 50.01041915 93.0625 54.5625 C94.57313732 55.82551333 96.08487044 57.08721709 97.59765625 58.34765625 C98.34289551 58.96914551 99.08813477 59.59063477 99.85595703 60.23095703 C102.86089603 62.71032255 105.92281923 65.11131882 109 67.5 C114.97543435 72.1492868 120.81884515 76.94695711 126.64624023 81.7800293 C131.98158917 86.19365682 137.39418186 90.49645706 142.88671875 94.71289062 C144.27487142 95.78689974 145.64026513 96.89023224 147 98 C147 98.33 147 98.66 147 99 C103.77 99 60.54 99 16 99 C17.8248328 97.7834448 19.6533195 96.57231675 21.48828125 95.37109375 C27.88026852 90.9948369 32.46881979 86.94225225 36 80 C36.33773437 79.33742188 36.67546875 78.67484375 37.0234375 77.9921875 C40.74557357 69.01125369 40.37604739 56.36219603 37.09765625 47.3046875 C31.74086419 36.05733051 24.09692479 30.46379396 12.84765625 25.76171875 C8.67184007 24.64473088 4.30117445 24.43011745 0 24 C0 16.08 0 8.16 0 0 Z " fill="#C8E0EE" transform="translate(131,117)"/>
<path d="M0 0 C9.95791196 5.94291016 17.19171225 13.83314422 20.19921875 25.3125 C21.31567857 38.45037604 19.93560739 48.73583364 11.32421875 59.203125 C3.77455062 66.69728086 -4.90349355 70.58382921 -15.48828125 70.6875 C-26.27095441 70.6183328 -34.28555147 67.65357816 -42.5703125 60.59375 C-50.63620792 52.34421773 -53.2210032 43.04531087 -53.16430664 31.78320312 C-52.91773654 21.60478927 -49.04759825 13.50603158 -41.80078125 6.3125 C-29.95115501 -2.71250604 -14.04327041 -6.86665854 0 0 Z " fill="#FCFDFE" transform="translate(148.80078125,145.6875)"/>
<path d="M0 0 C10.54565004 3.80114339 17.42509014 11.00427771 22.734375 20.6484375 C26.41014986 28.51706869 26.17106616 38.97718058 24.36328125 47.40625 C20.4025837 58.13737071 13.07294807 65.21623528 3.01171875 70.3828125 C-1.69859002 72.33570911 -6.00857451 72.68930781 -11.05078125 72.6328125 C-11.74494141 72.64054687 -12.43910156 72.64828125 -13.15429688 72.65625 C-17.49001746 72.63978003 -19.82181629 72.04939848 -23.98828125 70.3828125 C-23.98828125 47.6128125 -23.98828125 24.8428125 -23.98828125 1.3828125 C-16.96008595 -2.13128515 -7.66187391 -1.58245239 0 0 Z " fill="#FCFDFE" transform="translate(304.98828125,143.6171875)"/>
<path d="M0 0 C0.66 0 1.32 0 2 0 C2 32.67 2 65.34 2 99 C0.35 97.35 -1.3 95.7 -3 94 C-4.96329624 92.26625009 -6.93283437 90.5589561 -8.9375 88.875 C-9.50106201 88.39981934 -10.06462402 87.92463867 -10.64526367 87.43505859 C-15.20568107 83.61425341 -19.85974734 79.92337896 -24.55419922 76.26928711 C-29.79160602 72.18733903 -34.93672805 67.99784762 -40.07348633 63.7902832 C-45.01807091 59.75550703 -50.04773417 55.84801462 -55.19165039 52.07006836 C-56.49653238 51.09229348 -57.75403165 50.05181918 -59 49 C-59 48.34 -59 47.68 -59 47 C-56.9948175 45.27212997 -54.98099622 43.65976141 -52.875 42.0625 C-51.57932141 41.06263693 -50.2837514 40.06263313 -48.98828125 39.0625 C-48.3226416 38.55203125 -47.65700195 38.0415625 -46.97119141 37.515625 C-43.98472234 35.21936541 -41.02310307 32.89195363 -38.0625 30.5625 C-37.48870605 30.11205322 -36.91491211 29.66160645 -36.32373047 29.19750977 C-31.40257417 25.32991027 -26.51571635 21.42022879 -21.63427734 17.50268555 C-16.58405225 13.45417439 -11.49862538 9.45191931 -6.390625 5.4765625 C-4.15352724 3.72899436 -2.00955805 2.00955805 0 0 Z " fill="#C5DDEC" transform="translate(278,117)"/>
<path d="M0 0 C15.35249594 11.51437195 30.48475982 23.28538565 45.35473633 35.41601562 C50.18156271 39.34947088 55.05161832 43.21998622 60 47 C58.79235231 50.62294307 57.10312309 51.43356758 54.03540039 53.51293945 C47.69728869 57.77131253 47.69728869 57.77131253 43.875 64.12109375 C43.6645596 66.27021633 43.50799419 68.42521623 43.40234375 70.58203125 C42.16258938 81.11392517 35.02502858 90.57997713 27 97 C66.6 97.33 106.2 97.66 147 98 C147 98.33 147 98.66 147 99 C103.77 99 60.54 99 16 99 C17.8248328 97.7834448 19.6533195 96.57231675 21.48828125 95.37109375 C27.88026852 90.9948369 32.46881979 86.94225225 36 80 C36.33773437 79.33742188 36.67546875 78.67484375 37.0234375 77.9921875 C40.74557357 69.01125369 40.37604739 56.36219603 37.09765625 47.3046875 C31.74086419 36.05733051 24.09692479 30.46379396 12.84765625 25.76171875 C8.67184007 24.64473088 4.30117445 24.43011745 0 24 C0 16.08 0 8.16 0 0 Z " fill="#C6DEED" transform="translate(131,117)"/>
<path d="M0 0 C0.65405273 1.75366211 0.65405273 1.75366211 1 4 C0.04711914 5.93188477 0.04711914 5.93188477 -1.46484375 7.94140625 C-2.01438721 8.68535645 -2.56393066 9.42930664 -3.13012695 10.19580078 C-3.72656006 10.97681152 -4.32299316 11.75782227 -4.9375 12.5625 C-5.82924927 13.76108643 -5.82924927 13.76108643 -6.73901367 14.98388672 C-7.93084622 16.58517429 -9.12748614 18.1828959 -10.32910156 19.77685547 C-12.52665885 22.70072406 -14.67086566 25.65995752 -16.8125 28.625 C-17.87467297 30.08357154 -18.93702055 31.5420161 -20 33 C-23.65108064 32.50296213 -25.54125681 32.011511 -27.8125 29.0625 C-30 26 -30 26 -30 24 C-30.7425 24.515625 -31.485 25.03125 -32.25 25.5625 C-35 27 -35 27 -37.171875 26.58984375 C-37.77515625 26.39519531 -38.3784375 26.20054688 -39 26 C-38.93039062 25.28714844 -38.86078125 24.57429688 -38.7890625 23.83984375 C-38.34184702 18.07797156 -38.34184702 18.07797156 -40.37109375 12.8515625 C-42.019069 11.05589991 -42.019069 11.05589991 -43.78515625 9.53515625 C-44.18605469 9.02855469 -44.58695312 8.52195312 -45 8 C-44.74518147 5.8634446 -44.54020381 4.54020381 -43 3 C-40.8541012 2.69857889 -38.69940004 2.4594958 -36.54296875 2.24609375 C-35.88476639 2.18092056 -35.22656403 2.11574738 -34.54841614 2.04859924 C-33.1455337 1.91108568 -31.74242159 1.77589893 -30.33911133 1.64282227 C-28.2337228 1.44191091 -26.12961328 1.2303089 -24.02539062 1.01757812 C-16.00318168 0.23057011 -8.06747794 -0.19830993 0 0 Z " fill="#12368F" transform="translate(384,7)"/>
<path d="M0 0 C40.59 0 81.18 0 123 0 C123.061875 10.18875 123.12375 20.3775 123.1875 30.875 C123.22846802 35.70294189 123.22846802 35.70294189 123.27026367 40.62841797 C123.27902165 43.16633732 123.2866672 45.70426086 123.29296875 48.2421875 C123.30080887 48.9038089 123.30864899 49.5654303 123.31672668 50.24710083 C123.33862171 52.19180787 123.34001592 54.13671276 123.34057617 56.08154297 C123.35056892 57.72701614 123.35056892 57.72701614 123.36076355 59.4057312 C123.24171158 60.2618399 123.12265961 61.11794861 123 62 C122.01 62.66 121.02 63.32 120 64 C119.67 44.53 119.34 25.06 119 5 C79.73 4.67 40.46 4.34 0 4 C0 2.68 0 1.36 0 0 Z " fill="#FCFCFD" transform="translate(149,58)"/>
<path d="M0 0 C1.32637487 2.65274973 1.07956818 4.5821666 1.02172852 7.55126953 C1.00163223 8.71232208 0.98153595 9.87337463 0.96083069 11.0696106 C0.93379562 12.32796722 0.90676056 13.58632385 0.87890625 14.8828125 C0.85529526 16.16735321 0.83168427 17.45189392 0.80735779 18.77536011 C0.74450505 22.19164851 0.67544189 25.60778441 0.60510254 29.02392578 C0.53442976 32.50936941 0.46960649 35.99492123 0.40429688 39.48046875 C0.27526927 46.3204301 0.13968312 53.16024819 0 60 C0.66 60 1.32 60 2 60 C0.67287174 63.98138478 -1.26254611 64.9463389 -4.625 67.4375 C-5.81748093 68.33190228 -7.00884353 69.2277971 -8.19921875 70.125 C-8.8236084 70.59421875 -9.44799805 71.0634375 -10.09130859 71.546875 C-13.25237772 73.95346024 -16.34373803 76.44535897 -19.4375 78.9375 C-25.01269041 83.41904811 -30.61708612 87.86038403 -36.25756836 92.25952148 C-38.98299478 94.39069742 -41.65672271 96.55894541 -44.27734375 98.81640625 C-47 101 -47 101 -49 101 C-49 101.66 -49 102.32 -49 103 C-48.41460449 103.27078369 -47.82920898 103.54156738 -47.22607422 103.82055664 C-45.01563212 104.99171762 -43.29431109 106.26470859 -41.3828125 107.87109375 C-40.70041504 108.43997314 -40.01801758 109.00885254 -39.31494141 109.5949707 C-38.59226074 110.20300537 -37.86958008 110.81104004 -37.125 111.4375 C-31.68175065 115.97198669 -26.21407759 120.45872934 -20.625 124.8125 C-15.65226817 128.68927251 -10.75412553 132.64346313 -5.88671875 136.65234375 C-0.31990504 141.17961715 5.34519404 145.58347272 11 150 C10.34 150.66 9.68 151.32 9 152 C7.51113281 150.78376953 7.51113281 150.78376953 5.9921875 149.54296875 C-0.6084358 144.16046866 -7.21902458 138.79748414 -13.9375 133.5625 C-19.19760457 129.46064598 -24.36205746 125.25369831 -29.5 121 C-34.8427687 116.58420439 -40.19740955 112.18636129 -45.625 107.875 C-46.16833984 107.43800781 -46.71167969 107.00101562 -47.27148438 106.55078125 C-53.01627942 102.02027539 -58.6267832 97.87991674 -66.19140625 98.15625 C-71.9360311 99.88203438 -76.17600243 104.5589492 -80.46777344 108.58886719 C-82.61969331 110.57071819 -84.88302313 112.38689588 -87.1875 114.1875 C-87.88230469 114.73792969 -88.57710937 115.28835937 -89.29296875 115.85546875 C-91 117 -91 117 -93 117 C-91.45771856 112.59935696 -87.98573023 110.40404102 -84.375 107.75 C-83.45847656 107.06164062 -83.45847656 107.06164062 -82.5234375 106.359375 C-81.0209208 105.23248748 -79.51115591 104.11527563 -78 103 C-79.54588589 98.87763763 -82.20310066 97.07151243 -85.6875 94.5 C-86.8708888 93.61474598 -88.05313557 92.72796375 -89.234375 91.83984375 C-89.85248047 91.37690918 -90.47058594 90.91397461 -91.10742188 90.43701172 C-94.26565803 88.03900114 -97.34973978 85.55017543 -100.4375 83.0625 C-105.33929693 79.1268013 -110.24979043 75.20308642 -115.1875 71.3125 C-116.04142334 70.63658813 -116.04142334 70.63658813 -116.91259766 69.94702148 C-119.73372456 67.72672754 -122.57946358 65.56559409 -125.5078125 63.48828125 C-126.0644458 63.08891357 -126.6210791 62.6895459 -127.19458008 62.27807617 C-128.71129658 61.19712672 -130.24002463 60.13308725 -131.76953125 59.0703125 C-134.31308416 56.70939649 -134.73307908 55.40472468 -135 52 C-131.25 49 -131.25 49 -129 49 C-129 51.64 -129 54.28 -129 57 C-128.34 57 -127.68 57 -127 57 C-126.41734375 57.7321875 -125.8346875 58.464375 -125.234375 59.21875 C-122.81851924 62.22589913 -120.34570171 64.2057236 -117.25 66.5 C-112.06995491 70.38801085 -107.00878781 74.39379419 -102 78.5 C-96.00442206 83.40468682 -89.93293285 88.18712557 -83.76953125 92.87890625 C-81.15044114 94.88478203 -78.56817115 96.92950004 -76 99 C-72.45481116 97.60240095 -72.45481116 97.60240095 -69 96 C-66.93359375 95.796875 -66.93359375 95.796875 -64.4375 95.75 C-63.63183594 95.72421875 -62.82617188 95.6984375 -61.99609375 95.671875 C-59.07735819 95.99152792 -57.32434282 96.71145561 -54.6640625 97.859375 C-51.9643313 98.79807061 -50.64868214 99.24047502 -47.94262695 98.23730469 C-45.79101788 96.78926461 -43.88129976 95.21701924 -41.9375 93.5 C-41.21071045 92.9013916 -40.4839209 92.3027832 -39.73510742 91.68603516 C-38.21938642 90.43393918 -36.71429484 89.16887216 -35.21972656 87.89160156 C-32.45708548 85.53734033 -29.63614899 83.26144353 -26.80908203 80.98535156 C-24.82831724 79.38775746 -22.85867428 77.77728219 -20.890625 76.1640625 C-16.39421178 72.49115987 -11.82924384 68.9077544 -7.2512207 65.33740234 C-4.53436433 63.27447232 -4.53436433 63.27447232 -2 61 C-1.88180305 59.13418359 -1.83262783 57.26395731 -1.81054688 55.39453125 C-1.79382935 54.19658936 -1.77711182 52.99864746 -1.7598877 51.7644043 C-1.74631226 50.46027588 -1.73273682 49.15614746 -1.71875 47.8125 C-1.70072206 46.47110228 -1.68211954 45.12971217 -1.66296387 43.78833008 C-1.60318231 39.525616 -1.55105826 35.26282633 -1.5 31 C-1.44085732 26.06220992 -1.37863295 21.12450108 -1.30812073 16.18685913 C-1.28146039 14.20315428 -1.2607626 12.21937223 -1.2401123 10.2355957 C-1.22339478 9.03765381 -1.20667725 7.83971191 -1.18945312 6.60546875 C-1.17692505 5.54481201 -1.16439697 4.48415527 -1.15148926 3.39135742 C-1 1 -1 1 0 0 Z " fill="#244798" transform="translate(268,63)"/>
<path d="M0 0 C0.99 0.33 1.98 0.66 3 1 C2.67 1.33 2.34 1.66 2 2 C1.8768483 3.74838835 1.82212189 5.50164504 1.79467773 7.25415039 C1.77473251 8.37523697 1.75478729 9.49632355 1.73423767 10.65138245 C1.70916893 12.48103798 1.70916893 12.48103798 1.68359375 14.34765625 C1.66281265 15.58921982 1.64203156 16.83078339 1.62062073 18.10997009 C1.56616391 21.41599123 1.51595795 24.72202245 1.46777344 28.02813721 C1.41760144 31.39967491 1.36189299 34.77112053 1.30664062 38.14257812 C1.19929962 44.76164551 1.09755802 51.3807816 1 58 C0.34 58 -0.32 58 -1 58 C-1 55.36 -1 52.72 -1 50 C-3.5609294 51.79857668 -3.5609294 51.79857668 -6 54 C-6 54.99 -6 55.98 -6 57 C-6.99 56.505 -6.99 56.505 -8 56 C-8.33 63.59 -8.66 71.18 -9 79 C-5.7 79 -2.4 79 1 79 C6.89860748 80.46684948 12.13997991 83.38324087 17 87 C17.804375 87.59296875 18.60875 88.1859375 19.4375 88.796875 C25.47509539 93.98773445 30.28773719 101.99675604 31 110 C31.86870764 122.93409148 30.64302993 133.62251697 22.06640625 143.921875 C17.86263888 148.14948226 12.18035973 153.3647596 6 154 C5.01 153.01 5.01 153.01 4 152 C4.65226562 151.69707031 5.30453125 151.39414063 5.9765625 151.08203125 C16.52944609 146.02349561 22.6744482 140.11027429 27.1484375 129.19921875 C29.49344473 120.38930626 29.28936758 109.38724696 25.24609375 101.1328125 C24.83488281 100.42898437 24.42367187 99.72515625 24 99 C23.59910156 98.29617187 23.19820313 97.59234375 22.78515625 96.8671875 C17.85137754 89.34496256 9.63111686 84.2534443 1 82 C-12.07902408 80.88854143 -22.44051759 82.24714229 -32.88671875 90.80078125 C-41.75156725 100.02612267 -43.48788257 109.51530364 -43.27734375 121.72265625 C-43.04174482 127.08751352 -41.7093317 131.36271125 -39 136 C-38.59910156 136.70382813 -38.19820313 137.40765625 -37.78515625 138.1328125 C-33.80061779 144.20778998 -28.17844591 147.41126376 -22 151 C-20.515 151.99 -20.515 151.99 -19 153 C-20.671875 153.67578125 -20.671875 153.67578125 -23 154 C-32.31069552 149.99524432 -39.74872967 142.38676115 -43.9375 133.1875 C-47.35948721 122.92153838 -47.78082968 109.89969782 -43 100 C-36.88520892 89.45675112 -29.04402084 82.62435094 -17.2265625 79.41015625 C-15 79 -15 79 -11 79 C-11.04713135 78.2793335 -11.0942627 77.55866699 -11.14282227 76.81616211 C-11.33087752 73.5240049 -11.4472224 70.23297557 -11.5625 66.9375 C-11.63791016 65.80376953 -11.71332031 64.67003906 -11.79101562 63.50195312 C-11.82001953 62.39658203 -11.84902344 61.29121094 -11.87890625 60.15234375 C-11.9260376 59.14163818 -11.97316895 58.13093262 -12.02172852 57.08959961 C-10.79034634 53.36602937 -9.69488136 52.91936134 -6.51147461 50.78491211 C-3.04839691 48.30915995 -3.04839691 48.30915995 -1.16700745 44.61955261 C-0.88318847 41.80883656 -0.85656118 39.1128921 -0.9375 36.2890625 C-0.93041016 35.28032074 -0.92332031 34.27157898 -0.91601562 33.23226929 C-0.90211022 30.02822083 -0.94943937 26.82861773 -1 23.625 C-1.00815694 20.40109063 -1.00404861 17.1773714 -0.99829102 13.95346069 C-0.99941677 11.95132826 -1.01135415 9.94916822 -1.03491211 7.94717407 C-1.04401611 7.04888885 -1.05312012 6.15060364 -1.0625 5.22509766 C-1.07410156 4.43124664 -1.08570313 3.63739563 -1.09765625 2.81948853 C-1 1 -1 1 0 0 Z " fill="#082F8C" transform="translate(140,62)"/>
<path d="M0 0 C12.48377108 -0.14516013 22.54111458 3.73967198 32 12 C40.429635 21.09833201 45.30772731 33.29260219 44.9140625 45.7109375 C43.29731612 57.96228231 36.52370552 69.38103558 27 77 C66.6 77.33 106.2 77.66 147 78 C147 78.33 147 78.66 147 79 C103.77 79 60.54 79 16 79 C17.8248328 77.7834448 19.6533195 76.57231675 21.48828125 75.37109375 C27.88026852 70.9948369 32.46881979 66.94225225 36 60 C36.33773437 59.33742187 36.67546875 58.67484375 37.0234375 57.9921875 C40.74557357 49.01125369 40.37604739 36.36219603 37.09765625 27.3046875 C31.7741047 16.12712375 23.99724376 10.06783477 12.57421875 5.74609375 C8.43374704 4.54604808 4.29399806 4.18272332 0 4 C0 2.68 0 1.36 0 0 Z " fill="#8ABCDE" transform="translate(131,137)"/>
<path d="M0 0 C33.33 0 66.66 0 101 0 C101 1.32 101 2.64 101 4 C67.67 4 34.34 4 0 4 C0 2.68 0 1.36 0 0 Z " fill="#C4E9F7" transform="translate(153,112)"/>
<path d="M0 0 C33.33 0 66.66 0 101 0 C101 1.32 101 2.64 101 4 C67.67 4 34.34 4 0 4 C0 2.68 0 1.36 0 0 Z " fill="#C4E9F7" transform="translate(153,101)"/>
<path d="M0 0 C33.33 0 66.66 0 101 0 C101 1.32 101 2.64 101 4 C67.67 4 34.34 4 0 4 C0 2.68 0 1.36 0 0 Z " fill="#C4E9F7" transform="translate(153,90)"/>
<path d="M0 0 C33.33 0 66.66 0 101 0 C101 1.32 101 2.64 101 4 C67.67 4 34.34 4 0 4 C0 2.68 0 1.36 0 0 Z " fill="#C4E9F7" transform="translate(153,78)"/>
<path d="M0 0 C2.5 1.75 2.5 1.75 4 4 C4.0625 6 4.0625 6 3 8 C0.75 10.3125 0.75 10.3125 -2 12 C-4.5 11.8125 -4.5 11.8125 -7 11 C-9.39179768 10.15904793 -9.39179768 10.15904793 -12 10 C-14.29157401 11.2390513 -14.29157401 11.2390513 -16.25 13.1875 C-16.93578125 13.79980469 -17.6215625 14.41210938 -18.328125 15.04296875 C-20.09103669 17.10656398 -20.79879562 18.30050793 -21 21 C-20.34 21.66 -19.68 22.32 -19 23 C-19.15255449 26.50875334 -19.68087795 28.53904593 -21.6875 31.4375 C-24 33 -24 33 -27.1875 32.875 C-28.115625 32.58625 -29.04375 32.2975 -30 32 C-31.5147932 28.97041361 -31.52367839 26.27449475 -31 23 C-27.54112921 13.32136603 -21.96494171 7.36394818 -13 2.5625 C-8.34928027 0.39410193 -5.07338664 -1.05695555 0 0 Z " fill="#34C8F7" transform="translate(145,162)"/>
<path d="M0 0 C0.33 0 0.66 0 1 0 C1 6.27 1 12.54 1 19 C4.09375 18.87625 4.09375 18.87625 7.25 18.75 C13.33210208 18.50671592 13.33210208 18.50671592 16.390625 20.765625 C18.54750065 23.76012226 18.58527531 25.52006074 18.37890625 29.1015625 C18 31 18 31 16.4375 33.375 C13.42479498 35.38347002 10.47548953 36.02442399 7 37 C4.22295074 38.57146129 4.22295074 38.57146129 2 41 C1.22364439 44.07711583 1.22364439 44.07711583 1.29296875 47.515625 C1.26396484 48.76601562 1.23496094 50.01640625 1.20507812 51.3046875 C1.19927734 52.60664063 1.19347656 53.90859375 1.1875 55.25 C1.16236328 56.56742188 1.13722656 57.88484375 1.11132812 59.2421875 C1.0523987 62.49509156 1.01615903 65.74664795 1 69 C0.67 69 0.34 69 0 69 C0 46.23 0 23.46 0 0 Z " fill="#38B8EA" transform="translate(281,145)"/>
<path d="M0 0 C0 0.66 0 1.32 0 2 C-9.9 3.32 -19.8 4.64 -30 6 C-25.85564903 11.30593223 -25.85564903 11.30593223 -22.26171875 11.0390625 C-17.17852285 9.419745 -12.28713927 7.41153955 -7.36914062 5.3515625 C-6.59376953 5.03703125 -5.81839844 4.7225 -5.01953125 4.3984375 C-4.31932861 4.10630371 -3.61912598 3.81416992 -2.89770508 3.51318359 C-1 3 -1 3 2 4 C-0.71645699 5.81097133 -3.09753654 6.9469801 -6.10546875 8.1640625 C-7.08837891 8.56367188 -8.07128906 8.96328125 -9.08398438 9.375 C-10.10814453 9.7875 -11.13230469 10.2 -12.1875 10.625 C-13.22326172 11.04523437 -14.25902344 11.46546875 -15.32617188 11.8984375 C-17.88292325 12.93527677 -20.44088785 13.96900446 -23 15 C-23.33 17.64 -23.66 20.28 -24 23 C-23.401875 22.505 -22.80375 22.01 -22.1875 21.5 C-20 20 -20 20 -17 20 C-15.39453125 21.75 -15.39453125 21.75 -13.8125 24 C-13.28269531 24.7425 -12.75289063 25.485 -12.20703125 26.25 C-11.80871094 26.8275 -11.41039062 27.405 -11 28 C-7.29655972 26.76551991 -5.69749018 24.76665659 -3 22 C-2.34 21.67 -1.68 21.34 -1 21 C-2.77945087 25.04420651 -5.39529673 28.46078487 -8 32 C-10.66710654 31.84759391 -12.4505871 31.50635081 -14.4453125 29.66796875 C-18 25.49375 -18 25.49375 -18 23 C-18.7425 23.515625 -19.485 24.03125 -20.25 24.5625 C-23 26 -23 26 -25.171875 25.58984375 C-25.77515625 25.39519531 -26.3784375 25.20054688 -27 25 C-26.93039062 24.28714844 -26.86078125 23.57429688 -26.7890625 22.83984375 C-26.34184702 17.07797156 -26.34184702 17.07797156 -28.37109375 11.8515625 C-30.019069 10.05589991 -30.019069 10.05589991 -31.78515625 8.53515625 C-32.18605469 8.02855469 -32.58695312 7.52195312 -33 7 C-32.74518147 4.8634446 -32.54020381 3.54020381 -31 2 C-29.64523946 1.77321271 -28.28044514 1.60558145 -26.9140625 1.46484375 C-26.07004883 1.3776709 -25.22603516 1.29049805 -24.35644531 1.20068359 C-23.45506836 1.11383301 -22.55369141 1.02698242 -21.625 0.9375 C-20.7184668 0.84807129 -19.81193359 0.75864258 -18.87792969 0.66650391 C-12.57221066 0.07428521 -6.33535611 -0.2615514 0 0 Z " fill="#0F348D" transform="translate(372,8)"/>
<path d="M0 0 C11.42269322 -0.65619727 20.78714988 2.1092103 30 9 C38.07065786 16.25087125 43.3324198 25.64240945 44.203125 36.54296875 C44.39441205 47.33474676 41.57201209 56.34965931 35 65 C32.15009795 67.86852886 29.16320421 70.48349532 26 73 C25.34 72.67 24.68 72.34 24 72 C24 71.34 24 70.68 24 70 C25.17354576 69.11835141 26.3910475 68.29490573 27.625 67.5 C34.18452139 62.75481431 37.92408861 55.7374879 40 48 C40.80860432 38.48479564 40.9426368 29.45981094 36 21 C35.59910156 20.29617187 35.19820313 19.59234375 34.78515625 18.8671875 C29.823547 11.30253108 21.64266495 6.33936796 13 4 C10.54859141 3.72178875 8.08820235 3.51442655 5.625 3.375 C4.37976563 3.30023438 3.13453125 3.22546875 1.8515625 3.1484375 C0.91054688 3.09945312 -0.03046875 3.05046875 -1 3 C-0.67 2.01 -0.34 1.02 0 0 Z " fill="#14378F" transform="translate(289,140)"/>
<path d="M0 0 C2.875 0.3125 2.875 0.3125 6 1 C8.45068846 4.67603269 8.70632248 7.72761034 8 12 C6.08928472 14.66135342 4.84461361 15.71846213 1.75 16.75 C0.88375 16.87375 0.88375 16.87375 0 17 C0.33 18.98 0.66 20.96 1 23 C0.50371094 22.59007812 0.00742187 22.18015625 -0.50390625 21.7578125 C-4.96562354 18.21891719 -8.44523738 16.22204778 -14 15 C-14.66 14.67 -15.32 14.34 -16 14 C-16 13.34 -16 12.68 -16 12 C-12.77749266 9.48487232 -10.31137456 8.07388549 -6.3125 7.125 C-2.72697093 6.29846876 -2.72697093 6.29846876 -1.0625 2.875 C-0.711875 1.92625 -0.36125 0.9775 0 0 Z " fill="#34C7F6" transform="translate(301,174)"/>
<path d="M0 0 C8.87312234 9.83555096 11.15628976 19.82013395 10.78515625 32.66015625 C10.04578322 42.18777324 6.19745438 49.87771218 -0.5234375 56.63671875 C-9.67488348 64.1383663 -9.67488348 64.1383663 -14.5234375 64.63671875 C-15.1834375 63.97671875 -15.8434375 63.31671875 -16.5234375 62.63671875 C-15.54503906 62.18232422 -15.54503906 62.18232422 -14.546875 61.71875 C-3.99399141 56.66021436 2.1510107 50.74699304 6.625 39.8359375 C8.97000723 31.02602501 8.76593008 20.02396571 4.72265625 11.76953125 C4.10583984 10.71378906 4.10583984 10.71378906 3.4765625 9.63671875 C3.07566406 8.93289062 2.67476562 8.2290625 2.26171875 7.50390625 C-2.70775427 -0.07273957 -10.87777097 -4.99940281 -19.5234375 -7.36328125 C-21.80796557 -7.63908988 -24.10162133 -7.84765985 -26.3984375 -7.98828125 C-27.55085937 -8.06304687 -28.70328125 -8.1378125 -29.890625 -8.21484375 C-31.19386719 -8.28832031 -31.19386719 -8.28832031 -32.5234375 -8.36328125 C-32.5234375 -8.69328125 -32.5234375 -9.02328125 -32.5234375 -9.36328125 C-20.01800272 -11.29522733 -9.64385761 -8.53939347 0 0 Z " fill="#234899" transform="translate(160.5234375,151.36328125)"/>
<path d="M0 0 C0 0.66 0 1.32 0 2 C-0.61746094 2.20753906 -1.23492187 2.41507813 -1.87109375 2.62890625 C-13.88643939 6.99978541 -20.50597298 13.40694894 -26 25 C-28.70483275 32.5134243 -28.16715021 44.1360756 -25.375 51.5625 C-24.28076196 53.86759865 -24.28076196 53.86759865 -23 56 C-22.59910156 56.70382813 -22.19820313 57.40765625 -21.78515625 58.1328125 C-17.80061779 64.20778998 -12.17844591 67.41126376 -6 71 C-4.515 71.99 -4.515 71.99 -3 73 C-4.671875 73.67578125 -4.671875 73.67578125 -7 74 C-16.31069552 69.99524432 -23.74872967 62.38676115 -27.9375 53.1875 C-31.35948721 42.92153838 -31.78082968 29.89969782 -27 20 C-21.33501526 10.23231648 -12.10675782 0 0 0 Z " fill="#18459A" transform="translate(124,142)"/>
<path d="M0 0 C0.66 0.33 1.32 0.66 2 1 C-0.10356036 3.91710438 -2.20795493 6.83360598 -4.3125 9.75 C-4.90740234 10.575 -5.50230469 11.4 -6.11523438 12.25 C-6.69208984 13.04921875 -7.26894531 13.8484375 -7.86328125 14.671875 C-8.39219971 15.4050293 -8.92111816 16.13818359 -9.46606445 16.89355469 C-10.95882593 18.94345855 -12.47340271 20.97520779 -14 23 C-18.66107601 21.33533 -18.82743749 19.75884377 -22 15 C-14.74 10.05 -7.48 5.1 0 0 Z " fill="#F5F6FA" transform="translate(377,14)"/>
<path d="M0 0 C0 2.64 0 5.28 0 8 C0.66 8 1.32 8 2 8 C2.58265625 8.7321875 3.1653125 9.464375 3.765625 10.21875 C6.18148076 13.22589913 8.65429829 15.2057236 11.75 17.5 C16.95464823 21.4047965 22.03331841 25.43430989 27.0625 29.5625 C33.57676727 34.89670321 40.20905974 40.02254947 47 45 C45.37109375 45.80078125 45.37109375 45.80078125 43 46 C40.82915981 44.47033624 39.00125395 42.9745431 37.0625 41.1875 C35.89672717 40.15636618 34.72869968 39.12777659 33.55859375 38.1015625 C32.96546387 37.57852539 32.37233398 37.05548828 31.76123047 36.51660156 C28.62709026 33.81778274 25.32583816 31.35252153 22.03100586 28.85351562 C17.04333328 25.05823779 12.15549358 21.14499433 7.28759766 17.19750977 C4.29639429 14.78444159 1.28635298 12.49046908 -1.88671875 10.3203125 C-5 8 -5 8 -5.9375 5.1875 C-5.9684375 4.1046875 -5.9684375 4.1046875 -6 3 C-2.25 0 -2.25 0 0 0 Z " fill="#264899" transform="translate(139,112)"/>
<path d="M0 0 C-0.90878906 0.60585937 -1.81757813 1.21171875 -2.75390625 1.8359375 C-3.35444824 2.23635254 -3.95499023 2.63676758 -4.57373047 3.04931641 C-5.90979361 3.93991582 -7.24605973 4.83021079 -8.58251953 5.72021484 C-12.16006499 8.10329067 -15.73395745 10.49152594 -19.30078125 12.890625 C-19.98390381 13.34904785 -20.66702637 13.8074707 -21.37084961 14.27978516 C-22.69451309 15.1682473 -24.01696753 16.0585137 -25.33813477 16.95068359 C-29.88756759 20 -29.88756759 20 -31 20 C-31.45224094 16.66379634 -31.34439701 14.1130714 -30 11 C-26.57762694 8.57742132 -22.88714266 7.16734609 -18.96142578 5.73242188 C-16.90513931 4.96457778 -14.89047918 4.1255842 -12.87109375 3.265625 C-11.51874174 2.69669673 -10.16588714 2.12896145 -8.8125 1.5625 C-8.16522949 1.29091064 -7.51795898 1.01932129 -6.85107422 0.73950195 C-2.23160008 -1.11580004 -2.23160008 -1.11580004 0 0 Z " fill="#EDF0F6" transform="translate(378,12)"/>
<path d="M0 0 C-3.26512878 3.26512878 -7.57570025 4.47665697 -11.8125 6.1875 C-12.71548828 6.56841797 -13.61847656 6.94933594 -14.54882812 7.34179688 C-15.42603516 7.69693359 -16.30324219 8.05207031 -17.20703125 8.41796875 C-18.0060083 8.74563232 -18.80498535 9.0732959 -19.62817383 9.41088867 C-22.50457389 10.12532546 -24.19533042 9.93277668 -27 9 C-29.02621949 7.193913 -30.36480863 5.19582841 -32 3 C-28.35547656 2.49013736 -24.70921254 1.99394154 -21.0625 1.5 C-19.53012695 1.28537109 -19.53012695 1.28537109 -17.96679688 1.06640625 C-11.91392631 0.25419998 -6.10659056 -0.15282396 0 0 Z " fill="#F2F4F9" transform="translate(373,10)"/>
<path d="M0 0 C0.33 0 0.66 0 1 0 C1.33 2.64 1.66 5.28 2 8 C2.598125 7.505 3.19625 7.01 3.8125 6.5 C6 5 6 5 9 5 C10.60546875 6.75 10.60546875 6.75 12.1875 9 C12.71730469 9.7425 13.24710937 10.485 13.79296875 11.25 C14.19128906 11.8275 14.58960938 12.405 15 13 C18.70344028 11.76551991 20.30250982 9.76665659 23 7 C23.66 6.67 24.32 6.34 25 6 C23.22054913 10.04420651 20.60470327 13.46078487 18 17 C15.33289346 16.84759391 13.5494129 16.50635081 11.5546875 14.66796875 C8 10.49375 8 10.49375 8 8 C7.2575 8.515625 6.515 9.03125 5.75 9.5625 C3 11 3 11 0.828125 10.58984375 C0.22484375 10.39519531 -0.3784375 10.20054688 -1 10 C-1.02689216 8.52093108 -1.04634621 7.04172517 -1.0625 5.5625 C-1.07410156 4.73878906 -1.08570313 3.91507813 -1.09765625 3.06640625 C-1 1 -1 1 0 0 Z " fill="#0F338D" transform="translate(346,23)"/>
<path d="M0 0 C0.99 0 1.98 0 3 0 C2.9129995 1.62600941 2.8048219 3.25089678 2.6875 4.875 C2.62949219 5.77992187 2.57148438 6.68484375 2.51171875 7.6171875 C2 10 2 10 -1 12 C-1.474375 12.804375 -1.94875 13.60875 -2.4375 14.4375 C-4.03370228 17.05527174 -5.46225774 18.33734128 -8 20 C-8 15.73173127 -7.62386487 15.06117568 -5 12 C-5.66 11.67 -6.32 11.34 -7 11 C-7 10.01 -7 9.02 -7 8 C-5.35 8 -3.7 8 -2 8 C-1.34 5.36 -0.68 2.72 0 0 Z " fill="#072C89" transform="translate(297,42)"/>
<path d="M0 0 C0.66 0.33 1.32 0.66 2 1 C2 1.99 2 2.98 2 4 C1.52433594 4.24492187 1.04867188 4.48984375 0.55859375 4.7421875 C-7.31600729 8.94777553 -14.62173057 13.99366435 -22 19 C-22.66 18.34 -23.32 17.68 -24 17 C-21.66766158 15.43599703 -19.33434664 13.87350143 -17 12.3125 C-16.31534668 11.85423828 -15.63069336 11.39597656 -14.92529297 10.92382812 C-11.36340165 8.54754381 -7.78723417 6.22014562 -4.125 4 C-0.96264637 2.35219133 -0.96264637 2.35219133 0 0 Z " fill="#2D4D9C" transform="translate(378,10)"/>
<path d="M0 0 C0.33 0 0.66 0 1 0 C1 6.6 1 13.2 1 20 C0.34 20 -0.32 20 -1 20 C-1 17.36 -1 14.72 -1 12 C-3.5609294 13.79857668 -3.5609294 13.79857668 -6 16 C-6 16.99 -6 17.98 -6 19 C-7.65 18.67 -9.3 18.34 -11 18 C-9.58745558 14.5388964 -8.08695617 13.19340308 -4.9375 11.25 C-1.87429024 9.09987055 -1.87429024 9.09987055 -0.25390625 5.8359375 C0.06893005 3.39568989 0.06893005 3.39568989 0 0 Z " fill="#0A308B" transform="translate(140,100)"/>
<path d="M0 0 C-3.91816392 2.61210928 -8.05875719 4.33073789 -12.375 6.1875 C-13.65117187 6.75887695 -13.65117187 6.75887695 -14.953125 7.34179688 C-15.78070313 7.69693359 -16.60828125 8.05207031 -17.4609375 8.41796875 C-18.58701416 8.90946411 -18.58701416 8.90946411 -19.73583984 9.41088867 C-22.47197007 10.12280179 -24.29816422 9.73007305 -27 9 C-22.42666177 6.65484914 -17.69444244 4.74976227 -12.9375 2.8125 C-12.02677734 2.43158203 -11.11605469 2.05066406 -10.17773438 1.65820312 C-9.30310547 1.30306641 -8.42847656 0.94792969 -7.52734375 0.58203125 C-6.73062256 0.25436768 -5.93390137 -0.0732959 -5.11303711 -0.41088867 C-3 -1 -3 -1 0 0 Z " fill="#2E4E9C" transform="translate(374,12)"/>
<path d="M0 0 C0 2.64 0 5.28 0 8 C0.66 8 1.32 8 2 8 C3.625 10.5 3.625 10.5 5 13 C0.67964401 13 -1.9179135 10.93154757 -5 8 C-5.9375 5.1875 -5.9375 5.1875 -6 3 C-2.25 0 -2.25 0 0 0 Z " fill="#234698" transform="translate(139,112)"/>
<path d="M0 0 C2.64 0 5.28 0 8 0 C8 0.33 8 0.66 8 1 C6.02 1.33 4.04 1.66 2 2 C2.825 2.78375 3.65 3.5675 4.5 4.375 C7 7 7 7 7 9 C7.99 9.33 8.98 9.66 10 10 C9.01 11.32 8.02 12.64 7 14 C6.4121875 12.948125 6.4121875 12.948125 5.8125 11.875 C4.37947774 9.60193021 3.02263161 7.850077 1.25 5.875 C0.5075 4.92625 -0.235 3.9775 -1 3 C-0.67 2.01 -0.34 1.02 0 0 Z " fill="#1C3F93" transform="translate(340,12)"/>
<path d="M0 0 C0.33 0.99 0.66 1.98 1 3 C-1.17220355 5.73277221 -2.85827965 7.72888915 -6.3359375 8.5546875 C-8.56274452 8.78650022 -10.76217118 8.94637012 -13 9 C-11 6 -11 6 -9.08984375 5.33984375 C-8.37957031 5.20707031 -7.66929687 5.07429687 -6.9375 4.9375 C-4.82510028 4.57394299 -4.82510028 4.57394299 -3 4 C-2.67 3.34 -2.34 2.68 -2 2 C-1.34 2 -0.68 2 0 2 C0 1.34 0 0.68 0 0 Z " fill="#E6F9FE" transform="translate(300,174)"/>
<path d="M0 0 C3.49171665 0.49881666 6.06073923 2.12213895 9 4 C8.67 4.99 8.34 5.98 8 7 C1.25 4.375 1.25 4.375 -1 1 C-0.67 0.67 -0.34 0.34 0 0 Z " fill="#072C89" transform="translate(266,47)"/>
<path d="M0 0 C0 0.66 0 1.32 0 2 C-5.625 5 -5.625 5 -9 5 C-8.75 3.125 -8.75 3.125 -8 1 C-5.08518252 -1.1107299 -3.34823603 -1.19579858 0 0 Z " fill="#072C89" transform="translate(334,39)"/>
<path d="M0 0 C0.66 0.33 1.32 0.66 2 1 C1.01 3.97 0.02 6.94 -1 10 C-1.99 10 -2.98 10 -4 10 C-2.25 2.25 -2.25 2.25 0 0 Z " fill="#072C89" transform="translate(268,34)"/>
<path d="M0 0 C2.5 1.625 2.5 1.625 5 4 C5.3125 7.25 5.3125 7.25 5 10 C4.01 10 3.02 10 2 10 C0.68373308 6.38026598 0 3.90432869 0 0 Z " fill="#072C89" transform="translate(295,29)"/>
<path d="M0 0 C0.86625 0.3403125 0.86625 0.3403125 1.75 0.6875 C1.75 1.3475 1.75 2.0075 1.75 2.6875 C-2.21 4.6675 -2.21 4.6675 -6.25 6.6875 C-6.25 2.6875 -6.25 2.6875 -4.5 0.875 C-2.25 -0.3125 -2.25 -0.3125 0 0 Z " fill="#072C89" transform="translate(278.25,27.3125)"/>
<path d="M0 0 C0.99 0.33 1.98 0.66 3 1 C2.175 1.763125 1.35 2.52625 0.5 3.3125 C-2.34055197 5.75434142 -2.34055197 5.75434142 -2 9 C-3.65 8.67 -5.3 8.34 -7 8 C-5.51218185 4.21282653 -3.38011591 2.22592999 0 0 Z " fill="#174398" transform="translate(136,110)"/>
<path d="M0 0 C0.99 0.33 1.98 0.66 3 1 C1.63016497 4.16115776 1.0109362 4.9927092 -2 7 C-2.99 7 -3.98 7 -5 7 C-4.6189482 4.23737447 -4.16402868 3.15856106 -2.125 1.1875 C-1.42375 0.795625 -0.7225 0.40375 0 0 Z " fill="#072C89" transform="translate(284,62)"/>
<path d="M0 0 C0.99 0.33 1.98 0.66 3 1 C1.85981998 4.42054006 1.07541482 5.2426201 -2 7 C-4.25 6.6875 -4.25 6.6875 -6 6 C-4 4 -2 2 0 0 Z " fill="#072D89" transform="translate(341,31)"/>
<path d="M0 0 C-0.33 0.99 -0.66 1.98 -1 3 C-3.64 3.33 -6.28 3.66 -9 4 C-9 3.01 -9 2.02 -9 1 C-2.25 -1.125 -2.25 -1.125 0 0 Z " fill="#072C89" transform="translate(311,47)"/>
<path d="M0 0 C0 0.99 0 1.98 0 3 C-4.43076923 5.09230769 -4.43076923 5.09230769 -7.3125 4.625 C-7.869375 4.41875 -8.42625 4.2125 -9 4 C-9 3.34 -9 2.68 -9 2 C-3.375 0 -3.375 0 0 0 Z " fill="#072C89" transform="translate(322,43)"/>
<path d="M0 0 C0 2.64 0 5.28 0 8 C-1.98 6.68 -3.96 5.36 -6 4 C-2.25 0 -2.25 0 0 0 Z " fill="#C2DAEA" transform="translate(139,112)"/>
<path d="M0 0 C2.97 0 5.94 0 9 0 C9 0.99 9 1.98 9 3 C6.03 3 3.06 3 0 3 C0 2.01 0 1.02 0 0 Z " fill="#072D89" transform="translate(278,51)"/>
<path d="M0 0 C2.31 0.33 4.62 0.66 7 1 C7.33 2.32 7.66 3.64 8 5 C3.545 4.01 3.545 4.01 -1 3 C-0.67 2.01 -0.34 1.02 0 0 Z " fill="#072C89" transform="translate(284,25)"/>
<path d="M0 0 C0.66 0.33 1.32 0.66 2 1 C2 1.99 2 2.98 2 4 C-3.17578125 7.22265625 -3.17578125 7.22265625 -5 8 C-5.99 7.67 -6.98 7.34 -8 7 C-7.50628906 6.66226562 -7.01257813 6.32453125 -6.50390625 5.9765625 C-5.86324219 5.53054687 -5.22257812 5.08453125 -4.5625 4.625 C-3.92441406 4.18414063 -3.28632813 3.74328125 -2.62890625 3.2890625 C-0.86259072 2.07839147 -0.86259072 2.07839147 0 0 Z " fill="#34549F" transform="translate(378,10)"/>
<path d="M0 0 C0.99 0.33 1.98 0.66 3 1 C-1.455 4.465 -1.455 4.465 -6 8 C-6 7.01 -6 6.02 -6 5 C-3.1875 2.25 -3.1875 2.25 0 0 Z " fill="#1F4295" transform="translate(240,145)"/>
</svg>
