<?xml version="1.0" standalone="no"?>
<!DOCTYPE svg PUBLIC "-//W3C//DTD SVG 20010904//EN"
 "http://www.w3.org/TR/2001/REC-SVG-20010904/DTD/svg10.dtd">
<svg version="1.0" xmlns="http://www.w3.org/2000/svg"
 width="800.000000pt" height="479.000000pt" viewBox="0 0 800.000000 479.000000"
 preserveAspectRatio="xMidYMid meet">

<g transform="translate(0.000000,479.000000) scale(0.100000,-0.100000)"
fill="#000000" stroke="none">
<path d="M3905 3898 c-16 -6 -86 -45 -155 -87 l-124 -76 188 -3 c103 -1 268
-1 367 0 l180 3 -143 85 c-139 83 -143 85 -212 87 -39 1 -84 -3 -101 -9z"/>
<path d="M3942 3279 c-88 -8 -168 -28 -245 -61 -39 -17 -45 -23 -36 -35 20
-23 -6 -42 -28 -21 -15 16 -20 14 -75 -24 -115 -81 -212 -207 -262 -340 -81
-215 -74 -490 16 -677 48 -99 159 -206 268 -259 127 -62 181 -74 370 -79 141
-4 180 -2 268 16 56 12 124 30 150 40 l47 19 3 86 c1 47 1 86 -2 86 -2 0 -32
-9 -67 -20 -112 -34 -211 -51 -334 -57 -197 -9 -326 30 -430 128 -105 100
-151 240 -143 438 9 192 66 330 185 441 108 102 242 149 418 150 239 0 404
-111 476 -321 17 -51 22 -87 22 -179 0 -63 -5 -134 -12 -158 -9 -33 -9 -47 0
-58 9 -11 8 -15 -5 -20 -9 -3 -32 -22 -51 -41 -42 -42 -78 -42 -109 0 -23 32
-25 84 -10 394 l7 152 -26 10 c-44 17 -199 41 -264 41 -56 0 -61 -2 -56 -20 7
-27 -21 -27 -40 1 -15 20 -17 20 -76 5 -86 -22 -137 -50 -196 -110 -91 -91
-132 -222 -114 -371 12 -94 43 -157 106 -215 66 -60 134 -84 243 -84 86 0 161
29 219 82 18 18 35 32 37 32 2 0 25 -22 51 -49 58 -60 123 -78 212 -61 175 33
284 216 284 475 0 205 -55 348 -183 475 -149 150 -361 214 -618 189z m-212
-149 c0 -16 -17 -19 -35 -6 -24 18 -11 40 16 26 10 -6 19 -15 19 -20z m60 -40
c0 -16 -17 -19 -35 -6 -24 18 -11 40 16 26 10 -6 19 -15 19 -20z m280 -244
c-13 -13 -45 17 -35 34 5 8 12 6 26 -6 13 -12 16 -21 9 -28z m60 -36 c0 -18
-22 -22 -37 -7 -21 21 -8 40 18 27 10 -6 19 -15 19 -20z m50 -56 c0 -8 -7 -14
-15 -14 -9 0 -15 -9 -15 -22 -1 -80 -22 -261 -35 -298 -27 -78 -85 -120 -162
-120 -94 0 -153 73 -153 190 0 187 109 294 281 276 47 -4 58 -3 63 10 5 13 9
14 21 4 8 -7 15 -19 15 -26z m48 -48 c3 -13 -1 -17 -14 -14 -11 2 -20 11 -22
22 -3 13 1 17 14 14 11 -2 20 -11 22 -22z m50 -50 c3 -13 -1 -17 -14 -14 -11
2 -20 11 -22 22 -3 13 1 17 14 14 11 -2 20 -11 22 -22z m46 -49 c6 -9 7 -19 3
-23 -9 -9 -37 15 -37 33 0 18 20 12 34 -10z m254 -275 c4 -24 -7 -29 -26 -10
-18 18 -15 40 6 36 9 -2 18 -13 20 -26z m52 -58 c0 -18 -14 -18 -30 1 -16 19
-3 40 16 24 8 -6 14 -18 14 -25z"/>
<path d="M2088 2808 c-93 -56 -168 -105 -168 -109 0 -4 79 -55 175 -113 l175
-105 0 214 c0 118 -3 215 -7 214 -5 0 -83 -46 -175 -101z"/>
<path d="M5710 2694 l0 -215 38 23 c21 13 102 61 180 107 77 47 139 88 136 92
-5 9 -338 209 -347 209 -4 0 -7 -97 -7 -216z"/>
<path d="M1072 2048 c-7 -7 -12 -18 -12 -25 0 -7 -11 -13 -25 -13 -27 0 -50
-32 -41 -57 4 -9 1 -22 -5 -29 -14 -17 -4 -44 16 -44 9 0 31 -11 49 -25 18
-14 36 -25 39 -25 14 0 7 31 -8 36 -8 4 -15 13 -15 21 0 9 6 13 15 9 12 -4 14
0 9 17 -5 21 0 25 38 36 24 7 51 20 61 29 36 32 7 99 -32 75 -11 -7 -23 -8
-32 -2 -20 12 -43 11 -57 -3z"/>
<path d="M6740 2034 c-7 -17 -6 -32 1 -46 10 -18 17 -19 64 -13 29 3 55 3 58
-2 3 -4 7 -30 8 -58 l4 -50 -37 0 c-20 0 -39 -3 -43 -6 -3 -4 -1 -25 5 -48 12
-45 22 -49 75 -27 l35 15 0 70 c0 68 4 76 32 73 14 -2 16 28 3 42 -8 8 -15 24
-15 35 0 27 -34 45 -59 31 -25 -13 -61 -13 -61 0 0 6 -14 10 -30 10 -24 0 -33
-6 -40 -26z"/>
<path d="M6370 1885 c0 -27 3 -33 15 -28 14 5 16 -5 13 -63 -2 -49 -7 -68 -15
-66 -7 1 -13 -2 -13 -8 0 -5 4 -10 9 -10 4 0 11 -42 14 -92 9 -150 52 -244
124 -275 51 -21 87 -9 130 43 l37 44 35 -147 c19 -82 34 -161 34 -178 0 -16
-9 -100 -21 -185 -24 -180 -50 -458 -54 -580 -2 -68 0 -85 12 -87 8 -2 21 1
27 5 7 4 43 157 80 339 37 183 70 330 72 328 2 -3 22 -154 45 -337 l41 -333
31 -3 32 -3 4 128 c5 143 -5 415 -23 631 l-12 142 -28 0 c-15 0 -31 5 -34 10
-11 17 15 40 46 40 31 0 31 -2 54 120 21 109 46 200 54 200 14 0 43 -76 48
-126 7 -63 -14 -129 -57 -183 -52 -67 -33 -76 55 -25 160 93 179 257 52 451
-64 98 -69 102 -157 102 -41 0 -97 0 -125 0 -212 1 -237 -5 -283 -73 -18 -27
-42 -79 -53 -117 -12 -38 -25 -72 -30 -75 -12 -7 -32 41 -54 125 -14 55 -14
68 -3 89 8 15 13 58 13 109 l0 85 -50 19 c-27 10 -53 19 -57 19 -5 0 -8 -16
-8 -35z"/>
<path d="M1855 1824 c-189 -14 -190 -14 -216 -42 -21 -23 -27 -43 -32 -98 -15
-152 -27 -561 -29 -956 l-3 -417 28 -28 c26 -27 32 -28 160 -34 72 -4 281 -8
463 -8 324 -1 331 -1 350 20 25 28 31 177 35 941 l4 590 -28 24 -28 24 -257
-1 c-141 -1 -342 -8 -447 -15z m359 -415 c73 -27 148 -96 183 -167 24 -49 28
-69 28 -142 0 -66 -5 -96 -22 -132 -30 -66 -96 -133 -162 -165 -48 -24 -68
-28 -141 -28 -73 0 -93 4 -141 28 -114 56 -189 173 -189 297 0 227 232 389
444 309z"/>
<path d="M1917 1252 c-59 -65 33 -221 171 -289 102 -50 212 -33 212 34 0 55
-83 86 -114 42 -28 -41 -118 -7 -167 63 -21 29 -21 32 -5 58 22 38 20 52 -9
84 -28 30 -65 34 -88 8z"/>
<path d="M5367 1472 c-10 -10 -17 -28 -17 -40 0 -16 6 -20 29 -20 39 1 51 -8
51 -43 0 -19 5 -29 15 -29 8 0 15 -9 15 -19 0 -11 -7 -26 -15 -35 -19 -18 -19
-30 0 -66 15 -29 14 -30 -10 -36 -14 -3 -34 -4 -44 -1 -16 4 -25 -8 -50 -69
-48 -114 -42 -143 52 -232 49 -45 61 -52 97 -52 41 0 130 18 130 27 0 2 -5 14
-11 26 -9 20 -9 20 9 -2 18 -22 22 -23 56 -11 21 6 38 10 40 8 1 -1 7 -16 14
-32 11 -24 17 -27 40 -22 15 4 42 23 60 42 28 29 33 41 27 62 -14 52 -8 79 28
132 62 92 47 139 -53 165 -29 8 -55 16 -58 19 -3 3 -9 34 -14 68 -13 98 -49
119 -138 79 -51 -23 -67 -19 -75 20 -10 46 -58 79 -114 79 -34 0 -53 -5 -64
-18z"/>
<path d="M893 1334 c-4 -10 0 -22 11 -30 18 -12 18 -38 4 -143 -2 -19 4 -26
32 -37 l35 -12 -37 -1 c-32 -1 -37 -5 -42 -28 -22 -118 -13 -444 19 -671 20
-141 21 -144 53 -140 l27 3 7 257 c4 144 11 266 17 275 9 15 10 12 11 -16 1
-99 88 -497 112 -513 11 -7 46 -2 57 8 2 2 -4 50 -12 106 -20 125 -40 496 -35
637 l3 102 -25 -5 c-14 -4 -49 -9 -78 -12 l-53 -7 11 27 c5 15 10 61 10 101 0
71 -1 75 -27 89 -16 7 -43 17 -61 21 -25 5 -33 3 -39 -11z"/>
<path d="M4834 1089 c-3 -6 19 -76 51 -155 l57 -144 295 0 c231 0 294 3 291
13 -3 8 -37 13 -109 15 l-104 3 -67 139 -67 140 -170 0 c-111 0 -172 -4 -177
-11z"/>
<path d="M5200 716 c0 -2 33 -31 73 -64 69 -58 73 -63 69 -97 -6 -53 10 -65
84 -65 l64 0 0 -150 0 -150 -54 0 c-30 0 -58 -4 -61 -10 -4 -6 42 -10 130 -10
88 0 134 4 130 10 -3 6 -31 10 -61 10 l-54 0 0 150 0 150 75 0 c71 0 76 2 87
25 8 17 8 32 1 47 -8 19 -6 25 11 33 25 13 32 56 16 96 l-12 29 -249 0 c-137
0 -249 -2 -249 -4z"/>
<path d="M5331 268 c-14 -61 -26 -78 -56 -78 -32 0 -56 -10 -49 -21 6 -10 55
-12 79 -2 20 7 65 98 65 131 0 44 -28 23 -39 -30z"/>
<path d="M1148 219 c-3 -16 -1 -34 3 -40 10 -17 219 -26 219 -10 0 19 -130 74
-177 76 -38 2 -41 0 -45 -26z"/>
<path d="M936 218 c-13 -51 -9 -58 39 -58 49 0 54 9 33 55 -15 34 -63 36 -72
3z"/>
<path d="M6639 213 c-35 -14 -89 -60 -89 -75 0 -9 173 -11 182 -3 3 3 2 22 -1
42 -7 45 -40 58 -92 36z"/>
<path d="M6946 195 c-3 -11 -6 -30 -6 -42 0 -21 4 -23 60 -23 67 0 76 13 40
60 -25 32 -86 36 -94 5z"/>
<path d="M4990 189 c-25 -5 -53 -7 -63 -5 -13 3 -17 0 -13 -11 3 -8 6 -17 6
-19 0 -5 86 3 128 12 26 5 30 35 5 33 -10 -1 -38 -5 -63 -10z"/>
</g>
</svg>
