<?xml version="1.0" encoding="UTF-8"?>
<svg version="1.1" xmlns="http://www.w3.org/2000/svg" width="771" height="513">
<path d="M0 0 C254.43 0 508.86 0 771 0 C771 169.29 771 338.58 771 513 C516.57 513 262.14 513 0 513 C0 343.71 0 174.42 0 0 Z " fill="#F5F0F8" transform="translate(0,0)"/>
<path d="M0 0 C2.4609738 -0.30136694 4.67242066 -0.40447551 7.13647461 -0.38095093 C7.87997886 -0.3856309 8.6234831 -0.39031087 9.38951778 -0.39513266 C11.89397176 -0.40714893 14.39788521 -0.39759991 16.90234375 -0.38818359 C18.69247763 -0.39224636 20.482609 -0.39758658 22.2727356 -0.40411377 C27.14455906 -0.41782829 32.01619264 -0.41247172 36.88801956 -0.40297651 C41.97735368 -0.39540127 47.06667113 -0.40241956 52.15600586 -0.40713501 C60.70396862 -0.41259881 69.25185371 -0.4053846 77.79980469 -0.39111328 C87.69394244 -0.37478558 97.58789475 -0.38007365 107.48202801 -0.3965925 C115.96442348 -0.41018961 124.446763 -0.41213573 132.92916584 -0.40427649 C138.00081231 -0.39959019 143.07237152 -0.39900131 148.14401245 -0.40888596 C152.91119986 -0.41752758 157.67814731 -0.4115853 162.44530869 -0.39420319 C164.19892859 -0.39022329 165.95256855 -0.39139791 167.70618057 -0.39799118 C170.0922384 -0.40613781 172.47751775 -0.3959696 174.86352539 -0.38095093 C175.91496939 -0.39098918 175.91496939 -0.39098918 176.98765469 -0.40123022 C178.91712952 -0.37752342 178.91712952 -0.37752342 182 0 C184.49946559 3.74919839 184.30597184 6.71961205 184.30078125 11.0625 C184.30506638 11.85019775 184.3093515 12.63789551 184.31376648 13.44946289 C184.31950579 15.11375976 184.32001297 16.77808171 184.31567383 18.44238281 C184.31251158 20.99066834 184.33598449 23.53779533 184.36132812 26.0859375 C184.36360092 27.70312353 184.36430471 29.32031269 184.36328125 30.9375 C184.372491 31.70006104 184.38170074 32.46262207 184.39118958 33.24829102 C184.34558181 38.453107 184.34558181 38.453107 182.92510986 40.70104408 C180.0423083 42.64619652 177.18510971 42.4135505 173.82592773 42.38095093 C172.72269873 42.38797089 172.72269873 42.38797089 171.59718227 42.39513266 C169.12580418 42.40712544 166.65497623 42.39760901 164.18359375 42.38818359 C162.41463903 42.3922474 160.64568685 42.39758821 158.8767395 42.40411377 C154.06688872 42.41781589 149.2572305 42.4124768 144.44737625 42.40297651 C139.41990886 42.39539489 134.39245825 42.40242135 129.36499023 42.40713501 C120.92135652 42.41259694 112.47780146 42.40538949 104.03417969 42.39111328 C94.26444031 42.37478594 84.49488874 42.38007414 74.72515392 42.3965925 C66.3454817 42.41019492 57.9658661 42.41213312 49.58618641 42.40427649 C44.57767978 42.39959312 39.56926149 42.39899331 34.5607605 42.40888596 C29.85265156 42.41753527 25.14478537 42.41157108 20.43670273 42.39420319 C18.70607787 42.39022743 16.97543267 42.39139092 15.24481583 42.39799118 C12.88762303 42.40615403 10.53121468 42.39594966 8.17407227 42.38095093 C7.48448646 42.38764309 6.79490065 42.39433526 6.0844183 42.40123022 C3.29817059 42.36669321 1.4178555 42.2819454 -0.92510986 40.70104408 C-2.80211438 37.73063128 -2.40438878 34.34117643 -2.36328125 30.9375 C-2.36377975 30.14980225 -2.36427826 29.36210449 -2.36479187 28.55053711 C-2.36245282 26.88620479 -2.35273416 25.22186884 -2.33618164 23.55761719 C-2.31258744 21.00944401 -2.31562186 18.46231716 -2.32226562 15.9140625 C-2.31668875 14.29686876 -2.30957881 12.67967943 -2.30078125 11.0625 C-2.30169266 10.29993896 -2.30260406 9.53737793 -2.30354309 8.75170898 C-2.25285761 4.97190586 -2.14779641 3.22169461 0 0 Z " fill="#F0EBF5" transform="translate(567,57)"/>
<path d="M0 0 C0.72746776 -0.00538554 1.45493551 -0.01077108 2.20444775 -0.01631981 C4.64273671 -0.03063058 7.08048517 -0.02348823 9.51879883 -0.01637268 C11.26657549 -0.02207459 13.01434843 -0.02903815 14.76211548 -0.03717041 C19.50998321 -0.05513563 24.25766648 -0.05392727 29.00555801 -0.04822803 C32.96700851 -0.04514141 36.92842331 -0.05122266 40.88986874 -0.05726677 C50.23333128 -0.07132108 59.5767024 -0.06974283 68.92016602 -0.05836487 C78.56554692 -0.04687895 88.21064994 -0.06096522 97.85599422 -0.08776134 C106.13294658 -0.10989656 114.40981156 -0.11656076 122.68679142 -0.11068493 C127.63219417 -0.10730938 132.57741871 -0.10977017 137.52279663 -0.12693596 C142.1718795 -0.14236865 146.82054959 -0.13849063 151.46961594 -0.11963081 C153.17724909 -0.11593489 154.88491258 -0.11908251 156.59251785 -0.1295166 C158.92104531 -0.14266016 161.24819278 -0.1312398 163.57666016 -0.11352539 C164.88041092 -0.11331611 166.18416168 -0.11310682 167.52742004 -0.1128912 C171.33192155 0.47112494 172.52225486 1.33144789 174.78833008 4.38768005 C175.29003906 6.99729919 175.29003906 6.99729919 175.28442383 9.9228363 C175.28506836 10.97922302 175.28571289 12.03560974 175.28637695 13.12400818 C175.26639648 14.2216449 175.24641602 15.31928162 175.22583008 16.45018005 C175.23291992 17.55168396 175.24000977 18.65318787 175.24731445 19.78807068 C175.18377884 27.78867035 175.18377884 27.78867035 173.7114563 30.01888466 C170.84607274 32.05833676 168.00288981 31.80151635 164.61425781 31.76863098 C163.87877181 31.77331095 163.14328581 31.77799093 162.38551235 31.78281271 C159.91413426 31.79480549 157.44330631 31.78528906 154.97192383 31.77586365 C153.20296911 31.77992746 151.43401693 31.78526826 149.66506958 31.79179382 C144.85521879 31.80549594 140.04556058 31.80015685 135.23570633 31.79065657 C130.20823894 31.78307495 125.18078833 31.7901014 120.15332031 31.79481506 C111.7096866 31.80027699 103.26613154 31.79306954 94.82250977 31.77879333 C85.05277039 31.76246599 75.28321882 31.76775419 65.513484 31.78427255 C57.13381178 31.79787497 48.75419618 31.79981317 40.37451649 31.79195654 C35.36600986 31.78727318 30.35759157 31.78667336 25.34909058 31.79656601 C20.64098164 31.80521532 15.93311545 31.79925113 11.22503281 31.78188324 C9.49440795 31.77790749 7.76376275 31.77907097 6.0331459 31.78567123 C3.67595311 31.79383408 1.31954476 31.78362972 -1.03759766 31.76863098 C-1.72718347 31.77532315 -2.41676928 31.78201531 -3.12725163 31.78891027 C-5.95322855 31.7538808 -7.79226773 31.6847243 -10.13479614 30.02561378 C-12.70151159 26.12161882 -11.67682707 20.38825278 -11.64916992 15.88768005 C-11.66915039 14.73396912 -11.68913086 13.58025818 -11.7097168 12.3915863 C-11.70907227 11.28685974 -11.70842773 10.18213318 -11.70776367 9.04393005 C-11.7096167 8.03137146 -11.71146973 7.01881287 -11.71337891 5.97557068 C-11.21166992 3.38768005 -11.21166992 3.38768005 -9.63104248 1.75016689 C-6.31138207 -0.11932344 -3.80376665 0.00708936 0 0 Z " fill="#EFEAF5" transform="translate(381.211669921875,205.61231994628906)"/>
<path d="M0 0 C1.0445844 0.00566899 1.0445844 0.00566899 2.11027151 0.0114525 C2.84898664 0.00762695 3.58770177 0.0038014 4.34880221 -0.00014007 C6.83699532 -0.01050174 9.32495904 -0.00647199 11.81316763 -0.0025093 C13.59182582 -0.00685403 15.37048214 -0.01203637 17.14913565 -0.01799697 C21.98999433 -0.03142402 26.83077512 -0.03196153 31.6716488 -0.02943367 C35.7076459 -0.02836645 39.74362707 -0.03324093 43.77962077 -0.03803909 C53.29846483 -0.04914713 62.81726944 -0.04956442 72.33611685 -0.04352492 C82.16774311 -0.03748304 91.99922634 -0.04979863 101.83082819 -0.07109499 C110.26142817 -0.08868756 118.69198253 -0.09471606 127.1226002 -0.09145725 C132.16242906 -0.08964047 137.20215591 -0.09231967 142.24196821 -0.10617179 C146.98041866 -0.11870744 151.7186455 -0.11684665 156.45709234 -0.1037609 C158.19900912 -0.10138622 159.94094142 -0.1041615 161.68284041 -0.11238402 C164.05539802 -0.12277834 166.42719512 -0.11481059 168.79972464 -0.10207289 C169.84096296 -0.11313432 169.84096296 -0.11313432 170.90323639 -0.12441921 C173.74309208 -0.0922019 175.59225669 -0.03031651 177.94540125 1.63953191 C179.50694115 4.01528771 179.40708195 5.88541211 179.4169274 8.70964891 C179.42079458 9.76925828 179.42466177 10.82886766 179.42864615 11.92058641 C179.4112438 13.57960984 179.4112438 13.57960984 179.3934899 15.27214891 C179.40509146 16.37816453 179.41669302 17.48418016 179.42864615 18.62371141 C179.42477896 19.68332078 179.42091177 20.74293016 179.4169274 21.83464891 C179.41354361 22.80531297 179.41015982 23.77597703 179.40667349 24.77605516 C179.0184899 27.27214891 179.0184899 27.27214891 177.94540125 28.9047659 C175.0662593 30.94787482 172.20133573 30.68250718 168.79972464 30.64637071 C167.68931196 30.65233232 167.68931196 30.65233232 166.5564667 30.65841436 C164.0689233 30.66806062 161.58194533 30.65620557 159.09441763 30.64446336 C157.31398944 30.64689054 155.53356261 30.65060914 153.75313956 30.65552598 C148.91235572 30.66494803 144.0717736 30.65549889 139.23100549 30.64219385 C134.17237867 30.63089775 129.11376205 30.63498539 124.05512625 30.63694078 C115.56021448 30.63782426 107.06538244 30.62673144 98.57049185 30.60833055 C88.73827974 30.58715531 78.9061844 30.58365417 69.07395411 30.58989251 C59.62807768 30.59557966 50.18224253 30.58994861 40.73637205 30.57871896 C36.71047905 30.57406506 32.68461123 30.57320252 28.65871626 30.57530481 C23.92192406 30.57718325 19.18525135 30.56911818 14.44848639 30.55324441 C12.70615451 30.54898841 10.96381053 30.54815979 9.22147566 30.55093461 C6.8509415 30.55413816 4.48076851 30.54512129 2.11027151 30.53284532 C1.41388191 30.53662464 0.71749231 30.54040397 0 30.54429781 C-4.75318084 30.50047817 -4.75318084 30.50047817 -6.9815101 28.27214891 C-7.24029917 25.69011766 -7.24029917 25.69011766 -7.2471351 22.45964891 C-7.24971323 21.30207078 -7.25229135 20.14449266 -7.2549476 18.95183641 C-7.24721323 17.73753953 -7.23947885 16.52324266 -7.2315101 15.27214891 C-7.23924448 14.05785203 -7.24697885 12.84355516 -7.2549476 11.59246141 C-7.25236948 10.43488328 -7.24979135 9.27730516 -7.2471351 8.08464891 C-7.24487924 7.01859422 -7.24262338 5.95253953 -7.24029917 4.85418016 C-6.75633026 0.02544891 -4.29392603 0.03958576 0 0 Z " fill="#ECE6F2" transform="translate(181.98151010274887,123.7278510928154)"/>
<path d="M0 0 C1.103229 -0.00573832 1.103229 -0.00573832 2.22874546 -0.01159257 C4.70001376 -0.0219341 7.17105022 -0.0179283 9.64233398 -0.01396179 C11.4112876 -0.01830759 13.18023932 -0.0234903 14.94918823 -0.02944946 C19.75899711 -0.0428639 24.56872754 -0.04341549 29.37855148 -0.04088616 C33.38974551 -0.03981826 37.40092354 -0.04469511 41.41211414 -0.04949158 C50.87200422 -0.06059491 60.3318546 -0.06101933 69.79174805 -0.05497742 C79.56147944 -0.04893374 89.33106697 -0.06125675 99.10077381 -0.08254749 C107.48043902 -0.10013967 115.86005832 -0.10616868 124.23974133 -0.10290974 C129.2482564 -0.10109317 134.25666882 -0.10377035 139.26516724 -0.11762428 C143.97326272 -0.13015957 148.68113315 -0.1282995 153.38922501 -0.11521339 C155.11985473 -0.11283877 156.85050009 -0.11561381 158.58111191 -0.12383652 C160.938291 -0.13423113 163.29470466 -0.12626292 165.65185547 -0.11352539 C166.68623418 -0.12458682 166.68623418 -0.12458682 167.74150944 -0.13587171 C170.57568908 -0.10350991 172.4061013 -0.03890693 174.75004578 1.63381672 C176.28338282 3.95243066 176.21429575 5.71561307 176.22436523 8.47944641 C176.22823242 9.4939386 176.23209961 10.50843079 176.23608398 11.55366516 C176.21868164 13.14114563 176.21868164 13.14114563 176.20092773 14.76069641 C176.2125293 15.81901672 176.22413086 16.87733704 176.23608398 17.96772766 C176.2322168 18.98221985 176.22834961 19.99671204 176.22436523 21.04194641 C176.22098145 21.97071594 176.21759766 22.89948547 176.21411133 23.85639954 C175.82592773 26.26069641 175.82592773 26.26069641 174.75283909 27.8875761 C171.87500643 29.93832455 169.01131798 29.67108171 165.60716248 29.63491821 C164.4967498 29.64087982 164.4967498 29.64087982 163.36390454 29.64696187 C160.87636114 29.65660813 158.38938317 29.64475307 155.90185547 29.63301086 C154.12142728 29.63543805 152.34100045 29.63915665 150.56057739 29.64407349 C145.71979355 29.65349553 140.87921144 29.6440464 136.03844333 29.63074136 C130.97981651 29.61944525 125.92119989 29.62353289 120.86256409 29.62548828 C112.36765232 29.62637176 103.87282028 29.61527894 95.37792969 29.59687805 C85.54571758 29.57570281 75.71362224 29.57220167 65.88139194 29.57844001 C56.43551552 29.58412717 46.98968036 29.57849611 37.54380989 29.56726646 C33.51791689 29.56261256 29.49204906 29.56175003 25.4661541 29.56385231 C20.72936189 29.56573075 15.99268918 29.55766568 11.25592422 29.54179192 C9.51359234 29.53753592 7.77124837 29.53670729 6.0289135 29.53948212 C3.65837934 29.54268566 1.28820635 29.5336688 -1.08229065 29.52139282 C-1.77868025 29.52517215 -2.47506985 29.52895147 -3.19256216 29.53284532 C-7.945743 29.48902568 -7.945743 29.48902568 -10.17407227 27.26069641 C-10.63163454 23.11213179 -10.49809403 18.93157566 -10.48657227 14.76069641 C-10.50268555 13.59409485 -10.51879883 12.42749329 -10.53540039 11.22554016 C-10.53604492 10.11307922 -10.53668945 9.00061829 -10.53735352 7.85444641 C-10.54033447 6.83028625 -10.54331543 5.8061261 -10.54638672 4.75093079 C-10.42352295 3.92915344 -10.30065918 3.1073761 -10.17407227 2.26069641 C-6.61106821 -0.11463962 -4.11060757 -0.02252847 0 0 Z " fill="#ECE7F0" transform="translate(380.174072265625,22.739303588867188)"/>
<path d="M0 0 C1.103229 -0.00573832 1.103229 -0.00573832 2.22874546 -0.01159257 C4.70001376 -0.0219341 7.17105022 -0.0179283 9.64233398 -0.01396179 C11.4112876 -0.01830759 13.18023932 -0.0234903 14.94918823 -0.02944946 C19.75899711 -0.0428639 24.56872754 -0.04341549 29.37855148 -0.04088616 C33.38974551 -0.03981826 37.40092354 -0.04469511 41.41211414 -0.04949158 C50.87200422 -0.06059491 60.3318546 -0.06101933 69.79174805 -0.05497742 C79.56147944 -0.04893374 89.33106697 -0.06125675 99.10077381 -0.08254749 C107.48043902 -0.10013967 115.86005832 -0.10616868 124.23974133 -0.10290974 C129.2482564 -0.10109317 134.25666882 -0.10377035 139.26516724 -0.11762428 C143.97326272 -0.13015957 148.68113315 -0.1282995 153.38922501 -0.11521339 C155.11985473 -0.11283877 156.85050009 -0.11561381 158.58111191 -0.12383652 C160.938291 -0.13423113 163.29470466 -0.12626292 165.65185547 -0.11352539 C166.68623418 -0.12458682 166.68623418 -0.12458682 167.74150944 -0.13587171 C170.57568908 -0.10350991 172.4061013 -0.03890693 174.75004578 1.63381672 C176.28338282 3.95243066 176.21429575 5.71561307 176.22436523 8.47944641 C176.22823242 9.4939386 176.23209961 10.50843079 176.23608398 11.55366516 C176.21868164 13.14114563 176.21868164 13.14114563 176.20092773 14.76069641 C176.2125293 15.81901672 176.22413086 16.87733704 176.23608398 17.96772766 C176.2322168 18.98221985 176.22834961 19.99671204 176.22436523 21.04194641 C176.22098145 21.97071594 176.21759766 22.89948547 176.21411133 23.85639954 C175.82592773 26.26069641 175.82592773 26.26069641 174.75004578 27.8875761 C171.88434105 29.93264676 169.04306093 29.67118305 165.65185547 29.63491821 C164.91636947 29.63889262 164.18088346 29.64286703 163.42311001 29.64696187 C160.95171884 29.65660788 158.48089685 29.64475318 156.00952148 29.63301086 C154.24056789 29.63543807 152.47161566 29.63915671 150.70266724 29.64407349 C145.89280654 29.65349582 141.08314886 29.6440458 136.27330399 29.63074136 C131.24584158 29.61944381 126.21838942 29.62353305 121.19091797 29.62548828 C112.74728062 29.62637179 104.30372347 29.61527889 95.86010742 29.59687805 C86.09039909 29.57570956 76.32080828 29.57220021 66.55108166 29.57844001 C57.16287365 29.58412974 47.77470715 29.57849263 38.38650513 29.56726646 C34.38655838 29.56261529 30.38663696 29.56174887 26.38668823 29.56385231 C21.67861984 29.56573249 16.97067149 29.55765218 12.26263046 29.54179192 C10.53200655 29.53754028 8.80137047 29.53670439 7.07074356 29.53948212 C4.7136962 29.54269199 2.3570102 29.53365254 0 29.52139282 C-0.68958581 29.52517215 -1.37917162 29.52895147 -2.08965397 29.53284532 C-5.68743452 29.4995989 -7.0848498 29.32017806 -10.17407227 27.26069641 C-10.56225586 24.77046204 -10.56225586 24.77046204 -10.57250977 21.66694641 C-10.57637695 20.55448547 -10.58024414 19.44202454 -10.58422852 18.29585266 C-10.56682617 16.54595032 -10.56682617 16.54595032 -10.54907227 14.76069641 C-10.56067383 13.59409485 -10.57227539 12.42749329 -10.58422852 11.22554016 C-10.58036133 10.11307922 -10.57649414 9.00061829 -10.57250977 7.85444641 C-10.56912598 6.83028625 -10.56574219 5.8061261 -10.56225586 4.75093079 C-10.37010498 3.51826477 -10.37010498 3.51826477 -10.17407227 2.26069641 C-6.61106821 -0.11463962 -4.11060757 -0.02252847 0 0 Z " fill="#EBE6EE" transform="translate(380.174072265625,172.7393035888672)"/>
<path d="M0 0 C0.735486 -0.00453111 1.470972 -0.00906223 2.22874546 -0.01373065 C4.700005 -0.02641885 7.17104542 -0.02475147 9.64233398 -0.02310181 C11.4112883 -0.02908421 13.18023999 -0.03588908 14.94918823 -0.04345703 C19.75898989 -0.06115121 24.56872043 -0.06581378 29.37855148 -0.0670886 C33.38974672 -0.06898548 37.4009253 -0.07634038 41.41211414 -0.08343279 C50.87200067 -0.09972649 60.33184911 -0.10460076 69.79174805 -0.10317993 C79.56151543 -0.10197746 89.33106227 -0.12309798 99.10077381 -0.15466726 C107.48044026 -0.18078336 115.86003446 -0.19154923 124.23974133 -0.19026911 C129.24829544 -0.18975821 134.25665353 -0.19551238 139.26516724 -0.21662521 C143.97331029 -0.2359298 148.68106872 -0.23618575 153.38922501 -0.22159195 C155.11985966 -0.2194932 156.8505179 -0.22426774 158.58111191 -0.23631287 C160.93848454 -0.25166149 163.29451351 -0.2425279 165.65185547 -0.22705078 C166.34144128 -0.23733791 167.03102709 -0.24762503 167.74150944 -0.25822389 C170.91140919 -0.21202858 172.43669636 -0.11273514 174.75004578 2.14670372 C176.05186645 4.71278402 176.21334078 6.49268663 176.22436523 9.36508179 C176.22823242 10.33123413 176.23209961 11.29738647 176.23608398 12.29281616 C176.21868164 13.7961853 176.21868164 13.7961853 176.20092773 15.32992554 C176.2125293 16.33603882 176.22413086 17.3421521 176.23608398 18.37875366 C176.2322168 19.34361694 176.22834961 20.30848022 176.22436523 21.30258179 C176.22098145 22.18309204 176.21759766 23.06360229 176.21411133 23.97079468 C175.72326598 26.87480862 175.21792652 27.55452984 172.82592773 29.26742554 C170.33627587 29.55985799 168.09691865 29.66809686 165.60716248 29.64164734 C164.4967498 29.64760895 164.4967498 29.64760895 163.36390454 29.65369099 C160.87636114 29.66333725 158.38938317 29.6514822 155.90185547 29.63973999 C154.12142728 29.64216717 152.34100045 29.64588577 150.56057739 29.65080261 C145.71979355 29.66022466 140.87921144 29.65077552 136.03844333 29.63747048 C130.97981651 29.62617438 125.92119989 29.63026202 120.86256409 29.63221741 C112.36765232 29.63310089 103.87282028 29.62200807 95.37792969 29.60360718 C85.54571758 29.58243194 75.71362224 29.5789308 65.88139194 29.58516914 C56.43551552 29.59085629 46.98968036 29.58522524 37.54380989 29.57399559 C33.51791689 29.56934169 29.49204906 29.56847915 25.4661541 29.57058144 C20.72936189 29.57245988 15.99268918 29.56439481 11.25592422 29.54852104 C9.51359234 29.54426504 7.77124837 29.54343642 6.0289135 29.54621124 C3.65837934 29.54941479 1.28820635 29.54039792 -1.08229065 29.52812195 C-1.77868025 29.53190127 -2.47506985 29.5356806 -3.19256216 29.53957444 C-7.945743 29.4957548 -7.945743 29.4957548 -10.17407227 27.26742554 C-10.63163454 23.11886092 -10.49809403 18.93830478 -10.48657227 14.76742554 C-10.50268555 13.60082397 -10.51879883 12.43422241 -10.53540039 11.23226929 C-10.53604492 10.11980835 -10.53668945 9.00734741 -10.53735352 7.86117554 C-10.54033447 6.83701538 -10.54331543 5.81285522 -10.54638672 4.75765991 C-10.42352295 3.93588257 -10.30065918 3.11410522 -10.17407227 2.26742554 C-6.61229333 -0.10709375 -4.1096272 -0.01845797 0 0 Z " fill="#F1ECF4" transform="translate(185.174072265625,89.73257446289063)"/>
<path d="M0 0 C1.0445844 0.00464581 1.0445844 0.00464581 2.11027151 0.00938547 C2.84898664 0.00485435 3.58770177 0.00032324 4.34880221 -0.00434518 C6.83698667 -0.01705808 9.32495418 -0.01536441 11.81316763 -0.01371634 C13.59182652 -0.01969727 15.37048281 -0.0265018 17.14913565 -0.03407156 C21.98998716 -0.05178239 26.83076803 -0.05642906 31.6716488 -0.05770314 C35.70764711 -0.0595988 39.74362883 -0.06695242 43.77962077 -0.07404733 C53.29846129 -0.09034794 62.81726397 -0.09521473 72.33611685 -0.09379447 C82.1677789 -0.09259235 91.99922166 -0.11370418 101.83082819 -0.14528179 C110.26142941 -0.17139846 118.69195881 -0.18216371 127.1226002 -0.18088365 C132.16246785 -0.18037268 137.20214071 -0.18612968 142.24196821 -0.20723975 C146.98046593 -0.22654488 151.71858148 -0.22679989 156.45709234 -0.21220648 C158.19901401 -0.21010769 159.94095912 -0.21488255 161.68284041 -0.2269274 C164.05559032 -0.24227557 166.4270052 -0.23314262 168.79972464 -0.21766531 C169.84096296 -0.233096 169.84096296 -0.233096 170.90323639 -0.24883842 C174.08228893 -0.20280876 175.62334417 -0.10856674 177.94540125 2.15608919 C179.2436782 4.72184577 179.40590979 6.50385704 179.4169274 9.37446725 C179.42079458 10.3406196 179.42466177 11.30677194 179.42864615 12.30220163 C179.4112438 13.80557077 179.4112438 13.80557077 179.3934899 15.339311 C179.40509146 16.34542428 179.41669302 17.35153757 179.42864615 18.38813913 C179.42477896 19.35300241 179.42091177 20.31786569 179.4169274 21.31196725 C179.41354361 22.19247751 179.41015982 23.07298776 179.40667349 23.98018014 C178.91582814 26.88419409 178.41048868 27.5639153 176.0184899 29.276811 C173.52883804 29.56924345 171.28948081 29.67748233 168.79972464 29.65103281 C167.68931196 29.65699441 167.68931196 29.65699441 166.5564667 29.66307646 C164.0689233 29.67272272 161.58194533 29.66086766 159.09441763 29.64912546 C157.31398944 29.65155264 155.53356261 29.65527124 153.75313956 29.66018808 C148.91235572 29.66961013 144.0717736 29.66016099 139.23100549 29.64685595 C134.17237867 29.63555985 129.11376205 29.63964749 124.05512625 29.64160287 C115.56021448 29.64248635 107.06538244 29.63139354 98.57049185 29.61299264 C88.73827974 29.5918174 78.9061844 29.58831627 69.07395411 29.5945546 C59.62807768 29.60024176 50.18224253 29.59461071 40.73637205 29.58338106 C36.71047905 29.57872715 32.68461123 29.57786462 28.65871626 29.5799669 C23.92192406 29.58184534 19.18525135 29.57378027 14.44848639 29.55790651 C12.70615451 29.55365051 10.96381053 29.55282188 9.22147566 29.55559671 C6.8509415 29.55880025 4.48076851 29.54978339 2.11027151 29.53750741 C1.41388191 29.54128674 0.71749231 29.54506606 0 29.54895991 C-4.75318084 29.50514027 -4.75318084 29.50514027 -6.9815101 27.276811 C-7.24029917 24.78657663 -7.24029917 24.78657663 -7.2471351 21.683061 C-7.24971323 20.57060007 -7.25229135 19.45813913 -7.2549476 18.31196725 C-7.24334604 16.56206491 -7.24334604 16.56206491 -7.2315101 14.776811 C-7.23924448 13.61020944 -7.24697885 12.44360788 -7.2549476 11.24165475 C-7.25236948 10.12919382 -7.24979135 9.01673288 -7.2471351 7.870561 C-7.24487924 6.84640085 -7.24262338 5.82224069 -7.24029917 4.76704538 C-6.74511971 0.00211104 -4.21553904 0.04297252 0 0 Z " fill="#EEE9F1" transform="translate(181.98151010274887,22.723188996315002)"/>
<path d="M0 0 C1.103229 -0.00701996 1.103229 -0.00701996 2.22874546 -0.01418173 C4.70012355 -0.02617451 7.1709515 -0.01665808 9.64233398 -0.00723267 C11.4112887 -0.01129648 13.18024088 -0.01663728 14.94918823 -0.02316284 C19.75903902 -0.03686496 24.56869723 -0.03152587 29.37855148 -0.02202559 C34.40601887 -0.01444396 39.43346948 -0.02147042 44.4609375 -0.02618408 C52.90457121 -0.03164601 61.34812627 -0.02443856 69.79174805 -0.01016235 C79.56148742 0.00616499 89.33103899 0.00087679 99.10077381 -0.01564157 C107.48044603 -0.02924399 115.86006163 -0.03118219 124.23974133 -0.02332556 C129.24824796 -0.0186422 134.25666624 -0.01804238 139.26516724 -0.02793503 C143.97327617 -0.03658434 148.68114237 -0.03062015 153.38922501 -0.01325226 C155.11984987 -0.0092765 156.85049507 -0.01043999 158.58111191 -0.01704025 C160.9383047 -0.0252031 163.29471305 -0.01499874 165.65185547 0 C166.34144128 -0.00669217 167.03102709 -0.01338433 167.74150944 -0.02027929 C170.57524412 0.01484635 172.40679625 0.08175191 174.75004578 1.75449181 C176.28358114 4.07280616 176.21429637 5.83603814 176.22436523 8.59970093 C176.22823242 9.61419312 176.23209961 10.6286853 176.23608398 11.67391968 C176.21868164 13.26140015 176.21868164 13.26140015 176.20092773 14.88095093 C176.2125293 15.93927124 176.22413086 16.99759155 176.23608398 18.08798218 C176.2322168 19.10247437 176.22834961 20.11696655 176.22436523 21.16220093 C176.22098145 22.09097046 176.21759766 23.01973999 176.21411133 23.97665405 C175.82592773 26.38095093 175.82592773 26.38095093 174.75004578 28.00741005 C171.88494203 30.05267808 169.04303894 29.79481199 165.65185547 29.76190186 C164.91636947 29.76658183 164.18088346 29.7712618 163.42311001 29.77608359 C160.95173192 29.78807636 158.48090397 29.77855993 156.00952148 29.76913452 C154.24056677 29.77319833 152.47161459 29.77853913 150.70266724 29.7850647 C145.89281645 29.79876681 141.08315823 29.79342773 136.27330399 29.78392744 C131.2458366 29.77634582 126.21838598 29.78337228 121.19091797 29.78808594 C112.74728426 29.79354786 104.3037292 29.78634042 95.86010742 29.77206421 C86.09036805 29.75573687 76.32081648 29.76102507 66.55108166 29.77754343 C58.17140944 29.79114585 49.79179384 29.79308405 41.41211414 29.78522742 C36.40360751 29.78054405 31.39518923 29.77994424 26.38668823 29.78983688 C21.6785793 29.7984862 16.9707131 29.79252201 12.26263046 29.77515411 C10.5320056 29.77117836 8.8013604 29.77234184 7.07074356 29.77894211 C4.71355077 29.78710495 2.35714241 29.77690059 0 29.76190186 C-0.68958581 29.76859402 -1.37917162 29.77528619 -2.08965397 29.78218114 C-4.92338866 29.74705551 -6.75494078 29.68014994 -9.09819031 28.00741005 C-10.63172568 25.68909569 -10.5624409 23.92586371 -10.57250977 21.16220093 C-10.57637695 20.14770874 -10.58024414 19.13321655 -10.58422852 18.08798218 C-10.57262695 17.02966187 -10.56102539 15.97134155 -10.54907227 14.88095093 C-10.56067383 13.82263062 -10.57227539 12.7643103 -10.58422852 11.67391968 C-10.57842773 10.1521814 -10.57842773 10.1521814 -10.57250977 8.59970093 C-10.56912598 7.6709314 -10.56574219 6.74216187 -10.56225586 5.7852478 C-10.17407227 3.38095093 -10.17407227 3.38095093 -9.09819031 1.75449181 C-6.23308656 -0.29077623 -3.39118347 -0.03291013 0 0 Z " fill="#EEE9F1" transform="translate(575.174072265625,22.619049072265625)"/>
<path d="M0 0 C6.27 0 12.54 0 19 0 C19 4.29 19 8.58 19 13 C12.73 13 6.46 13 0 13 C0 8.71 0 4.42 0 0 Z " fill="#B7140D" transform="translate(579,71)"/>
<path d="M0 0 C2.4660618 -0.29475256 4.68170197 -0.39147389 7.14993286 -0.36076355 C7.89484824 -0.36332682 8.63976362 -0.3658901 9.40725219 -0.36853105 C11.91641206 -0.37349309 14.42497713 -0.35693672 16.93408203 -0.34057617 C18.72745754 -0.33973042 20.52083408 -0.34020403 22.31420898 -0.34190369 C27.1941905 -0.34276709 32.07395238 -0.3250856 36.95388269 -0.30418181 C42.04947462 -0.28547241 47.14507116 -0.28366911 52.24069214 -0.28010559 C61.89506697 -0.27076822 71.54934031 -0.24613159 81.20367038 -0.21605712 C92.19261069 -0.18256569 103.18155576 -0.16604035 114.17053437 -0.15097082 C136.78041259 -0.11958348 159.39020062 -0.06679017 182 0 C182 0.33 182 0.66 182 1 C181.07417177 1.00331015 180.14834354 1.00662029 179.19445992 1.01003075 C156.69504073 1.0909279 134.1956904 1.18321341 111.69636726 1.28752708 C100.81598449 1.33770657 89.93560945 1.38414877 79.05517578 1.421875 C69.57477873 1.45475621 60.09444081 1.49456577 50.61410892 1.54279006 C45.59165049 1.56809367 40.56923147 1.58986343 35.54672623 1.60334396 C30.82390622 1.61612941 26.10122113 1.63814537 21.37847519 1.66738319 C19.64099329 1.67648661 17.90348964 1.6821556 16.16598511 1.68421364 C13.80183668 1.68751678 11.43807536 1.7029405 9.07400513 1.7215271 C8.37946012 1.71959237 7.68491511 1.71765763 6.96932328 1.71566427 C3.04386362 1.66890535 3.04386362 1.66890535 0 4 C-0.24543141 6.64787789 -0.37349386 9.19903823 -0.4140625 11.8515625 C-0.43342865 12.62559418 -0.4527948 13.39962585 -0.4727478 14.19711304 C-0.5325983 16.67296275 -0.57895011 19.14885883 -0.625 21.625 C-0.66317482 23.30210377 -0.70222625 24.97918784 -0.7421875 26.65625 C-0.83830409 30.77067353 -0.92231439 34.88518886 -1 39 C-1.33 39 -1.66 39 -2 39 C-2.04942365 33.927993 -2.08573068 28.85612606 -2.10986328 23.78393555 C-2.11992326 22.05832477 -2.13357276 20.33273105 -2.15087891 18.60717773 C-2.17512754 16.1273986 -2.18648301 13.64784477 -2.1953125 11.16796875 C-2.20563507 10.39599655 -2.21595764 9.62402435 -2.22659302 8.82865906 C-2.22739422 5.00718524 -2.17242595 3.25863893 0 0 Z " fill="#CABFDF" transform="translate(567,57)"/>
<path d="M0 0 C3.5 0.25 3.5 0.25 5.5 2.25 C5.875 5.6875 5.875 5.6875 5.5 9.25 C4.84773438 9.68054687 4.19546875 10.11109375 3.5234375 10.5546875 C1.17568486 12.16013382 1.17568486 12.16013382 0.890625 15.38671875 C0.84421875 16.55847656 0.7978125 17.73023438 0.75 18.9375 C0.69328125 20.11699219 0.6365625 21.29648438 0.578125 22.51171875 C0.55234375 23.41535156 0.5265625 24.31898437 0.5 25.25 C0.17 25.25 -0.16 25.25 -0.5 25.25 C-0.51417969 24.36957031 -0.52835938 23.48914063 -0.54296875 22.58203125 C-0.60380152 15.29765602 -0.60380152 15.29765602 -4.125 9.25 C-4.90875 8.59 -5.6925 7.93 -6.5 7.25 C-6.38574008 2.33682325 -5.01749245 0.35839232 0 0 Z " fill="#E0E8F9" transform="translate(28.5,48.75)"/>
<path d="M0 0 C1.8125 1.125 1.8125 1.125 3 3 C3.39310741 6.14485925 3.47555213 8.13281671 1.9375 10.9375 C-1.21566824 12.66665678 -3.62508255 11.8590699 -7 11 C-9 8 -9 8 -8.8125 5.5 C-7.24981526 0.69173926 -5.06096263 -0.75914439 0 0 Z " fill="#D9D6DB" transform="translate(31,97)"/>
<path d="M0 0 C1.670625 0.37125 1.670625 0.37125 3.375 0.75 C4.78941874 3.57883747 4.69400332 5.62376745 4.375 8.75 C2.6875 10.6875 2.6875 10.6875 0.375 11.75 C-2.82438696 11.67196617 -4.15629544 11.18745759 -6.5 9 C-7.625 6.75 -7.625 6.75 -7.5 4.125 C-5.99323443 0.03520775 -4.16414073 -0.28718212 0 0 Z " fill="#D8D5DA" transform="translate(29.625,146.25)"/>
<path d="M0 0 C3.625 0.375 3.625 0.375 7 1 C8.32561852 7.38707103 8.32561852 7.38707103 6.9375 10 C3.99948754 11.51639353 2.09843192 10.92293717 -1 10 C-3 7 -3 7 -2.75 4.4375 C-2 2 -2 2 0 0 Z " fill="#B6B1BA" transform="translate(393,142)"/>
<path d="M0 0 C2.4375 0.75 2.4375 0.75 4.4375 2.75 C4.0625 6.375 4.0625 6.375 3.4375 9.75 C0.6875 10.5 0.6875 10.5 -2.5625 10.75 C-5 9.125 -5 9.125 -6.5625 6.75 C-6.5 4.125 -6.5 4.125 -5.5625 1.75 C-2.5625 -0.25 -2.5625 -0.25 0 0 Z " fill="#B5B1BA" transform="translate(396.5625,113.25)"/>
<path d="M0 0 C2.4375 0.75 2.4375 0.75 4.4375 2.75 C4.0625 6.375 4.0625 6.375 3.4375 9.75 C1.1275 10.08 -1.1825 10.41 -3.5625 10.75 C-5.125 9.0625 -5.125 9.0625 -6.5625 6.75 C-6.4375 4.125 -6.4375 4.125 -5.5625 1.75 C-2.5625 -0.25 -2.5625 -0.25 0 0 Z " fill="#B7B2BB" transform="translate(396.5625,84.25)"/>
<path d="M0 0 C1.98 0 3.96 0 6 0 C6 4.29 6 8.58 6 13 C4.02 13 2.04 13 0 13 C0 8.71 0 4.42 0 0 Z " fill="#049A04" transform="translate(592,71)"/>
<path d="M0 0 C1.98 0 3.96 0 6 0 C6 4.29 6 8.58 6 13 C4.02 13 2.04 13 0 13 C0 8.71 0 4.42 0 0 Z " fill="#030303" transform="translate(579,71)"/>
<path d="M0 0 C3.5 0.25 3.5 0.25 5.5 2.25 C5.875 5.6875 5.875 5.6875 5.5 9.25 C4.84773438 9.68054687 4.19546875 10.11109375 3.5234375 10.5546875 C1.17568486 12.16013382 1.17568486 12.16013382 0.890625 15.38671875 C0.84421875 16.55847656 0.7978125 17.73023438 0.75 18.9375 C0.69328125 20.11699219 0.6365625 21.29648438 0.578125 22.51171875 C0.55234375 23.41535156 0.5265625 24.31898437 0.5 25.25 C0.17 25.25 -0.16 25.25 -0.5 25.25 C-0.51417969 24.36957031 -0.52835938 23.48914063 -0.54296875 22.58203125 C-0.60380152 15.29765602 -0.60380152 15.29765602 -4.125 9.25 C-4.90875 8.59 -5.6925 7.93 -6.5 7.25 C-6.38574008 2.33682325 -5.01749245 0.35839232 0 0 Z M-4.5 3.25 C-4.83333333 5.75 -4.83333333 5.75 -4.5 8.25 C-2.67296773 10.4991908 -2.67296773 10.4991908 0 10.5 C2.67296773 10.4991908 2.67296773 10.4991908 4.5 8.25 C4.83333333 5.75 4.83333333 5.75 4.5 3.25 C2.67296773 1.0008092 2.67296773 1.0008092 0 1 C-2.67296773 1.0008092 -2.67296773 1.0008092 -4.5 3.25 Z " fill="#47A6F4" transform="translate(28.5,48.75)"/>
<path d="M0 0 C0.66 0 1.32 0 2 0 C2.33 0.66 2.66 1.32 3 2 C3.99 2.33 4.98 2.66 6 3 C5.67 4.32 5.34 5.64 5 7 C1.04 7 -2.92 7 -7 7 C-7 5.35 -7 3.7 -7 2 C-4.69 2 -2.38 2 0 2 C0 1.34 0 0.68 0 0 Z " fill="#A6A2A9" transform="translate(439,66)"/>
<path d="M0 0 C1.155 0.185625 2.31 0.37125 3.5 0.5625 C7.86389648 1.1235724 11.66733065 0.69632186 16 0 C16 1.98 16 3.96 16 6 C13.5625 5.625 13.5625 5.625 11 5 C10.67 4.34 10.34 3.68 10 3 C9.01 4.485 9.01 4.485 8 6 C8 5.34 8 4.68 8 4 C7.4225 4.165 6.845 4.33 6.25 4.5 C4 5 4 5 0 5 C0 3.35 0 1.7 0 0 Z " fill="#D3D0D5" transform="translate(22,185)"/>
<path d="M0 0 C3.63 0 7.26 0 11 0 C11.09765625 7.71484375 11.09765625 7.71484375 11 10 C10 11 10 11 7.71484375 11.09765625 C5.14322917 11.06510417 2.57161458 11.03255208 0 11 C0 7.37 0 3.74 0 0 Z M1 1 C1 3.64 1 6.28 1 9 C3.64 9 6.28 9 9 9 C9 6.36 9 3.72 9 1 C6.36 1 3.72 1 1 1 Z " fill="#67636D" transform="translate(715,162)"/>
<path d="M0 0 C3.63 0 7.26 0 11 0 C11.09765625 7.71484375 11.09765625 7.71484375 11 10 C10 11 10 11 7.71484375 11.09765625 C5.14322917 11.06510417 2.57161458 11.03255208 0 11 C0 7.37 0 3.74 0 0 Z M1 1 C1 3.64 1 6.28 1 9 C3.64 9 6.28 9 9 9 C9 6.36 9 3.72 9 1 C6.36 1 3.72 1 1 1 Z " fill="#68646E" transform="translate(715,133)"/>
<path d="M0 0 C4.33333333 0 8.66666667 0 13 0 C13 1.65 13 3.3 13 5 C8.71 5 4.42 5 0 5 C0 3.35 0 1.7 0 0 Z " fill="#B6B2B8" transform="translate(429,220)"/>
<path d="M0 0 C4.29 0 8.58 0 13 0 C12.01 0.495 12.01 0.495 11 1 C10.67 2.32 10.34 3.64 10 5 C6.7 5 3.4 5 0 5 C-0.33 4.01 -0.66 3.02 -1 2 C-0.67 1.34 -0.34 0.68 0 0 Z " fill="#CFCCD0" transform="translate(74,175)"/>
<path d="M0 0 C4.29 0 8.58 0 13 0 C12.01 0.495 12.01 0.495 11 1 C10.34786708 3.02463255 10.34786708 3.02463255 10 5 C8.54257537 5.08096803 7.08387193 5.13917774 5.625 5.1875 C4.81289062 5.22230469 4.00078125 5.25710937 3.1640625 5.29296875 C2.44992188 5.19628906 1.73578125 5.09960938 1 5 C0.34 4.01 -0.32 3.02 -1 2 C-0.67 1.34 -0.34 0.68 0 0 Z " fill="#C9C6CA" transform="translate(65,78)"/>
<path d="M0 0 C0.33 0.66 0.66 1.32 1 2 C1.66 2.33 2.32 2.66 3 3 C2.34 3 1.68 3 1 3 C1 4.65 1 6.3 1 8 C-0.32 8 -1.64 8 -3 8 C-3 6.35 -3 4.7 -3 3 C-3.66 3 -4.32 3 -5 3 C-5 4.32 -5 5.64 -5 7 C-5.66 7 -6.32 7 -7 7 C-7 5.35 -7 3.7 -7 2 C-7.99 2.33 -8.98 2.66 -10 3 C-10 2.34 -10 1.68 -10 1 C-2.25 0.875 -2.25 0.875 0 2 C0 1.34 0 0.68 0 0 Z " fill="#838086" transform="translate(424,143)"/>
<path d="M0 0 C1.1446875 0.495 1.1446875 0.495 2.3125 1 C4.99069135 2.17436686 4.99069135 2.17436686 8 2 C7.67 3.65 7.34 5.3 7 7 C4.66705225 7.04241723 2.33297433 7.04092937 0 7 C-1 6 -1 6 -1.125 3.5 C-1 1 -1 1 0 0 Z " fill="#DCD8DE" transform="translate(23,76)"/>
<path d="M0 0 C0.59167969 0.0721875 1.18335937 0.144375 1.79296875 0.21875 C5.88261722 0.69910023 9.8738531 1.13310151 14 1 C13.67 2.32 13.34 3.64 13 5 C9.04 5 5.08 5 1 5 C0.67 3.35 0.34 1.7 0 0 Z " fill="#5BAFF4" transform="translate(88,29)"/>
<path d="M0 0 C0 1.98 0 3.96 0 6 C-2.4375 5.625 -2.4375 5.625 -5 5 C-5.33 4.34 -5.66 3.68 -6 3 C-6.66 3.66 -7.32 4.32 -8 5 C-9.32 5 -10.64 5 -12 5 C-12.33 3.68 -12.66 2.36 -13 1 C-11.95199219 1.01740234 -11.95199219 1.01740234 -10.8828125 1.03515625 C-9.97273438 1.04417969 -9.06265625 1.05320312 -8.125 1.0625 C-6.76761719 1.07990234 -6.76761719 1.07990234 -5.3828125 1.09765625 C-3.28976216 1.0118755 -1.93581538 0 0 0 Z " fill="#CECBD0" transform="translate(38,88)"/>
<path d="M0 0 C0.33 1.65 0.66 3.3 1 5 C-2.3 5 -5.6 5 -9 5 C-9.33 3.68 -9.66 2.36 -10 1 C-6.61981469 -0.04005702 -3.5219721 -0.08004482 0 0 Z " fill="#AD9ECD" transform="translate(740,483)"/>
<path d="M0 0 C1.8125 0.375 1.8125 0.375 4 1 C4.7425 1.185625 5.485 1.37125 6.25 1.5625 C6.8275 1.706875 7.405 1.85125 8 2 C8 3.32 8 4.64 8 6 C1.25 7.125 1.25 7.125 -1 6 C-1.042721 4.33388095 -1.04063832 2.66617115 -1 1 C-0.67 0.67 -0.34 0.34 0 0 Z " fill="#AFABB2" transform="translate(573,113)"/>
<path d="M0 0 C2.31 0 4.62 0 7 0 C7.33 1.32 7.66 2.64 8 4 C3.56923077 6.09230769 3.56923077 6.09230769 0.6875 5.625 C0.130625 5.41875 -0.42625 5.2125 -1 5 C-0.67 3.35 -0.34 1.7 0 0 Z " fill="#B5B2B8" transform="translate(420,220)"/>
<path d="M0 0 C1.134375 0.020625 2.26875 0.04125 3.4375 0.0625 C3.1075 2.0425 2.7775 4.0225 2.4375 6.0625 C0.4575 6.0625 -1.5225 6.0625 -3.5625 6.0625 C-3.94468767 4.40635343 -4.27645102 2.73792976 -4.5625 1.0625 C-3.5625 0.0625 -3.5625 0.0625 0 0 Z " fill="#ACA7B0" transform="translate(588.5625,34.9375)"/>
<path d="M0 0 C0.66 0.66 1.32 1.32 2 2 C2.66 2 3.32 2 4 2 C4 3.32 4 4.64 4 6 C2.00045254 6.04254356 -0.00041636 6.04080783 -2 6 C-2.33 5.67 -2.66 5.34 -3 5 C-3.99 5.33 -4.98 5.66 -6 6 C-5.67 4.35 -5.34 2.7 -5 1 C-2 0 -2 0 0 0 Z " fill="#9E9BA0" transform="translate(392,219)"/>
<path d="M0 0 C2.0625 0.4375 2.0625 0.4375 4 1 C5.125 4.75 5.125 4.75 4 7 C2.35 6.67 0.7 6.34 -1 6 C-1.042721 4.33388095 -1.04063832 2.66617115 -1 1 C-0.67 0.67 -0.34 0.34 0 0 Z " fill="#A8A4AB" transform="translate(583,192)"/>
<path d="M0 0 C3.63 0 7.26 0 11 0 C10.34 1.32 9.68 2.64 9 4 C6.03 4 3.06 4 0 4 C0 2.68 0 1.36 0 0 Z " fill="#9F9BA2" transform="translate(587,115)"/>
<path d="M0 0 C2.64 0 5.28 0 8 0 C8 1.65 8 3.3 8 5 C4.88742431 5 2.89234315 4.82638376 0 4 C0 2.68 0 1.36 0 0 Z " fill="#D0CDD1" transform="translate(37,41)"/>
<path d="M0 0 C0.598125 0.165 1.19625 0.33 1.8125 0.5 C4.11344336 1.1114124 4.11344336 1.1114124 7 1 C6.67 2.65 6.34 4.3 6 6 C3.69 5.67 1.38 5.34 -1 5 C-0.67 3.35 -0.34 1.7 0 0 Z " fill="#9D9AA0" transform="translate(430,145)"/>
<path d="M0 0 C0.66 0 1.32 0 2 0 C2 2.64 2 5.28 2 8 C0.35 7.67 -1.3 7.34 -3 7 C-2.67 5.35 -2.34 3.7 -2 2 C-1.34 2 -0.68 2 0 2 C0 1.34 0 0.68 0 0 Z " fill="#B6B2BB" transform="translate(421,183)"/>
<path d="M0 0 C0.66 0 1.32 0 2 0 C2 0.66 2 1.32 2 2 C2.66 2 3.32 2 4 2 C3.67 3.32 3.34 4.64 3 6 C0.69 6 -1.62 6 -4 6 C-3.67 4.68 -3.34 3.36 -3 2 C-2.01 2 -1.02 2 0 2 C0 1.34 0 0.68 0 0 Z " fill="#CCCACE" transform="translate(31,125)"/>
<path d="M0 0 C3.33333333 0 6.66666667 0 10 0 C10 1.65 10 3.3 10 5 C8.68 4.01 7.36 3.02 6 2 C5.5875 2.515625 5.175 3.03125 4.75 3.5625 C4.1725 4.036875 3.595 4.51125 3 5 C0.8125 4.6875 0.8125 4.6875 -1 4 C-0.67 2.68 -0.34 1.36 0 0 Z " fill="#C9C7CB" transform="translate(41,78)"/>
<path d="M0 0 C2.475 0.495 2.475 0.495 5 1 C5 2.65 5 4.3 5 6 C3.35 6.33 1.7 6.66 0 7 C0 4.69 0 2.38 0 0 Z " fill="#A6A2AB" transform="translate(183,67)"/>
<path d="M0 0 C1.98 0.66 3.96 1.32 6 2 C5.67 3.32 5.34 4.64 5 6 C3.35 6.33 1.7 6.66 0 7 C0 4.69 0 2.38 0 0 Z " fill="#76BAF5" transform="translate(58,28)"/>
<path d="M0 0 C0 2.31 0 4.62 0 7 C-1.65 6.67 -3.3 6.34 -5 6 C-4.625 3.5625 -4.625 3.5625 -4 1 C-2 0 -2 0 0 0 Z " fill="#B0ACB5" transform="translate(194,101)"/>
<path d="M0 0 C2.64 0 5.28 0 8 0 C8 1.32 8 2.64 8 4 C5.36 4 2.72 4 0 4 C0 2.68 0 1.36 0 0 Z " fill="#6CB6F5" transform="translate(35,30)"/>
<path d="M0 0 C0.33 0 0.66 0 1 0 C1.33 2.64 1.66 5.28 2 8 C3.32 8 4.64 8 6 8 C6 9.32 6 10.64 6 12 C4.02 12 2.04 12 0 12 C0 8.04 0 4.08 0 0 Z " fill="#A40101" transform="translate(585,72)"/>
<path d="M0 0 C2.97 0.495 2.97 0.495 6 1 C6 2.65 6 4.3 6 6 C4.02 6 2.04 6 0 6 C0 4.02 0 2.04 0 0 Z " fill="#D3D0D5" transform="translate(63,174)"/>
<path d="M0 0 C0.66 0 1.32 0 2 0 C2 1.98 2 3.96 2 6 C0.02 6 -1.96 6 -4 6 C-4 4.68 -4 3.36 -4 2 C-2.68 2 -1.36 2 0 2 C0 1.34 0 0.68 0 0 Z " fill="#66B3F5" transform="translate(53,28)"/>
<path d="M0 0 C1.98 0 3.96 0 6 0 C6 1.98 6 3.96 6 6 C4.02 6 2.04 6 0 6 C0 4.02 0 2.04 0 0 Z " fill="#CAC7CB" transform="translate(37,174)"/>
<path d="M0 0 C1.98 0.66 3.96 1.32 6 2 C6 3.32 6 4.64 6 6 C4.02 6 2.04 6 0 6 C0 4.02 0 2.04 0 0 Z " fill="#CDCACE" transform="translate(43,125)"/>
<path d="M0 0 C0.33 0 0.66 0 1 0 C1 2.31 1 4.62 1 7 C-0.32 7.33 -1.64 7.66 -3 8 C-3.33 6.35 -3.66 4.7 -4 3 C-3.01 2.67 -2.02 2.34 -1 2 C-0.67 1.34 -0.34 0.68 0 0 Z " fill="#B3AFB7" transform="translate(416,183)"/>
<path d="M0 0 C0.66 0 1.32 0 2 0 C2.66 0.99 3.32 1.98 4 3 C4.99 3 5.98 3 7 3 C7 4.32 7 5.64 7 7 C4.69 7 2.38 7 0 7 C0 4.69 0 2.38 0 0 Z " fill="#858188" transform="translate(607,163)"/>
<path d="M0 0 C0.99 0.33 1.98 0.66 3 1 C2.67 1.33 2.34 1.66 2 2 C3.98 2 5.96 2 8 2 C8 3.32 8 4.64 8 6 C5.36 6 2.72 6 0 6 C0 4 0 2 0 0 Z " fill="#878488" transform="translate(186,136)"/>
<path d="M0 0 C1.98 0.495 1.98 0.495 4 1 C3.67 2.65 3.34 4.3 3 6 C1.68 5.67 0.36 5.34 -1 5 C-0.67 3.35 -0.34 1.7 0 0 Z " fill="#D9726A" transform="translate(587,75)"/>
<path d="M0 0 C0.33 0.66 0.66 1.32 1 2 C2.32 1.67 3.64 1.34 5 1 C5.33 1.99 5.66 2.98 6 4 C5.01 4 4.02 4 3 4 C2.67 4.66 2.34 5.32 2 6 C1.34 5.67 0.68 5.34 0 5 C-0.66 5.66 -1.32 6.32 -2 7 C-1.125 1.125 -1.125 1.125 0 0 Z " fill="#96929B" transform="translate(577,34)"/>
<path d="M0 0 C0.66 0 1.32 0 2 0 C2 0.66 2 1.32 2 2 C3.32 2 4.64 2 6 2 C6 3.32 6 4.64 6 6 C5.38125 5.814375 4.7625 5.62875 4.125 5.4375 C1.95839822 4.76313824 1.95839822 4.76313824 0 6 C-0.38218767 4.34385343 -0.71395102 2.67542976 -1 1 C-0.67 0.67 -0.34 0.34 0 0 Z " fill="#65B3F5" transform="translate(66,28)"/>
<path d="M0 0 C-0.66 0 -1.32 0 -2 0 C-1.34 1.32 -0.68 2.64 0 4 C-2.31 4 -4.62 4 -7 4 C-7.33 2.68 -7.66 1.36 -8 0 C-4.71303767 -0.79953138 -3.28976808 -1.09658936 0 0 Z " fill="#97939A" transform="translate(397,69)"/>
<path d="M0 0 C1.67542976 0.28604898 3.34385343 0.61781233 5 1 C4.67 2.32 4.34 3.64 4 5 C3.38125 4.79375 2.7625 4.5875 2.125 4.375 C1.42375 4.25125 0.7225 4.1275 0 4 C-0.66 4.66 -1.32 5.32 -2 6 C-1.125 1.125 -1.125 1.125 0 0 Z " fill="#98959B" transform="translate(406,68)"/>
<path d="M0 0 C1.65 0 3.3 0 5 0 C5 1.65 5 3.3 5 5 C3.35 5 1.7 5 0 5 C0 3.35 0 1.7 0 0 Z " fill="#2A99F3" transform="translate(26,52)"/>
<path d="M0 0 C2.31 0 4.62 0 7 0 C6.67 1.32 6.34 2.64 6 4 C4.02 4 2.04 4 0 4 C0 2.68 0 1.36 0 0 Z " fill="#5EB0F5" transform="translate(27,30)"/>
<path d="M0 0 C1.32 0.66 2.64 1.32 4 2 C4 3.32 4 4.64 4 6 C2.35 5.67 0.7 5.34 -1 5 C-0.67 3.35 -0.34 1.7 0 0 Z " fill="#ADA8B1" transform="translate(408,35)"/>
<path d="M0 0 C1.32 0.66 2.64 1.32 4 2 C4 3.32 4 4.64 4 6 C2.35 5.67 0.7 5.34 -1 5 C-0.67 3.35 -0.34 1.7 0 0 Z " fill="#ADA8B1" transform="translate(384,35)"/>
<path d="M0 0 C0.99 0 1.98 0 3 0 C3 1.98 3 3.96 3 6 C1.35 5.67 -0.3 5.34 -2 5 C-1.125 1.125 -1.125 1.125 0 0 Z " fill="#CAC8CC" transform="translate(45,186)"/>
<path d="M0 0 C0.99 0 1.98 0 3 0 C3 0.66 3 1.32 3 2 C3.99 2 4.98 2 6 2 C5.67 3.32 5.34 4.64 5 6 C5 5.01 5 4.02 5 3 C4.34 3 3.68 3 3 3 C3.33 3.99 3.66 4.98 4 6 C2.68 6 1.36 6 0 6 C0 4.02 0 2.04 0 0 Z " fill="#96939A" transform="translate(599,113)"/>
<path d="M0 0 C0 2.31 0 4.62 0 7 C-1.32 6.67 -2.64 6.34 -4 6 C-3.625 3.5625 -3.625 3.5625 -3 1 C-1 0 -1 0 0 0 Z " fill="#9B96A0" transform="translate(199,101)"/>
<path d="M0 0 C0.99 0 1.98 0 3 0 C3.33 0.66 3.66 1.32 4 2 C4.66 1.67 5.32 1.34 6 1 C6 2.32 6 3.64 6 5 C3.625 5.1875 3.625 5.1875 1 5 C0.34 4.01 -0.32 3.02 -1 2 C-0.67 1.34 -0.34 0.68 0 0 Z " fill="#D7D3D9" transform="translate(65,78)"/>
<path d="M0 0 C1.98 0.495 1.98 0.495 4 1 C3.67 2.98 3.34 4.96 3 7 C2.01 6.67 1.02 6.34 0 6 C0 5.34 0 4.68 0 4 C-0.33 3.34 -0.66 2.68 -1 2 C-0.67 1.34 -0.34 0.68 0 0 Z " fill="#97939A" transform="translate(612,74)"/>
<path d="M0 0 C2.31 0.33 4.62 0.66 7 1 C6.67 1.99 6.34 2.98 6 4 C4.02 4.33 2.04 4.66 0 5 C0 3.35 0 1.7 0 0 Z " fill="#B4B0B7" transform="translate(432,68)"/>
<path d="M0 0 C0 1.65 0 3.3 0 5 C-2.64 5 -5.28 5 -8 5 C-3.16129032 0 -3.16129032 0 0 0 Z " fill="#A5A2A7" transform="translate(442,220)"/>
<path d="M0 0 C0.33 0.66 0.66 1.32 1 2 C1.66 2.33 2.32 2.66 3 3 C2.34 3 1.68 3 1 3 C1 4.65 1 6.3 1 8 C0.01 8 -0.98 8 -2 8 C-2 6.02 -2 4.04 -2 2 C-1.34 2 -0.68 2 0 2 C0 1.34 0 0.68 0 0 Z " fill="#B4B0B7" transform="translate(424,143)"/>
<path d="M0 0 C1.65 0 3.3 0 5 0 C5.33 1.32 5.66 2.64 6 4 C3.69 4 1.38 4 -1 4 C-0.67 2.68 -0.34 1.36 0 0 Z " fill="#97939A" transform="translate(630,115)"/>
<path d="M0 0 C2.475 0.495 2.475 0.495 5 1 C5 1.99 5 2.98 5 4 C3.68 4 2.36 4 1 4 C0.67 4.99 0.34 5.98 0 7 C0 4.69 0 2.38 0 0 Z " fill="#837E88" transform="translate(661,74)"/>
<path d="M0 0 C0.99 0 1.98 0 3 0 C3.33 1.32 3.66 2.64 4 4 C2.02 4.99 2.02 4.99 0 6 C-0.38218767 4.34385343 -0.71395102 2.67542976 -1 1 C-0.67 0.67 -0.34 0.34 0 0 Z " fill="#A39EA7" transform="translate(393,185)"/>
<path d="M0 0 C0.33 0.99 0.66 1.98 1 3 C2.65 2.67 4.3 2.34 6 2 C6 3.32 6 4.64 6 6 C4.02 6 2.04 6 0 6 C0 4.02 0 2.04 0 0 Z " fill="#979499" transform="translate(195,136)"/>
<path d="M0 0 C2.05078125 0.03255208 4.1015625 0.06510417 6.15234375 0.09765625 C5.16234375 0.59265625 5.16234375 0.59265625 4.15234375 1.09765625 C3.82234375 2.08765625 3.49234375 3.07765625 3.15234375 4.09765625 C1.83234375 4.09765625 0.51234375 4.09765625 -0.84765625 4.09765625 C-0.84765625 3.43765625 -0.84765625 2.77765625 -0.84765625 2.09765625 C-1.50765625 1.76765625 -2.16765625 1.43765625 -2.84765625 1.09765625 C-1.84765625 0.09765625 -1.84765625 0.09765625 0 0 Z " fill="#C2C0C3" transform="translate(26.84765625,137.90234375)"/>
<path d="M0 0 C0.99 0.33 1.98 0.66 3 1 C3 2.65 3 4.3 3 6 C1.68 5.67 0.36 5.34 -1 5 C-0.67 3.35 -0.34 1.7 0 0 Z " fill="#9D99A0" transform="translate(420,116)"/>
<path d="M0 0 C0.99 0.33 1.98 0.66 3 1 C3 2.65 3 4.3 3 6 C1.68 5.67 0.36 5.34 -1 5 C-0.67 3.35 -0.34 1.7 0 0 Z " fill="#9B979E" transform="translate(442,116)"/>
<path d="M0 0 C2.0625 0.4375 2.0625 0.4375 4 1 C4 2.65 4 4.3 4 6 C2.68 5.67 1.36 5.34 0 5 C-0.5625 3.0625 -0.5625 3.0625 -1 1 C-0.67 0.67 -0.34 0.34 0 0 Z " fill="#CAC8CC" transform="translate(85,77)"/>
<path d="M0 0 C0.33 0.66 0.66 1.32 1 2 C1.99 2 2.98 2 4 2 C3.67 3.65 3.34 5.3 3 7 C2.01 7 1.02 7 0 7 C0 4.69 0 2.38 0 0 Z " fill="#8F8A94" transform="translate(714,74)"/>
<path d="M0 0 C0.99 0 1.98 0 3 0 C3 1.98 3 3.96 3 6 C2.01 6 1.02 6 0 6 C-0.38218767 4.34385343 -0.71395102 2.67542976 -1 1 C-0.67 0.67 -0.34 0.34 0 0 Z " fill="#918E94" transform="translate(423,68)"/>
<path d="M0 0 C-0.33 1.32 -0.66 2.64 -1 4 C-2.65 3.67 -4.3 3.34 -6 3 C-6 2.01 -6 1.02 -6 0 C-2.25 -1.125 -2.25 -1.125 0 0 Z " fill="#C0B4D9" transform="translate(736,484)"/>
<path d="M0 0 C3.26954202 0.56371414 4.82575883 1.49962266 7 4 C4 5 4 5 0 5 C0 3.35 0 1.7 0 0 Z " fill="#C2C0C4" transform="translate(22,185)"/>
<path d="M0 0 C3 1 3 1 4.1875 3.0625 C4.455625 3.701875 4.72375 4.34125 5 5 C3.35 5.33 1.7 5.66 0 6 C0 4.02 0 2.04 0 0 Z " fill="#7C797F" transform="translate(582,135)"/>
<path d="M0 0 C0.99 0.33 1.98 0.66 3 1 C3 2.65 3 4.3 3 6 C1.68 5.67 0.36 5.34 -1 5 C-0.67 3.35 -0.34 1.7 0 0 Z " fill="#8A868D" transform="translate(434,116)"/>
<path d="M0 0 C1.5625 1.8125 1.5625 1.8125 3 4 C2.67 4.99 2.34 5.98 2 7 C2 6.34 2 5.68 2 5 C1.01 5 0.02 5 -1 5 C-1 5.66 -1 6.32 -1 7 C-1.66 6.67 -2.32 6.34 -3 6 C-2.01 4.02 -1.02 2.04 0 0 Z " fill="#85818A" transform="translate(185,101)"/>
<path d="M0 0 C1.32 0 2.64 0 4 0 C4 1.98 4 3.96 4 6 C3.01 6 2.02 6 1 6 C1 4.68 1 3.36 1 2 C0.34 2.66 -0.32 3.32 -1 4 C-0.67 2.68 -0.34 1.36 0 0 Z " fill="#98949D" transform="translate(190,35)"/>
<path d="M0 0 C0 1.98 0 3.96 0 6 C-1.32 5.67 -2.64 5.34 -4 5 C-3.625 3.0625 -3.625 3.0625 -3 1 C-1 0 -1 0 0 0 Z " fill="#C4C2C5" transform="translate(31,174)"/>
<path d="M0 0 C0 1.98 0 3.96 0 6 C-1.32 5.34 -2.64 4.68 -4 4 C-4 3.01 -4 2.02 -4 1 C-2 0 -2 0 0 0 Z " fill="#CAC6CD" transform="translate(417,145)"/>
<path d="M0 0 C0 1.65 0 3.3 0 5 C-1.65 5 -3.3 5 -5 5 C-5 4.01 -5 3.02 -5 2 C-1.125 0 -1.125 0 0 0 Z " fill="#CCC9CD" transform="translate(38,137)"/>
<path d="M0 0 C1.98 0 3.96 0 6 0 C5.01 0.495 5.01 0.495 4 1 C4 1.66 4 2.32 4 3 C4.66 3.33 5.32 3.66 6 4 C4 4 2 4 0 4 C0 2.68 0 1.36 0 0 Z " fill="#CBC9CD" transform="translate(36,127)"/>
<path d="M0 0 C0 1.98 0 3.96 0 6 C-1.32 6 -2.64 6 -4 6 C-4 4.35 -4 2.7 -4 1 C-2 0 -2 0 0 0 Z " fill="#A09CA3" transform="translate(431,116)"/>
<path d="M0 0 C1.65 0 3.3 0 5 0 C4.01 0.33 3.02 0.66 2 1 C2 1.66 2 2.32 2 3 C2.66 3.33 3.32 3.66 4 4 C3.34 4 2.68 4 2 4 C2 4.99 2 5.98 2 7 C1.34 7 0.68 7 0 7 C0 4.69 0 2.38 0 0 Z " fill="#938F96" transform="translate(413,115)"/>
<path d="M0 0 C1.32 0 2.64 0 4 0 C4 1.65 4 3.3 4 5 C2.68 4.67 1.36 4.34 0 4 C0 2.68 0 1.36 0 0 Z " fill="#A09CA5" transform="translate(673,76)"/>
<path d="M0 0 C-0.33 1.32 -0.66 2.64 -1 4 C-3.97 3.505 -3.97 3.505 -7 3 C-7 2.34 -7 1.68 -7 1 C-4 0 -4 0 0 0 Z " fill="#66B4F5" transform="translate(102,30)"/>
<path d="M0 0 C0.99 0.33 1.98 0.66 3 1 C3 2.32 3 3.64 3 5 C1.68 5 0.36 5 -1 5 C-0.67 3.35 -0.34 1.7 0 0 Z " fill="#A19EA3" transform="translate(408,220)"/>
<path d="M0 0 C0.66 0.33 1.32 0.66 2 1 C2.625 3.5625 2.625 3.5625 3 6 C1.35 6 -0.3 6 -2 6 C-1.125 1.125 -1.125 1.125 0 0 Z " fill="#847F89" transform="translate(408,184)"/>
<path d="M0 0 C0 1.65 0 3.3 0 5 C-1.65 4.67 -3.3 4.34 -5 4 C-5 3.01 -5 2.02 -5 1 C-3 0 -3 0 0 0 Z " fill="#C2C0C3" transform="translate(48,138)"/>
<path d="M0 0 C2.0625 0.4375 2.0625 0.4375 4 1 C4 2.32 4 3.64 4 5 C2.68 5 1.36 5 0 5 C-0.5625 3.0625 -0.5625 3.0625 -1 1 C-0.67 0.67 -0.34 0.34 0 0 Z " fill="#CDCBD0" transform="translate(83,126)"/>
<path d="M0 0 C1.32 0 2.64 0 4 0 C4 1.65 4 3.3 4 5 C2.68 4.67 1.36 4.34 0 4 C0 2.68 0 1.36 0 0 Z " fill="#A39FA8" transform="translate(204,103)"/>
<path d="M0 0 C0.99 0.33 1.98 0.66 3 1 C2.67 2.65 2.34 4.3 2 6 C1.01 6 0.02 6 -1 6 C-1.042721 4.33388095 -1.04063832 2.66617115 -1 1 C-0.67 0.67 -0.34 0.34 0 0 Z " fill="#A4A0A9" transform="translate(216,102)"/>
<path d="M0 0 C1.32 0.33 2.64 0.66 4 1 C4 2.32 4 3.64 4 5 C2.68 4.67 1.36 4.34 0 4 C0 2.68 0 1.36 0 0 Z " fill="#CDCACE" transform="translate(80,78)"/>
<path d="M0 0 C0.66 0 1.32 0 2 0 C2.66 1.65 3.32 3.3 4 5 C2.02 5.99 2.02 5.99 0 7 C0 4.69 0 2.38 0 0 Z " fill="#97929C" transform="translate(692,74)"/>
<path d="M0 0 C1.98 0.495 1.98 0.495 4 1 C3.67 2.32 3.34 3.64 3 5 C1.68 4.67 0.36 4.34 -1 4 C-0.67 2.68 -0.34 1.36 0 0 Z " fill="#938F98" transform="translate(720,76)"/>
<path d="M0 0 C0.99 0.33 1.98 0.66 3 1 C2.67 2.65 2.34 4.3 2 6 C1.01 6 0.02 6 -1 6 C-1.042721 4.33388095 -1.04063832 2.66617115 -1 1 C-0.67 0.67 -0.34 0.34 0 0 Z " fill="#A19DA6" transform="translate(390,35)"/>
<path d="M0 0 C1.5625 1.8125 1.5625 1.8125 3 4 C2.67 4.99 2.34 5.98 2 7 C2 6.34 2 5.68 2 5 C0.68 5.33 -0.64 5.66 -2 6 C-1.125 1.125 -1.125 1.125 0 0 Z " fill="#827E87" transform="translate(185,34)"/>
<path d="M0 0 C1.32 0 2.64 0 4 0 C4 1.32 4 2.64 4 4 C3.01 4 2.02 4 1 4 C0.67 4.66 0.34 5.32 0 6 C0 4.02 0 2.04 0 0 Z " fill="#57ADF4" transform="translate(22,28)"/>
<path d="M0 0 C1.9375 0.75 1.9375 0.75 4 2 C4.75 4.125 4.75 4.125 5 6 C3.35 6 1.7 6 0 6 C0 4.02 0 2.04 0 0 Z " fill="#949196" transform="translate(391,219)"/>
<path d="M0 0 C0.99 0.33 1.98 0.66 3 1 C3 2.32 3 3.64 3 5 C1.68 4.67 0.36 4.34 -1 4 C-0.67 2.68 -0.34 1.36 0 0 Z " fill="#CBC8CC" transform="translate(90,175)"/>
<path d="M0 0 C0.99 0.33 1.98 0.66 3 1 C3 2.32 3 3.64 3 5 C1.68 4.67 0.36 4.34 -1 4 C-0.67 2.68 -0.34 1.36 0 0 Z " fill="#C6C4C7" transform="translate(55,175)"/>
<path d="M0 0 C0.99 0 1.98 0 3 0 C2.67 1.65 2.34 3.3 2 5 C1.01 4.67 0.02 4.34 -1 4 C-0.67 2.68 -0.34 1.36 0 0 Z " fill="#CECBD0" transform="translate(28,78)"/>
<path d="M0 0 C0.33 0.66 0.66 1.32 1 2 C2.65 2 4.3 2 6 2 C6 2.66 6 3.32 6 4 C4.02 4.33 2.04 4.66 0 5 C0 4.34 0 3.68 0 3 C-0.66 2.67 -1.32 2.34 -2 2 C-1.34 2 -0.68 2 0 2 C0 1.34 0 0.68 0 0 Z " fill="#838086" transform="translate(380,67)"/>
<path d="M0 0 C0.99 0.33 1.98 0.66 3 1 C3 1.99 3 2.98 3 4 C0.69 4 -1.62 4 -4 4 C-2.68 2.68 -1.36 1.36 0 0 Z " fill="#C7C5C8" transform="translate(56,41)"/>
</svg>
