<svg version="1.1" id="Layer_1" xmlns="http://www.w3.org/2000/svg" xmlns:xlink="http://www.w3.org/1999/xlink" x="0px" y="0px"
	 width="100%" viewBox="0 0 752 560" enable-background="new 0 0 752 560" xml:space="preserve">
<path fill="#000000" opacity="1.000000" stroke="none" 
	d="
M293.716187,348.833679 
	C286.179840,351.691803 278.892883,354.012878 271.202515,354.716492 
	C245.141281,357.101013 219.527039,344.219604 217.755615,312.337555 
	C217.223389,302.758850 217.484131,293.391693 221.308472,284.458435 
	C227.872070,269.126617 240.070679,260.969543 256.072754,258.515656 
	C269.861786,256.401062 283.262146,258.460480 295.990784,264.428619 
	C298.696259,265.697174 300.260254,267.463013 300.134888,270.558838 
	C300.054077,272.554749 300.147339,274.557129 300.096375,276.554932 
	C300.054596,278.192383 300.412842,280.117584 298.783722,281.135437 
	C296.761261,282.398987 295.415375,280.537048 293.951904,279.586060 
	C282.503540,272.146729 270.239807,268.640930 256.507080,271.262634 
	C245.469406,273.369781 238.188522,279.857910 234.604401,290.197998 
	C230.473068,302.116821 230.875626,314.095123 236.058197,325.728363 
	C240.229156,335.090790 248.029099,340.107361 257.659851,341.617920 
	C265.864624,342.904846 274.272064,342.474243 282.391663,339.959106 
	C284.900208,339.182037 286.385773,337.902618 286.247528,334.986572 
	C286.042572,330.664185 285.922699,326.319427 286.131348,322.001831 
	C286.284241,318.837891 285.007507,317.922241 282.067230,317.994049 
	C277.073547,318.116089 272.072388,317.903137 267.076660,317.979889 
	C262.299011,318.053253 261.767975,315.123657 261.956757,311.362427 
	C262.133789,307.834686 262.229004,304.631073 267.183899,304.709534 
	C276.510254,304.857300 285.841614,304.814606 295.169067,304.701630 
	C298.595184,304.660126 300.082855,306.236145 300.087646,309.477997 
	C300.103851,320.472412 300.011932,331.467804 300.139496,342.460754 
	C300.189728,346.785889 296.817108,347.312866 293.716187,348.833679 
z"/>
<path fill="#000000" opacity="1.000000" stroke="none" 
	d="
M331.052612,353.164337 
	C319.974030,353.132935 319.845642,354.480957 319.876740,342.671692 
	C319.942963,317.524933 319.884460,292.377899 319.890869,267.230957 
	C319.892609,260.483093 320.321594,259.998962 326.823151,259.982117 
	C342.810547,259.940613 358.798157,259.931702 374.785553,259.966248 
	C380.976074,259.979614 381.864380,260.827728 381.897339,266.184784 
	C381.932953,271.972382 380.852936,273.123871 374.880157,273.152100 
	C363.056427,273.208038 351.230286,273.294647 339.409363,273.104401 
	C335.298096,273.038239 333.623322,274.443390 333.926025,278.598419 
	C334.179504,282.077667 334.197632,285.604156 333.945496,289.082642 
	C333.617279,293.610718 335.352722,295.272919 339.964844,295.174591 
	C351.783325,294.922699 363.610474,295.085602 375.434082,295.058105 
	C379.546661,295.048553 382.058411,296.453308 382.018066,301.150421 
	C381.966980,307.095215 381.200043,308.109772 375.163757,308.124054 
	C363.339813,308.152069 351.513092,308.254883 339.693024,308.034241 
	C335.383270,307.953827 333.699677,309.368073 333.877472,313.773041 
	C334.159393,320.756927 334.119232,327.762177 333.955719,334.752319 
	C333.865295,338.619446 335.331635,340.051849 339.225067,340.000153 
	C351.213501,339.840973 363.205688,339.908752 375.195984,339.973358 
	C381.099182,340.005157 382.003448,340.979279 381.924408,346.569641 
	C381.847260,352.028473 380.762512,353.133514 375.009216,353.150208 
	C360.520599,353.192261 346.031738,353.164490 331.052612,353.164337 
z"/>
<path fill="#000000" opacity="1.000000" stroke="none" 
	d="
M128.259460,288.259399 
	C116.223579,300.289734 104.345505,311.980713 92.728462,323.925537 
	C89.472389,327.273468 87.206367,327.183441 84.152893,323.865936 
	C79.982834,319.335327 75.543434,315.042572 71.071533,310.803925 
	C68.753120,308.606445 68.634758,306.753784 70.907722,304.506714 
	C90.339546,285.296387 109.737549,266.051880 129.157211,246.829239 
	C130.484299,245.515610 131.986221,244.582352 134.003799,244.616638 
	C143.825241,244.783630 153.639328,243.317184 163.463348,244.446899 
	C165.317413,244.660110 167.949768,243.589584 168.680954,246.121185 
	C169.323242,248.344986 166.971420,249.540634 165.622177,250.897079 
	C153.284271,263.300720 140.892258,275.650574 128.259460,288.259399 
z"/>
<path fill="#000000" opacity="1.000000" stroke="none" 
	d="
M162.886063,310.881958 
	C155.551468,318.170410 148.603577,325.355591 141.310974,332.171997 
	C138.271454,335.013031 138.118851,336.841309 141.157455,339.763306 
	C149.794510,348.068787 158.183411,356.632812 166.642120,365.122833 
	C168.005981,366.491760 169.795197,367.697968 169.419586,369.994751 
	C168.371185,371.718658 166.736084,371.345825 165.312195,371.346436 
	C155.323196,371.350708 145.333893,371.244019 135.345306,371.295319 
	C132.833557,371.308197 130.790405,370.546021 129.059692,368.815247 
	C119.061852,358.817139 109.102127,348.780609 99.049881,338.837585 
	C97.077080,336.886169 97.034492,335.293732 98.959282,333.389618 
	C108.895149,323.560516 118.789223,313.689148 128.733551,303.868652 
	C130.527893,302.096649 132.907166,301.991241 135.276871,301.986053 
	C144.267197,301.966339 153.257568,301.894379 162.247696,301.920441 
	C164.337814,301.926483 167.136948,301.086609 168.183563,303.361176 
	C169.448746,306.110779 166.197617,307.114532 164.888824,308.857574 
	C164.394241,309.516266 163.723892,310.042999 162.886063,310.881958 
z"/>
<path fill="#000000" opacity="1.000000" stroke="none" 
	d="
M433.266998,294.000488 
	C433.286865,311.828339 433.326599,329.156372 433.315186,346.484375 
	C433.311371,352.267731 432.290283,353.160828 426.090179,353.207764 
	C420.026642,353.253662 418.809723,352.217499 418.801636,346.472290 
	C418.770142,324.145813 418.697479,301.818298 418.896942,279.493469 
	C418.939117,274.776093 417.551147,272.885010 412.659973,273.121490 
	C405.844727,273.451050 399.001648,273.204926 392.170502,273.206848 
	C388.561127,273.207855 386.123688,272.349396 386.315521,267.805389 
	C386.615784,260.692963 386.769318,259.999359 392.144196,259.984650 
	C414.637085,259.923126 437.130493,260.022614 459.623199,259.932831 
	C463.981171,259.915466 466.129852,261.404846 465.951508,266.031555 
	C465.732361,271.717224 464.740356,273.067169 459.416260,273.140747 
	C452.752930,273.232849 446.076233,273.403442 439.426483,273.090424 
	C434.529816,272.859894 432.917236,274.804779 433.223999,279.509308 
	C433.526886,284.154266 433.275269,288.835419 433.266998,294.000488 
z"/>
<path fill="#000000" opacity="1.000000" stroke="none" 
	d="
M595.886108,265.135376 
	C595.752563,261.264435 597.559143,259.946960 600.812134,259.951263 
	C623.783630,259.981750 646.755066,259.987579 669.726562,259.966675 
	C673.870239,259.962921 675.225891,262.135651 675.079895,265.997101 
	C674.935791,269.809479 674.452087,273.134216 669.541565,273.142792 
	C662.550293,273.155029 655.545959,273.422638 648.572266,273.076233 
	C643.588562,272.828613 641.923218,274.449310 641.983643,279.561157 
	C642.243347,301.531036 642.114502,323.505554 642.127808,345.478363 
	C642.132019,352.394958 636.247498,356.027832 630.208557,352.730011 
	C627.531372,351.268036 627.983765,348.471680 627.979065,346.026184 
	C627.937683,324.219940 627.935852,302.413574 627.931763,280.607269 
	C627.930420,273.200409 627.942627,273.196350 620.548828,273.192627 
	C614.889221,273.189789 609.229553,273.207306 603.569946,273.200592 
	C596.243286,273.191864 596.040833,272.984558 595.886108,265.135376 
z"/>
<path fill="#000000" opacity="1.000000" stroke="none" 
	d="
M570.998901,353.183960 
	C566.002380,353.195831 561.501282,353.099030 557.008545,353.251434 
	C553.003052,353.387329 551.819031,351.332397 551.797485,347.697021 
	C551.776794,344.210754 552.571472,341.984833 556.667114,341.759674 
	C563.764099,341.369568 563.780884,341.217865 563.786926,333.955566 
	C563.802368,315.299164 563.662415,296.641174 563.884033,277.987396 
	C563.941040,273.190887 562.835266,270.611664 557.542358,271.295044 
	C553.488708,271.818420 551.854614,269.882324 551.833801,265.819946 
	C551.813843,261.920380 553.050415,259.891907 557.256409,259.947540 
	C566.249817,260.066528 575.246582,260.045593 584.240479,259.945221 
	C588.258240,259.900360 590.005310,261.638794 589.903198,265.659149 
	C589.805969,269.485992 588.415100,271.858398 584.236267,271.287750 
	C578.997925,270.572388 577.746399,273.001190 577.800964,277.852875 
	C578.018250,297.173248 577.983398,316.497925 577.848999,335.819672 
	C577.818481,340.205109 579.051575,342.413239 583.826965,341.863251 
	C587.918762,341.391937 590.007874,343.249023 589.929565,347.624756 
	C589.849487,352.095886 587.449463,353.335297 583.490601,353.214874 
	C579.496460,353.093323 575.495728,353.185303 570.998901,353.183960 
z"/>
<path fill="#000000" opacity="1.000000" stroke="none" 
	d="
M539.650269,361.815369 
	C543.580322,361.784119 545.918518,362.800873 545.699890,366.966278 
	C545.497253,370.826416 543.271667,371.463440 540.014709,371.451569 
	C516.372986,371.365479 492.730835,371.347565 469.088928,371.375977 
	C465.687866,371.380066 463.708893,370.319427 463.729370,366.542877 
	C463.750397,362.666229 465.977081,361.860260 469.255188,361.862305 
	C492.567780,361.876892 515.880371,361.834106 539.650269,361.815369 
z"/>
</svg>