<?xml version="1.0" standalone="no"?>
<!DOCTYPE svg PUBLIC "-//W3C//DTD SVG 20010904//EN"
 "http://www.w3.org/TR/2001/REC-SVG-20010904/DTD/svg10.dtd">
<svg version="1.0" xmlns="http://www.w3.org/2000/svg"
 width="980.000000pt" height="980.000000pt" viewBox="0 0 980.000000 980.000000"
 preserveAspectRatio="xMidYMid meet">

<g transform="translate(0.000000,980.000000) scale(0.100000,-0.100000)"
fill="#000000" stroke="none">
<path d="M0 4900 l0 -4900 4900 0 4900 0 0 4900 0 4900 -4900 0 -4900 0 0
-4900z m4237 1674 c469 -69 778 -336 869 -749 20 -91 24 -342 6 -412 -5 -24
-8 -43 -6 -43 3 0 87 63 187 140 100 77 222 170 271 208 48 37 120 92 160 123
39 30 179 138 311 239 132 101 268 205 303 233 34 27 62 46 62 43 0 -3 -161
-148 -357 -323 -197 -175 -466 -414 -598 -532 -132 -118 -261 -233 -286 -255
-25 -23 -162 -144 -303 -271 -275 -245 -325 -282 -435 -320 -143 -50 -206 -55
-717 -55 l-474 0 0 995 0 995 451 0 c356 0 473 -3 556 -16z m1553 -1379 c380
-74 645 -272 767 -572 47 -115 64 -197 70 -348 12 -295 -76 -540 -262 -729
-87 -89 -160 -141 -275 -197 -224 -109 -400 -132 -978 -127 l-373 3 1 623 c0
418 -3 622 -10 622 -6 0 -309 -225 -675 -499 -366 -275 -665 -497 -665 -495 0
3 17 19 37 37 41 36 170 151 693 617 201 178 529 471 730 649 201 179 394 352
430 384 l65 59 180 -5 c106 -3 215 -12 265 -22z"/>
<path d="M3786 6091 c-3 -5 -5 -232 -5 -505 l0 -496 162 0 c184 0 268 14 357
58 116 59 190 141 230 257 26 74 36 219 21 300 -36 191 -179 334 -378 379 -78
17 -377 23 -387 7z"/>
<path d="M5292 4223 l3 -508 160 2 c248 2 360 37 471 148 96 96 134 195 134
355 0 214 -84 362 -254 445 -96 47 -197 65 -372 65 l-144 0 2 -507z"/>
</g>
</svg>
